<?xml version="1.0" encoding="UTF-8"?>
<svg id="Layer_1" data-name="Layer 1" xmlns="http://www.w3.org/2000/svg" viewBox="0 0 198.43 170.08">
  <defs>
    <style>
      .cls-1 {
        fill: #231f20;
      }

      .cls-2 {
        fill: #c9b474;
      }
    </style>
  </defs>
  <path class="cls-1" d="M91.07,45.75c.2.18.47.16.71.19.46.04.92.07,1.37.06.64,0,1.27-.05,1.91-.09.46-.02.92-.04,1.37-.08.62-.04,1.25-.1,1.87-.15.32-.03.64-.05.97-.08.24-.02.48-.03.71-.06.29-.04.51.07.7.25.2.19.4.4.61.61-.11.48-.29.93-.43,1.41h-.67c-.1.12-.05.22,0,.29.09.1.18.22.31.28.53.22,1.08-.04,1.28-.38.09-.15.14-.32.21-.48.1-.21.19-.43.29-.64.02-.04.05-.09.08-.12.37-.36.71-.42,1.05.03.31.41.45.87.28,1.37-.04.12-.12.24-.18.35-.56.07-1.02-.23-1.54-.24-.07.12-.14.23-.2.33-.12.18-.25.35-.46.46-.77.41-1.46-.12-1.52-.74-.01-.14,0-.29,0-.44-.12,0-.21,0-.3,0-.53.05-1.06.11-1.58.16-.4.04-.81.09-1.21.13-.28.03-.56.06-.84.09-.63.06-1.26.12-1.9.17-.22.02-.44.01-.66.02-.76.03-1.52.02-2.28-.01-.76-.03-1.52-.11-2.22-.4-.06-.02-.12-.04-.19-.06-.07.1-.14.2-.22.29-.09.11-.19.21-.29.3-.12.12-.27.14-.43.08-.15-.06-.3-.13-.45-.19-.14-.06-.28-.12-.44-.19-.23.09-.46.17-.68.28-.42.2-.87.24-1.32.31-.53.08-1.06.09-1.59.05-.61-.04-1.23-.12-1.78-.4-.15-.08-.31-.17-.43-.29-.21-.21-.33-.46-.32-.76.02-.37.17-.69.39-.99.02-.02.05-.04.07-.05.02,0,.04,0,.09,0,0,.06.03.12.01.18-.03.1-.07.2-.12.3-.14.26-.01.49.19.64.24.18.51.3.81.37.45.11.91.2,1.39.2.23,0,.46,0,.68,0,.72,0,1.4-.15,2.08-.37.12-.04.23-.09.34-.14.21-.1.37-.25.42-.48.02-.07.05-.15.09-.21.03-.04.1-.06.19-.12.06.3.03.56,0,.83.28.13.54.32.88.24.1-.11.05-.21.04-.32-.05-.26.1-.56.36-.73.11.12.09.29.16.45.06.03.14.08.23.1.46.12.93.21,1.4.27.83.09,1.66.14,2.5.1.76-.04,1.52-.1,2.28-.16.65-.05,1.31-.12,1.96-.18.38-.04.77-.08,1.15-.13.46-.05.91-.1,1.36-.16.34-.04.68-.08,1.02-.12-.17-.38-.55-.64-.96-.62-.42.02-.83.06-1.25.09-.41.03-.81.05-1.22.08-.58.05-1.16.1-1.74.15-.3.03-.6.05-.9.06-.79.03-1.58.11-2.38.06-.36-.02-.73-.06-1.09-.12-.28-.05-.54-.14-.71-.36-.05-.2.04-.36.12-.52.28-.57.74-1,1.28-1.36.7-.47,1.45-.87,2.2-1.28.27-.15.54-.29.82-.43.16-.08.16-.08.34.04-.06.31-.27.53-.55.69-.64.36-1.3.7-1.95,1.04-.6.31-1.11.72-1.57,1.18-.01.01-.01.03-.02.05M102.45,47.45c.19.07.35.16.59.08-.1-.1-.18-.18-.24-.23-.18-.02-.28.02-.35.15"/>
  <path class="cls-1" d="M87.02,46.03c-.28-.18-.54-.34-.81-.51.1-.25.25-.47.43-.7.1.04.18.07.26.12.07.04.14.09.2.14.19.15.4.2.67.08.09-.14.2-.31.33-.5.3.12.56.3.84.44-.08.29-.27.5-.45.75-.16-.1-.31-.19-.47-.29-.17-.1-.35-.18-.59-.05-.11.14-.24.31-.4.51"/>
  <path class="cls-1" d="M88.21,42.33c0,.33-.11.6-.45.77-.51.25-1,.51-1.51.75-.16.08-.35.11-.53.16-.07.02-.16,0-.23,0-.09-.21.01-.34.17-.43.27-.16.55-.31.83-.46.46-.25.92-.5,1.37-.74.1-.05.19-.12.35-.04"/>
  <path class="cls-1" d="M99.58,43.98c-.09-.2-.09-.23.07-.32.22-.13.44-.26.66-.38.52-.3,1.05-.59,1.57-.88.1-.06.2-.15.34-.11.1.28.02.57-.24.7-.58.31-1.18.61-1.77.91-.18.09-.39.14-.62.08"/>
  <path class="cls-1" d="M82.32,43.03c.07,0,.11,0,.13.02.26.14.54.14.82.13.22,0,.22,0,.41.08-.02.24-.07.32-.57.93-.42.17-.72.17-.94.01.09-.19.32-.19.49-.31-.08-.01-.14-.02-.2-.03-.07-.01-.14-.03-.22-.05-.1.08-.2.15-.33.25-.02-.09-.06-.15-.04-.2.1-.29.26-.56.44-.83"/>
  <path class="cls-1" d="M89.71,43.62c.21-.11.36-.19.54-.29-.14-.04-.24-.06-.37-.1-.1.07-.22.15-.35.24-.02-.06-.07-.12-.06-.16.12-.29.28-.58.44-.85.24.06.46.14.68.17.21.03.43,0,.63,0,.09.08.07.15.03.22-.16.23-.31.46-.47.68-.05.07-.14.14-.22.15-.21.03-.43.04-.65.05-.05,0-.1-.06-.21-.13"/>
  <path class="cls-1" d="M83.91,49.7c.34.18.67.29.94.54-.14.26-.27.52-.42.82-.33-.17-.64-.33-.97-.5.15-.29.29-.56.44-.85"/>
  <path class="cls-1" d="M102.62,83.34c-.05.52.32.6.65.75-.08.29-.15.56-.23.84-.05.02-.11.05-.18.08.08.34.15.69.23,1.03.2.92.4,1.83.6,2.75.12.56.14,1.12-.03,1.68-.17.54-.43.71-.98.61-.44-.08-.58-.05-.98-.67-.06.12-.11.22-.15.32-.06.16-.18.26-.34.32-.49.18-.98.24-1.47-.02-.04-.02-.08-.02-.13-.03-.1.15-.2.3-.29.43-.19.06-.3-.02-.42-.09-.29-.17-.57-.34-.86-.51-.09-.05-.19-.1-.29-.15-.06.06-.11.11-.15.17-.14.18-.27.36-.41.54-.18.24-.4.39-.72.42-.26.02-.51.03-.77-.01-.49-.08-.83-.45-.91-.99-.01-.09-.02-.19-.03-.31-.44.12-.86.24-1.28.36-.4.12-.8.18-1.21.14-.17-.01-.34-.04-.51-.09-.41-.13-.62-.46-.72-.84-.11-.45-.19-.92-.26-1.38-.09-.6-.17-1.2-.25-1.81-.04-.31-.06-.62-.08-.93-.03-.44-.03-.88-.08-1.31-.05-.41.04-.8.15-1.19.01-.05.05-.09.11-.2.02.15.03.23.03.31-.02.8.08,1.6.17,2.39.05.48.08.96.15,1.43.09.65.14,1.32.38,1.94.08.2.18.38.39.52.07-.12.11-.22.18-.31.16-.22.3-.45.48-.64.29-.29.65-.43,1.06-.29.42.14.83.29,1.23.46.52.21,1.04.42,1.59.52.1.02.2.06.34.1-.14.27-.27.52-.41.78-.37.04-.69-.22-1.06-.07.03.06.04.14.09.18.11.08.23.17.36.21.56.15,1.11.12,1.62-.17.13-.08.23-.18.28-.34.08-.24.17-.48.26-.72.17-.48.82-.96,1.36-.77.05.15.12.31.17.48.09.3.21.56.51.71.33.17.67.24,1.03.16.22-.05.48-.04.66-.26,0-.07.01-.14,0-.21-.1-.54-.21-1.09-.31-1.63-.15-.81-.3-1.61-.45-2.42-.05-.29-.1-.59-.17-.88-.12-.44.02-.84.22-1.29.06.29.1.51.14.74.14.74.28,1.49.42,2.23.14.76.29,1.53.44,2.29.04.22.11.43.16.65.1.39.38.61.76.71.22.06.44.05.7,0-.05-.24-.09-.47-.14-.7-.19-.92-.39-1.83-.59-2.75-.13-.58-.25-1.17-.39-1.75-.03-.11-.06-.23-.12-.33-.07-.12-.1-.24-.07-.37.08-.3.21-.58.53-.83M91.93,89.99c.79.22,1.49.1,2.23-.16-.33-.18-.64-.29-.96-.38-.08-.02-.17-.04-.25-.05-.45-.04-.74.23-1.02.59M98.14,89.77c.24.2.47.38.78.52-.08-.31-.14-.57-.21-.84-.23.07-.43.11-.57.32"/>
  <path class="cls-1" d="M61.34,91.23c-.12.19-.22.35-.33.51-.57.19-.99-.2-1.47-.36-.68.47-1.43.44-2.2.35-.2-.02-.4.03-.6.07-.33.07-.66.07-.99,0-.74-.18-1.19-.67-1.41-1.37-.1-.3-.14-.62-.19-.94-.12-.81-.22-1.63-.34-2.44-.06-.39-.12-.78-.3-1.14-.05-.1-.1-.22-.11-.33-.01-.12-.02-.26.02-.37.1-.25.23-.48.4-.72.05.21.1.42.16.63.2.71.33,1.43.42,2.16.06.48.09.96.15,1.43.04.41.11.83.27,1.21.23.55.68.84,1.26.94.63.12,1.19-.04,1.74-.42.04-.07.11-.17.18-.28.22.18.04.41.13.62.07,0,.15.02.23.02.35.02.68-.09,1.01-.19.21-.07.35-.2.4-.42.03-.11.06-.23.11-.33.05-.1.12-.19.27-.12.11.27-.09.54-.02.83.27.1.52.28.86.23,0-.24-.1-.47.02-.69.11-.2.23-.4.37-.64.14.27.13.52.2.77.38.22.79.36,1.23.42.18.02.37-.02.53-.19,0-.1,0-.23-.02-.35-.07-.38-.16-.75-.22-1.13-.04-.25-.03-.49.09-.72.09-.18.18-.35.33-.51.06.29.11.58.17.86.08.4.14.8.31,1.17.33.74.97.98,1.71.93.11,0,.21-.03.32-.04.35-.06.67-.17.86-.5.03-.06.1-.1.17-.17.12.21.03.39.01.59.21.07.42.05.63,0,.19-.04.36-.12.55-.19.16-.06.24-.17.28-.33.04-.13.09-.26.14-.39.04-.08.11-.13.22-.08.12.25-.08.49-.02.76.22.12.45.24.74.25,0-.24-.04-.46-.01-.68.03-.22.15-.42.29-.61.21.13.23.33.26.51.08.52-.03,1.02-.28,1.48-.1.18-.23.26-.44.26-.27,0-.51-.09-.74-.2-.1-.05-.19-.1-.27-.14-.05.01-.09.01-.11.03-.33.26-.72.33-1.12.36-.2.01-.41,0-.6-.06-.18-.05-.33-.04-.5.02-.55.19-1.08.11-1.6-.09-.26-.1-.46-.28-.6-.52-.05-.08-.1-.16-.18-.27-.04.09-.07.14-.08.19-.09.42-.54.8-1.14.7-.3-.05-.59-.13-.86-.27-.08-.04-.16-.06-.26-.1"/>
  <path class="cls-1" d="M36.33,91.29c-.28-.11-.45.04-.64.11-.14.05-.27.12-.41.17-.25.09-.5.21-.75.26-.56.12-1.12.21-1.68.31-.62.11-1.25.04-1.87.06-.07,0-.15-.03-.22-.04-.2-.03-.41-.04-.61-.08-.31-.06-.63-.13-.94-.2-.05-.01-.1-.04-.15-.06-.67-.22-1.09-.67-1.33-1.33-.12-.31-.15-.64-.26-.95-.27-.79-.31-1.61-.45-2.42-.07-.37-.05-.74,0-1.12.04-.32.03-.64.08-.96.09-.55.29-1.07.67-1.5.1-.11.23-.19.42-.22.01.1.05.18.03.25-.09.26-.13.54-.4.7-.17.11-.24.29-.31.47-.18.49-.15,1.01-.14,1.52.01.68.17,1.33.3,1.99.07.36.14.73.24,1.09.25.84.77,1.43,1.64,1.69.51.15,1.03.19,1.55.2.4,0,.8.03,1.19.05.72.04,1.41-.13,2.1-.27.32-.07.64-.17.96-.26.04-.01.06-.05.11-.09-.25-.36-.12-.74-.05-1.11.02-.11.11-.2.17-.3.27-.44.6-.8,1.14-.93.04.02.09.04.12.08.17.27.31.55.31.89,0,.39-.03.76-.18,1.12-.02.04-.02.08-.02.13,0,.02,0,.04.02.08.4.07.8.38,1.23.03-.06-.75-.22-1.46-.38-2.18-.24-1.09-.45-2.19-.68-3.29-.03-.16-.1-.32-.19-.47-.13-.23-.17-.45-.07-.7.11-.29.24-.57.45-.86.12.26.04.54.22.72.17.18.36.33.55.51-.07.3,0,.66-.33.92.06.29.11.59.18.89.16.79.33,1.59.49,2.38.03.16.05.32.08.47.16.67.09,1.34-.1,1.99-.05.17-.15.33-.25.48-.16.24-.39.31-.68.27-.39-.06-.77-.24-1.16-.52M36.34,90.31c.12-.09.23-.17.34-.25.04-.3-.03-.55-.16-.79-.39,0-.55.29-.76.52.12.28.34.38.59.52"/>
  <path class="cls-1" d="M73.14,88.53c.09-.73.13-1.46.05-2.2-.03-.34-.05-.68-.08-1.02-.05-.42-.11-.85-.18-1.27-.07-.4.08-.75.23-1.11.01-.03.04-.05.07-.07.02-.01.04-.02.07-.03.14.03.16.16.18.27.04.26.19.41.43.51.11.05.2.14.32.23-.11.29-.2.57-.31.83-.04.09-.14.14-.22.21,0,.65,0,1.31,0,1.98,0,.7-.05,1.39-.24,2.06-.1.34-.08.69.1.99.16.27.21.55.19.86-.01.22,0,.45,0,.68-.83.2-1.64.4-2.49.61-.18-.12-.16-.34-.16-.55,0-.08.04-.17.04-.25-.01-.29.13-.46.41-.52.05-.01.1-.03.16-.04.57-.07.88-.44,1.11-.92.03-.06.05-.12.07-.16-.4-1.14-2.05-3.49-2.91-4.15-.05.16-.11.32-.15.44-.17.12-.28.03-.39-.03-.28-.16-.51-.39-.73-.62-.34-.35-.38-.74-.23-1.18.05-.13.09-.27.16-.38.15-.25.41-.32.67-.16.19.12.37.26.54.4.78.69,1.38,1.52,1.99,2.35.45.62.83,1.28,1.12,1.98.03.07.06.14.1.2,0,.02.03.02.06.04"/>
  <path class="cls-1" d="M19.95,90c.13.09.24.16.33.24.32.27.7.41,1.09.54.09.03.19.03.3-.07-.09-.24-.19-.48-.3-.78.09-.24.25-.51.43-.79.5.75.44,1.66-.01,2.34-.17.26-.45.32-.81.2-.38-.12-.72-.33-1.06-.53-.07-.04-.15-.09-.24-.15-.09.09-.2.16-.27.26-.12.16-.28.26-.47.32-.55.2-1.11.25-1.68.15-.63-.11-1.03-.49-1.27-1.07-.04-.09-.07-.18-.1-.29-.1.09-.2.17-.29.25-.57-.05-1.14-.1-1.74-.15,0,.02-.02-.02-.02-.04.09-.32.17-.64.28-.95.06-.17.2-.28.36-.35.17-.07.34-.13.51-.21.21-.1.43-.2.55-.45-.18-.43.08-.76.3-1.18.06.31.11.56.15.81.09.49.17.99.27,1.48.02.12.07.25.12.37.22.53.61.84,1.2.87.4.02.79.01,1.19-.07.36-.08.66-.24.92-.49.08-.07.16-.14.28-.23M15.07,89.63c.23.02.42.04.62.05.03-.24,0-.43-.11-.68-.18.22-.33.41-.5.62"/>
  <path class="cls-1" d="M84.33,83.53c.05.07.08.1.09.14.29,1.21.57,2.43.86,3.64.19.81.37,1.62.6,2.42.07.26.23.51.4.73.22.3.64.39.99.26.32-.12.58-.33.74-.64.09-.18.18-.36.25-.55.14-.39.37-.67.84-.76.19.03.37.15.47.35.13.24.27.49.36.75.19.49.02.92-.31,1.31-.5-.08-.97-.25-1.47-.42-.13.17-.27.34-.41.51-.29.35-.67.52-1.13.52-.2,0-.38-.07-.53-.2-.21-.19-.38-.4-.45-.69-.14-.59-.29-1.18-.43-1.77-.18-.78-.36-1.56-.53-2.34-.16-.73-.32-1.45-.48-2.18-.02-.11-.03-.24-.01-.35.04-.23.1-.45.16-.72"/>
  <path class="cls-1" d="M20.71,93.04c.12.01.22.01.32.04.27.06.54.12.81.2.3.08.59.07.89-.01.92-.25,1.57-.68,2.28-1.53-.13-.03-.25,0-.37,0-.2,0-.41.02-.61-.01-.55-.1-.85-.53-.74-1.08.1-.46.34-.85.7-1.16.13-.11.27-.13.42-.07.26.11.49.26.63.52.12.24.24.48.38.75.33-.04.64-.15.97-.27-.14-.41-.3-.77-.65-1.02-.07-.36.11-.65.21-.97.55.41.77.96.81,1.57.02.4-.1.8-.34,1.15-.13.17-.3.29-.51.32-.4.05-.6.29-.74.65-.35.87-1.03,1.43-1.85,1.84-.22.11-.46.14-.69.05-.59-.23-1.17-.47-1.76-.71-.08-.03-.17-.05-.17-.23M23.81,90.55c.18.24.4.29.66.21.1-.18-.01-.29-.12-.4-.21-.03-.41-.08-.54.19"/>
  <path class="cls-1" d="M79.88,90.45c-.09.08-.13.11-.16.15-.13.19-.33.26-.55.28-.59.05-1-.3-1.01-.9-.02-.63.19-1.18.62-1.63.25-.27.53-.27.79,0,.57.6.85,1.3.69,2.14-.2,1.07-.78,1.93-1.58,2.65-.19.17-.43.28-.66.39-.25.12-.51.13-.78.04-.68-.22-1.37-.44-2.05-.65.02-.2.07-.26.2-.24.11.01.21.06.31.08.88.23,1.73.14,2.51-.34.61-.38,1.12-.87,1.53-1.46.06-.08.11-.16.14-.25.02-.06,0-.13,0-.26M78.93,89.76c.18.05.31,0,.37-.18-.1-.32-.12-.33-.45-.29q-.15.23.08.48"/>
  <path class="cls-1" d="M43.42,88.36c-.05.13-.1.26-.14.39-.08.24-.16.48-.21.73-.09.45.06.82.44,1.09.29.2.61.31.96.36,1.11.16,2.18.02,3.25-.29.23-.06.44-.16.66-.26.1-.05.19-.13.27-.19,0-.45-.37-.64-.58-.95.02-.31.13-.6.3-.9.26.15.42.39.53.63.23.56.24,1.14.04,1.72-.09.25-.27.43-.51.55-.4.21-.83.29-1.26.38-.46.1-.93.19-1.39.25-.31.04-.63.03-.94,0-.48-.04-.96-.1-1.4-.34-.49-.27-.75-.67-.81-1.23-.08-.8.23-1.43.8-1.96"/>
  <path class="cls-1" d="M81.31,90.97c-.02-.5.18-.94.39-1.37.12-.25.28-.48.45-.69.2-.23.44-.23.68-.04.2.16.33.37.41.6.25.7.2,1.39-.21,2.02-.33.52-.84.61-1.4.28-.2-.12-.33-.31-.33-.55,0-.09,0-.17,0-.26M82.87,90.72c.02-.48-.18-.78-.61-.94-.28.09-.35.35-.4.6-.06.26.05.44.31.51.26.07.5.02.71-.17"/>
  <path class="cls-1" d="M39.84,83.42c.17.27.16.52.21.76.09.43.16.86.23,1.29.14.83.29,1.66.43,2.49.07.43.17.86.21,1.29.04.41.03.83.02,1.25,0,.22-.06.44-.09.66-.02.11-.04.21-.15.28-.12-.09-.13-.21-.12-.32.03-.61-.14-1.19-.23-1.77-.13-.84-.28-1.68-.42-2.52-.12-.69-.22-1.39-.35-2.08-.05-.25-.05-.48.03-.72.04-.13.08-.27.12-.4.02-.05.06-.1.12-.19"/>
  <path class="cls-1" d="M76.22,91.75c0-.07-.02-.12-.02-.17.05-.65-.08-1.27-.2-1.9-.15-.79-.3-1.57-.44-2.36-.11-.62-.22-1.24-.31-1.86-.06-.41.05-.8.22-1.18,0-.02.02-.04.04-.05.02-.01.04-.02.09-.04.03.05.08.11.09.17.11.61.22,1.22.33,1.82.13.72.25,1.45.37,2.18.1.61.19,1.22.26,1.83.02.16-.02.34-.05.51-.06.31-.12.63-.19.94-.02.09-.06.13-.2.11"/>
  <path class="cls-1" d="M24.9,84.8c-.18-.09-.36-.17-.53-.26-.33-.17-.38-.3-.25-.65.16-.43.42-.77.87-.93.13-.05.26-.1.4-.16.25.42.25.87.21,1.32.25.09.47.17.68.26.04.01.06.06.1.09.12.37-.23.46-.4.68-.12-.07-.22-.14-.34-.19-.11-.05-.23-.09-.37-.14-.08.1-.15.18-.21.27-.08.12-.17.25-.24.38-.33.6-.88.89-1.52,1.04-.28.07-.56.13-.88.2-.04-.04-.1-.09-.16-.15.14-.19.34-.24.52-.28.63-.16,1.15-.51,1.66-.9.19-.14.33-.34.45-.57M25.15,83.96c.02-.15-.08-.24-.17-.35-.11.06-.25.07-.27.21q.2.15.44.14"/>
  <path class="cls-1" d="M52.41,88.07c.25.29.45.51.63.75.19.26.27.56.29.87.04.6-.17,1.14-.48,1.63-.27.44-.64.81-1.06,1.11-.27.19-.57.24-.89.11-.51-.22-1.02-.45-1.53-.68-.06-.03-.11-.08-.2-.14.19-.06.33-.03.48,0,.22.06.43.13.66.15.59.06,1.1-.15,1.57-.48.42-.29.75-.67,1.06-1.08-.09-.52-.45-.88-.83-1.26.09-.31.19-.62.3-1"/>
  <path class="cls-1" d="M35.62,84.29c.15.23-.02.37-.04.52-2.13,1.24-4.28,2.38-6.35,3.68-.04-.04-.07-.06-.1-.1.05-.12.08-.25.15-.35.06-.1.14-.19.23-.25.42-.27.85-.54,1.29-.8.45-.27.91-.53,1.37-.78.46-.26.92-.5,1.38-.76.54-.3,1.08-.62,1.62-.92.14-.08.28-.15.45-.23"/>
  <path class="cls-1" d="M66.77,88.13c.29-.14.59-.29.91-.45-.27-.14-.55-.06-.78-.11-.19.11-.21.41-.49.33-.09-.07-.12-.15-.08-.25.06-.17.12-.34.19-.51.11-.24.24-.47.37-.73.08.03.13.05.19.07.19.08.38.12.59.12.42,0,.84-.02,1.25.1.08.15.05.29-.02.43-.05.1-.11.21-.17.31-.22.32-.44.63-.68.97-.32,0-.68.01-1.03,0-.12,0-.26-.05-.25-.29"/>
  <path class="cls-1" d="M50.13,84.61c.1.59.19,1.11.28,1.63.08.45.15.9.22,1.35.04.28.07.57.1.86.03.29.07.57.06.86-.01.33-.07.65-.12.98-.03.19-.12.36-.3.52-.03-.22-.06-.4-.08-.58-.09-.79-.18-1.59-.28-2.38-.07-.55-.12-1.1-.22-1.64-.11-.56,0-1.05.35-1.6"/>
  <path class="cls-1" d="M44.41,85.61c-.04-.08-.07-.13-.1-.18.13-.29.44-.34.68-.56-.2-.03-.35-.06-.51-.08-.23,0-.22.41-.55.28.08-.48.36-.85.62-1.25.3.05.6.13.91.15.3.02.61-.01.95-.02-.26.6-.62,1.1-.99,1.59-.35.03-.68.05-1.01.08"/>
  <path class="cls-1" d="M60.51,84.42c-.15.39-.25.71-.6.9-1.19.62-2.38,1.24-3.57,1.86-.09.05-.17.14-.31.06.09-.33.26-.61.57-.79.27-.16.54-.31.81-.46.93-.49,1.86-.97,2.8-1.46.07-.04.15-.05.29-.1"/>
  <path class="cls-1" d="M77.15,86.98c-.08-.22.02-.31.11-.4.22-.19.44-.37.68-.54.83-.58,1.66-1.15,2.49-1.72.05-.03.11-.05.16-.08.18.14.23.27.13.44-.15.24-.3.49-.55.66-.74.47-1.48.94-2.23,1.4-.15.09-.32.17-.49.23-.09.03-.2,0-.29,0"/>
  <path class="cls-1" d="M44.16,87.76c.22-.27.31-.58.55-.8.11.05.21.09.3.15.5.3.36.23.97.22.15-.16.32-.34.5-.54.29.21.56.41.84.61-.13.32-.33.54-.57.77-.18-.13-.36-.24-.53-.37-.18-.14-.38-.19-.65-.11-.13.18-.29.39-.46.62-.31-.18-.61-.35-.96-.55"/>
  <path class="cls-1" d="M63.12,86.65c-.15.22-.3.44-.45.68-.33-.18-.65-.36-.97-.54.03-.07.04-.12.07-.17.14-.21.28-.43.43-.66.21.11.41.2.61.31.15.08.3.1.47.09.18,0,.31-.06.41-.21.08-.12.18-.24.28-.38.3.21.59.42.91.65-.2.27-.39.51-.58.76-.39-.18-.63-.62-1.17-.54"/>
  <path class="cls-1" d="M59.93,88.52c-.19.27-.37.53-.56.8-.19-.14-.36-.27-.54-.39-.07-.05-.14-.1-.22-.13-.22-.1-.4-.06-.54.12-.12.15-.21.31-.34.5-.32-.17-.64-.34-.99-.53.18-.28.35-.54.52-.81.33.06.57.25.87.4.14-.02.32-.04.48-.06.15-.18.28-.34.42-.51.29.2.58.39.89.6"/>
  <path class="cls-1" d="M86.19,88.01c.04-.25.14-.43.31-.57.37-.29.74-.59,1.13-.85.6-.41,1.22-.8,1.84-1.19.11-.07.22-.18.4-.07-.08.4-.23.74-.65.91-.21.09-.41.24-.6.36-.67.44-1.35.88-2.02,1.32-.11.07-.23.17-.4.09"/>
  <path class="cls-1" d="M81.64,86.78c.16.11.32.21.47.33.12.09.25.16.41.16.19,0,.35-.03.48-.2.09-.12.2-.22.29-.31.35-.07.38.01.73.38.04.32-.14.63-.42.74-.12.05-.23.03-.33-.05-.12-.1-.25-.2-.37-.29-.49-.08-.74.25-.99.58-.33-.02-.59-.19-.75-.47-.05-.08-.04-.21,0-.3.08-.22.21-.42.48-.57"/>
  <path class="cls-1" d="M19.09,93.76c-.41-.18-.65-.61-1.17-.49-.12.19-.26.4-.42.63-.32-.18-.63-.35-.97-.54.16-.28.32-.54.52-.79.27.14.53.27.76.39.18-.02.34-.03.52-.05.13-.15.28-.3.43-.47.33.15.58.38.88.58-.19.26-.37.5-.55.74"/>
  <path class="cls-1" d="M99.32,85.71c.32.31.33.37.1.7-.1-.06-.21-.12-.34-.19-.34.43-.67.88-1.17,1.13-.2.1-.41.19-.61.27-.06.03-.14.02-.24.03.05-.15.16-.2.25-.26.34-.26.69-.51,1.03-.77.2-.15.38-.32.52-.55-.14-.1-.28-.19-.42-.29-.28-.2-.35-.46-.13-.81.13-.2.31-.36.55-.42.24-.07.43.01.51.25.05.15.1.3.05.47-.04.14-.06.29-.09.43M98.56,85.1c.06.26.27.32.46.42.06-.19-.02-.33-.14-.44-.09-.08-.19-.09-.32.01"/>
  <path class="cls-1" d="M16.61,86.29c-.21.28-.38.51-.58.77-.2-.15-.39-.28-.58-.42-.14-.11-.3-.17-.51-.11-.15.19-.31.4-.49.63-.31-.18-.62-.35-.95-.53.17-.27.33-.53.51-.81.15.09.27.17.4.24.12.06.25.14.38.16.3.04.58,0,.75-.3.04-.07.1-.13.18-.23.3.15.55.39.88.59"/>
  <path class="cls-1" d="M70.49,82.84c-.13.14-.27.29-.41.44-.24-.41.1-.87.75-1.01.12.05.25.11.42.18.07-.11.15-.22.21-.34.11-.22.29-.37.48-.51.12-.09.26-.15.44-.1.19.14.22.34.16.56-.13.43-.39.79-.73,1.07-.25.21-.64.17-.88-.07-.11-.12-.23-.18-.44-.21M71.54,82.53c.27.02.32,0,.49-.2.02-.02.01-.06.02-.1-.05-.03-.09-.05-.16-.08-.11.12-.23.24-.36.38"/>
  <path class="cls-1" d="M61.67,94.53v-.26c.35-.2.72-.41,1.07-.62.53-.31,1.05-.62,1.58-.93.07-.04.15-.09.23-.12.11-.04.21-.03.28.16-.08.16-.17.37-.28.56-.04.08-.13.14-.21.18-.6.31-1.21.6-1.81.91-.26.13-.53.16-.85.12"/>
  <path class="cls-1" d="M86.79,84.04c.06.08.12.16.17.23.26.35.83.46,1.22.24.18-.1.22-.28.3-.44.05-.1.09-.21.16-.36.07.1.12.14.12.19,0,.09,0,.19-.03.28-.08.23-.16.46-.26.69-.15.36-.44.57-.83.63-.48.08-1.02-.35-1.03-.82,0-.11,0-.21,0-.32,0-.12.04-.23.17-.33"/>
  <path class="cls-1" d="M35.93,87.76c-.2-.14-.38-.26-.6-.41-.34-.07-.39.27-.56.5-.07.02-.16.06-.26.09-.21-.12-.41-.24-.62-.36-.04-.32.2-.5.32-.78.1.03.19.04.28.08.11.05.2.12.31.17.27.15.52.08.68-.18.06-.1.11-.2.18-.34.28.2.59.29.75.57-.02.32-.24.47-.48.67"/>
  <path class="cls-1" d="M17.2,87.5c-.12-.26.03-.45.09-.67.82-.46,1.63-.91,2.45-1.37.03.06.08.1.07.13-.04.28-.07.57-.37.73-.67.37-1.33.74-2,1.11-.07.04-.16.05-.24.07"/>
  <path class="cls-1" d="M95.61,84.6c-.05.39-.24.78-.52.98-.42.31-.86.61-1.3.89-.3.19-.62.35-.93.52-.09.05-.18.13-.32.06-.03-.12.05-.21.13-.29.11-.1.23-.19.34-.29.55-.48,1.17-.87,1.79-1.26.22-.14.42-.3.62-.45.05-.04.1-.08.19-.15"/>
  <path class="cls-1" d="M32.26,90.16s-.05,0-.07-.01c-.61-.14-.72-.49-.6-1.13.03-.17.05-.36.26-.48.08.22.15.42.21.61.39.15.49.15.82-.03q.09-.29.34-.31c.1.28-.04.53-.14.78-.14.35-.42.52-.82.58"/>
  <path class="cls-1" d="M29.31,84.51c0-.26-.06-.51.19-.67.89.56,1.15,2.4.43,2.89-.09-.07-.05-.14-.03-.23.04-.21.1-.41.11-.62.02-.53-.18-.97-.6-1.31-.03-.02-.05-.04-.09-.07"/>
  <path class="cls-1" d="M58.31,88.25c-.32-.16-.63-.32-.96-.49.14-.32.26-.61.51-.86.3.16.58.31.87.47,0,.25-.16.59-.42.89"/>
  <path class="cls-1" d="M25.09,86.53c.34.18.67.29.94.54-.14.26-.27.52-.42.82-.33-.17-.64-.33-.97-.5.15-.29.29-.56.44-.86"/>
  <path class="cls-1" d="M19.96,88.24c.16-.29.3-.55.45-.84.32.17.63.33.95.5-.15.29-.28.56-.43.84-.32-.17-.63-.33-.97-.51"/>
  <path class="cls-1" d="M56.27,85.89c-.02-.17-.05-.33-.05-.5,0-.43-.19-.78-.52-1.05-.11-.09-.21-.18-.31-.28,0-.21-.04-.41.11-.59.22.04.32.21.44.35.24.3.48.61.49,1.02,0,.35.07.72-.06,1.06-.03,0-.06,0-.09,0"/>
  <path class="cls-1" d="M16.23,112.38c0,.72,0,1.31.04,1.62.02.22.07.38.29.41.1.02.27.03.34.03.05,0,.06.02.06.05,0,.04-.04.06-.12.06-.41,0-.88-.02-.92-.02s-.51.02-.73.02c-.08,0-.12-.01-.12-.06,0-.02.01-.05.06-.05.07,0,.16-.01.22-.03.15-.03.19-.19.22-.41.04-.31.04-.9.04-1.62v-3.16c-.37,0-.74,0-1.1.01-.46,0-.64.06-.76.24-.08.13-.1.18-.13.23-.02.06-.05.07-.07.07-.02,0-.04-.02-.04-.07,0-.07.15-.72.16-.78.01-.04.04-.14.07-.14.05,0,.13.07.33.09.22.02.5.04.59.04h2.8c.24,0,.41-.01.53-.04.11-.02.18-.04.21-.04.04,0,.04.05.04.09,0,.22-.02.74-.02.82,0,.07-.02.1-.05.1-.04,0-.05-.02-.06-.13,0-.03,0-.05,0-.08-.02-.22-.2-.4-.92-.41-.31,0-.63,0-.94-.01v3.16Z"/>
  <path class="cls-1" d="M22.72,111.75s.04,0,.04-.04v-.13c0-.98,0-1.16-.02-1.36-.01-.2-.04-.31-.29-.35-.05,0-.13-.01-.19-.01-.05,0-.09-.02-.09-.05,0-.05.04-.05.1-.05.31,0,.75.02.78.02s.45-.02.67-.02c.07,0,.12,0,.12.05,0,.02-.02.05-.08.05-.05,0-.1,0-.15.01-.2.03-.23.15-.25.36,0,.2,0,.37,0,1.36v1.12c0,.61,0,1.1.03,1.37.02.18.06.33.25.35.1.01.19.02.26.02.06,0,.1.02.1.05,0,.04-.04.05-.11.05-.37,0-.81-.02-.84-.02-.03,0-.46.02-.66.02-.07,0-.11-.01-.11-.06,0-.02.02-.05.08-.05s.11,0,.17-.01c.13-.02.16-.19.19-.36.04-.27.04-.74.04-1.34v-.66s-.02-.05-.04-.05h-2.71s-.04,0-.04.05v.66c0,.6,0,1.09.04,1.36.02.16.06.31.25.34.1.01.21.02.27.02.05,0,.09.02.09.05s-.03.05-.1.05c-.38,0-.82-.02-.86-.02-.02,0-.48.02-.67.02-.07,0-.12-.01-.12-.05,0-.02.02-.05.08-.05.06,0,.12,0,.18-.02.13-.03.16-.17.19-.34.04-.27.04-.77.04-1.38v-1.1c0-.99,0-1.18-.02-1.38-.01-.19-.07-.34-.28-.36-.07,0-.14-.02-.2-.02-.05,0-.08-.02-.08-.04,0-.05.04-.05.11-.05.32,0,.68.02.78.02.03,0,.46-.02.67-.02.07,0,.11.01.11.05,0,.03-.03.04-.07.04s-.07,0-.15.02c-.19.03-.23.16-.25.37,0,.2,0,.37,0,1.35v.13s.02.04.04.04h2.7Z"/>
  <path class="cls-1" d="M25.49,111.58c0-.98,0-1.16-.01-1.36-.01-.21-.07-.31-.28-.36-.04,0-.12-.01-.18-.01-.05,0-.1-.02-.1-.05,0-.04.04-.06.11-.06.15,0,.35.02.77.02.04,0,1.37,0,1.51,0,.15,0,.23-.02.29-.04.04-.01.05-.02.08-.02.01,0,.03.01.03.05,0,.04-.04.15-.06.34,0,.13-.01.25-.02.39,0,.07-.01.11-.05.11s-.05-.03-.05-.08c0-.11-.03-.19-.05-.24-.04-.15-.11-.2-.48-.22-.1,0-.84-.01-.85-.01-.02,0-.04.01-.04.06v1.69s0,.07.04.07c.09,0,.85,0,1.01-.02.17,0,.28-.03.34-.11.03-.05.05-.06.08-.06.02,0,.03,0,.03.05s-.03.18-.05.4c-.02.21-.02.36-.03.46,0,.06-.02.08-.05.08-.04,0-.04-.05-.04-.1,0-.04,0-.12-.02-.18-.03-.1-.07-.2-.36-.22-.17-.01-.78-.03-.9-.03-.05,0-.05.02-.05.05v.54c0,.23,0,.89,0,1.01.01.28.05.42.21.49.11.05.29.07.54.07.14,0,.38,0,.57-.04.22-.07.28-.22.34-.49.01-.07.04-.1.07-.1.04,0,.04.07.04.11,0,.05-.06.52-.08.65-.03.15-.08.16-.33.16-.49,0-.7-.02-.96-.02-.26,0-.6-.02-.88-.02-.17,0-.31.02-.49.02-.07,0-.1-.01-.1-.05,0-.03.03-.05.07-.05.05,0,.1,0,.15-.02.13-.03.22-.13.24-.59,0-.25.01-.56.01-1.13v-1.12Z"/>
  <path class="cls-1" d="M32.2,112.72c0,.86.03,1.29.16,1.41.12.1.27.15.78.15.33,0,.63,0,.79-.21.07-.11.13-.26.14-.37,0-.06.02-.09.06-.09.03,0,.05.02.05.1s-.05.5-.09.67c-.04.15-.04.19-.4.19-.51,0-1.07-.04-1.81-.04-.25,0-.4.02-.66.02-.07,0-.12-.01-.12-.06,0-.02.02-.05.08-.05s.12,0,.18-.01c.13-.02.17-.17.19-.35.05-.28.03-.8.03-1.37v-1.12c0-.99,0-1.15-.01-1.35-.02-.21-.05-.34-.3-.37-.04,0-.13,0-.19,0-.05,0-.08-.02-.08-.05,0-.04.04-.05.11-.05.31,0,.76.02.78.02.1,0,.56-.02.77-.02.07,0,.1.02.1.05s-.04.05-.08.05c-.05,0-.13,0-.2.01-.21.03-.25.15-.27.37-.01.2,0,.37,0,1.35v1.13Z"/>
  <path class="cls-1" d="M36.13,112.72s-.06.02-.07.06l-.33.93c-.07.21-.13.41-.13.53,0,.13.08.19.25.19h.05c.07,0,.09.02.09.05,0,.04-.06.05-.11.05-.16,0-.51-.02-.59-.02-.07,0-.4.02-.72.02-.08,0-.12-.01-.12-.05,0-.03.03-.05.09-.05.04,0,.1,0,.15,0,.32-.03.45-.28.57-.59l1.49-3.93c.08-.22.1-.25.16-.25.04,0,.07.03.15.24.1.25,1.12,2.85,1.52,3.78.25.59.46.69.57.72.1.04.2.04.25.04s.09.01.09.05-.03.05-.11.05c-.07,0-.63,0-1.13-.01-.14,0-.19-.01-.19-.05,0-.02.02-.04.05-.05.03-.01.07-.05.03-.16l-.59-1.5s-.03-.04-.06-.04h-1.36ZM37.4,112.46s.03-.02.02-.04l-.59-1.65c-.04-.1-.04-.1-.08,0l-.56,1.65s0,.04.01.04h1.19Z"/>
  <path class="cls-1" d="M39.39,110.38c-.1-.33-.16-.44-.37-.5-.08-.02-.22-.03-.27-.03-.04,0-.09-.01-.09-.06,0-.03.04-.05.11-.05.39,0,.73.02.81.02.05,0,.38-.02.73-.02.09,0,.1.03.1.05,0,.05-.04.06-.1.06-.05,0-.16,0-.24.03-.07.02-.07.08-.07.16,0,.08.06.29.13.57.1.4.74,2.62.85,2.98l1.38-3.51c.1-.28.14-.32.18-.32.05,0,.09.09.18.33l1.32,3.51c.18-.61.81-2.51,1.01-3.25.05-.19.06-.23.06-.31,0-.11-.04-.19-.36-.19-.07,0-.1-.03-.1-.06s.03-.05.11-.05c.28,0,.57.02.63.02.04,0,.41-.02.61-.02.06,0,.09.02.09.05,0,.04-.04.06-.1.06-.02,0-.12,0-.19.02-.22.05-.3.37-.42.7-.29.81-.96,2.81-1.18,3.42-.19.52-.25.63-.31.63-.07,0-.12-.1-.22-.38l-1.28-3.4c-.24.58-1.14,2.84-1.37,3.4-.11.29-.16.38-.23.38-.07,0-.11-.1-.26-.57l-1.15-3.68Z"/>
  <path class="cls-1" d="M49.18,111.58c0-.98,0-1.16-.01-1.36-.01-.21-.05-.33-.28-.35-.07,0-.12,0-.19-.01-.06,0-.1-.03-.1-.06,0-.04.04-.05.11-.05.27,0,.51.02.76.02.11,0,1.47,0,1.63,0,.15,0,.26-.02.34-.05.04-.01.06-.02.07-.02.02,0,.04.02.02.07-.01.05-.04.16-.04.23-.03.19-.02.33-.04.52,0,.08-.02.11-.05.11-.04,0-.05-.04-.06-.09,0-.08-.03-.28-.12-.37-.1-.09-.23-.1-.42-.1-.32,0-.61-.01-.94-.01-.05,0-.07.01-.07.07v1.69s0,.07.05.07c.31,0,.66,0,.91,0,.31,0,.4-.02.5-.14.03-.04.05-.06.07-.06.02,0,.03.03.03.07s-.03.16-.05.39c-.02.2-.03.33-.03.43,0,.07-.02.11-.05.11-.05,0-.05-.05-.05-.11,0-.1-.02-.36-.39-.4-.15-.02-.82-.02-.94-.02-.04,0-.05.01-.05.07v.52c0,.5,0,.95.02,1.25,0,.37.06.43.27.45.1.02.16.02.23.03.06,0,.09.02.09.05s-.02.05-.1.05c-.39,0-.8-.02-.83-.02h-.05c-.14,0-.45.02-.6.02-.07,0-.1-.01-.1-.05,0-.02.01-.04.07-.05.07,0,.11,0,.16-.01.17-.02.19-.14.21-.41.02-.28.03-.72.03-1.31v-1.12ZM53.1,111.58c0-.99,0-1.16-.01-1.37-.01-.2-.06-.31-.22-.34-.07-.01-.13-.01-.17-.02-.05,0-.08-.02-.08-.05,0-.04.03-.05.11-.05.23,0,.66.02.68.02.03,0,.46-.02.67-.02.07,0,.11.02.11.05,0,.03-.02.05-.08.05-.05,0-.08,0-.13.01-.22.03-.24.14-.25.36-.01.2,0,.37,0,1.36v1.12c0,.57,0,1.1.03,1.37.03.22.06.3.25.34.1.02.25.03.28.03.07,0,.08.02.08.05s-.03.05-.1.05c-.38,0-.81-.02-.85-.02-.02,0-.46.02-.67.02-.07,0-.12-.01-.12-.05,0-.03.03-.05.1-.05.04,0,.12,0,.18-.02.13-.03.15-.18.17-.36.04-.27.04-.8.04-1.36v-1.12Z"/>
  <path class="cls-1" d="M55.84,111.58c0-.99,0-1.16-.01-1.37-.01-.2-.07-.31-.3-.36-.05,0-.12-.01-.18-.01-.05,0-.08-.01-.08-.05s.02-.05.09-.05c.32,0,.78.02.79.02.07,0,.57-.02.78-.02.42,0,.87.04,1.22.28.14.1.45.4.45.91,0,.41-.2.93-.79,1.41.54.67.99,1.22,1.37,1.62.36.37.58.43.79.46.05,0,.21.01.23.01.06,0,.08.02.08.05,0,.04-.03.05-.13.05h-.52c-.35,0-.51-.02-.68-.09-.31-.13-.54-.47-.93-.97-.29-.36-.59-.76-.72-.92-.03-.03-.04-.04-.09-.04h-.77s-.04,0-.04.03v.1c0,.6,0,1.14.04,1.41.02.18.04.33.29.36.07,0,.16.01.22.01.07,0,.1.02.1.05,0,.04-.03.06-.11.06-.39,0-.81-.02-.84-.02-.12,0-.45.02-.65.02-.07,0-.1-.01-.1-.06,0-.02.05-.05.09-.05.05,0,.1,0,.16-.01.13-.02.17-.1.19-.28.04-.27.03-.88.03-1.44v-1.12ZM56.42,112.11s0,.07.04.09c.1.05.4.1.66.1.16,0,.34,0,.5-.11.22-.14.37-.47.37-.95,0-.81-.43-1.26-1.1-1.26-.19,0-.34.01-.43.04-.02,0-.05.03-.05.07v2.03Z"/>
  <path class="cls-1" d="M65.55,113.72c.02.18.07.6.36.66.13.03.28.05.38.05.03,0,.1,0,.1.04s-.03.06-.11.06c-.13,0-.94-.03-1.18-.04-.16-.02-.22-.03-.22-.07,0-.02.03-.05.07-.07.04-.02.06-.1.04-.21l-.33-3.19-1.58,3.21c-.14.29-.16.36-.23.36-.04,0-.08-.07-.22-.32-.12-.22-.72-1.41-.76-1.48-.05-.09-.78-1.54-.84-1.69l-.28,2.87c0,.1,0,.17,0,.28,0,.08.04.19.19.22.08.02.13.02.21.02.06,0,.07.03.07.04,0,.05-.05.06-.13.06-.24,0-.56-.02-.62-.02-.07,0-.39.02-.57.02-.07,0-.11,0-.11-.06,0-.01.03-.04.1-.04.05,0,.06,0,.14,0,.18-.02.25-.19.28-.49l.5-4.1c.01-.13.04-.19.08-.19s.06.02.11.12l2,3.87,1.9-3.87c.04-.08.07-.13.11-.13s.07.07.07.19l.47,3.88Z"/>
  <path class="cls-1" d="M68.83,112.13c0-.99.77-2.48,2.61-2.48,1.48,0,2.61.88,2.61,2.38s-1.05,2.59-2.64,2.59c-1.83,0-2.57-1.36-2.57-2.49M73.34,112.22c0-1.5-.93-2.34-1.95-2.34s-1.87.64-1.87,2.05.81,2.43,2.07,2.43c.5,0,1.75-.25,1.75-2.15"/>
  <path class="cls-1" d="M75.35,111.58c0-.98,0-1.16-.01-1.36-.01-.21-.05-.33-.28-.35-.07,0-.12,0-.19-.01-.06,0-.1-.03-.1-.06,0-.04.04-.05.11-.05.27,0,.51.02.76.02.11,0,1.47,0,1.63,0,.15,0,.26-.02.34-.05.04-.01.06-.02.07-.02.02,0,.04.02.02.07-.01.05-.04.16-.04.23-.03.19-.02.33-.04.52,0,.08-.02.11-.05.11-.04,0-.05-.04-.06-.09,0-.08-.03-.28-.12-.37-.1-.09-.23-.1-.42-.1-.32,0-.61-.01-.94-.01-.05,0-.07.01-.07.07v1.69s0,.07.05.07c.31,0,.66,0,.91,0,.31,0,.4-.02.5-.14.03-.04.05-.06.07-.06.02,0,.03.03.03.07s-.03.16-.05.39c-.02.2-.03.33-.03.43,0,.07-.01.11-.05.11-.05,0-.05-.05-.05-.11,0-.1-.02-.36-.39-.4-.15-.02-.82-.02-.94-.02-.05,0-.05.01-.05.07v.52c0,.5,0,.95.01,1.25,0,.37.06.43.27.45.1.02.16.02.23.03.06,0,.09.02.09.05s-.02.05-.1.05c-.39,0-.8-.02-.83-.02h-.05c-.14,0-.45.02-.61.02-.07,0-.1-.01-.1-.05,0-.02.01-.04.07-.05.07,0,.11,0,.16-.01.17-.02.19-.14.21-.41.02-.28.03-.72.03-1.31v-1.12Z"/>
  <g>
    <path class="cls-2" d="M128.59,132.09c0-3.24,0-3.82-.04-4.49-.04-.71-.21-1.04-.92-1.18-.17-.04-.54-.06-.73-.06-.09,0-.17-.04-.17-.12,0-.12.11-.17.34-.17.97,0,2.32.06,2.43.06.24,0,1.87-.06,2.54-.06,1.35,0,2.79.12,3.93.91.54.37,1.48,1.39,1.48,2.83,0,1.54-.67,3.08-2.6,4.8,1.76,2.18,3.22,4.03,4.47,5.32,1.16,1.18,2.08,1.41,2.62,1.5.41.06.71.06.84.06.11,0,.19.06.19.12,0,.12-.13.17-.52.17h-1.53c-1.2,0-1.74-.1-2.3-.39-.92-.48-1.68-1.5-2.9-3.05-.9-1.14-1.91-2.54-2.34-3.08-.09-.08-.15-.12-.28-.12l-2.64-.04c-.11,0-.15.06-.15.17v.5c0,2,0,3.64.11,4.51.06.6.19,1.06.84,1.14.3.04.77.08.97.08.13,0,.17.06.17.12,0,.1-.11.17-.34.17-1.18,0-2.54-.06-2.64-.06-.02,0-1.38.06-2.02.06-.24,0-.34-.04-.34-.17,0-.06.04-.12.17-.12.19,0,.45-.04.64-.08.43-.08.54-.54.62-1.14.11-.87.11-2.51.11-4.51v-3.66ZM130.31,133.89c0,.1.04.19.15.25.32.19,1.31.33,2.26.33.52,0,1.12-.06,1.61-.39.75-.5,1.31-1.62,1.31-3.2,0-2.6-1.42-4.16-3.72-4.16-.64,0-1.23.06-1.44.12-.11.04-.17.12-.17.25v6.8Z"/>
    <path class="cls-2" d="M160.21,139.09c.09.75.26,1.91,1.26,2.2.68.19,1.21.19,1.45.19.12,0,.26.02.26.12,0,.12-.07.17-.35.17-.51,0-3.17-.06-4.03-.12-.54-.04-.65-.1-.65-.21,0-.08.05-.1.16-.15.16-.06.14-.37.09-.75l-1.12-10.85-5.78,10.93c-.49.91-.56,1.1-.77,1.1-.16,0-.28-.21-.72-.96-.61-1.02-2.61-4.61-2.73-4.82-.21-.37-2.89-5.51-3.15-6.07l-.96,9.79c-.02.33-.05.62-.05.98,0,.52.28.69.63.75.4.08.7.08.84.08s.23.04.23.1c0,.15-.12.19-.35.19-.86,0-2.05-.06-2.24-.06-.21,0-1.33.06-1.96.06-.23,0-.4-.02-.4-.17,0-.08.12-.12.23-.12.19,0,.35,0,.7-.06.77-.12.82-.87.93-1.72l1.68-13.51c.02-.23.12-.42.26-.42s.23.08.35.31l7.13,13.07,6.85-13.05c.09-.19.19-.33.35-.33s.23.17.28.56l1.56,12.76Z"/>
    <path class="cls-2" d="M175.06,140c0,.93-.02.98-.28,1.12-1.38.71-3.31.94-4.56.94-1.63,0-4.68-.21-7.07-2.22-1.31-1.1-2.56-3.32-2.56-5.92,0-3.32,1.68-5.67,3.59-6.84,1.93-1.16,4.06-1.31,5.72-1.31,1.35,0,2.88.27,3.29.35.45.1,1.2.19,1.74.21.21.02.26.1.26.19,0,.29-.15.87-.15,2.95,0,.33-.04.44-.19.44-.11,0-.13-.12-.15-.31-.02-.29-.13-.87-.45-1.37-.54-.79-2.28-1.68-5.05-1.68-1.35,0-2.97.12-4.6,1.37-1.25.96-2.13,2.85-2.13,5.28,0,2.93,1.53,5.05,2.28,5.76,1.7,1.6,3.65,2.22,5.63,2.22.77,0,1.89-.12,2.45-.44.28-.15.43-.37.43-.73v-3.53c0-1.68-.11-1.91-.97-2.14-.17-.04-.54-.06-.73-.06-.09,0-.17-.04-.17-.12,0-.12.11-.17.34-.17.97,0,2.32.06,2.43.06s1.46-.06,2.11-.06c.24,0,.34.04.34.17,0,.08-.09.12-.17.12-.15,0-.28.02-.54.06-.58.1-.75.46-.79,1.18-.04.67-.04,1.29-.04,2.16v2.33Z"/>
  </g>
  <path class="cls-2" d="M184.86,46.75c-.14-2.15-.48-4.29-1-6.39-.52-2.1-1.18-4.15-1.95-6.18-.76-2.03-1.67-4-2.61-5.96-.08-.17-.3-.25-.49-.19-.2.07-.31.26-.23.44h0s.61,1.49.61,1.49l.3.74.28.75c.18.5.39,1,.56,1.5l.52,1.51c.66,2.02,1.23,4.06,1.65,6.12.42,2.06.7,4.14.77,6.21.07,2.08-.06,4.15-.44,6.19-.37,2.04-.99,4.04-1.8,5.97-.82,1.93-1.85,3.8-3.02,5.6-2.36,3.6-5.23,6.96-8.11,10.35-.38.44-.75.89-1.13,1.33-.03-.48-.06-.96-.1-1.44-.18-2.18-.52-4.27-.93-6.24-.36-1.75-.81-3.4-1.27-4.92.08-.03.15-.07.22-.12-.02.01.13-.09.31-.25.19-.16.45-.38.76-.68.31-.3.66-.68,1.04-1.12.37-.45.78-.96,1.18-1.54.39-.58.8-1.22,1.17-1.92.37-.7.73-1.45,1.03-2.24.32-.79.57-1.62.81-2.47.21-.85.4-1.72.52-2.6l.09-.66c.03-.22.04-.44.06-.66.02-.22.04-.44.06-.65,0-.22.02-.43.03-.65,0-.22.02-.43.03-.65,0-.21,0-.43,0-.64,0-.21,0-.42,0-.63-.01-.21-.02-.42-.03-.62-.03-.82-.12-1.61-.2-2.36-.11-.74-.2-1.45-.33-2.09-.06-.32-.12-.63-.18-.92-.07-.29-.13-.57-.19-.83-.06-.26-.12-.5-.17-.73-.06-.22-.12-.43-.17-.61-.21-.74-.33-1.16-.33-1.16-.05-.18-.25-.29-.45-.25-.21.04-.35.22-.31.4h0s.09.43.26,1.17c.04.18.09.39.13.61.04.22.08.46.13.72.05.26.09.53.14.82.04.29.08.59.12.91.1.63.14,1.32.21,2.05.03.73.08,1.5.06,2.29,0,.2,0,.4,0,.6-.01.2-.02.4-.03.61-.01.2-.02.41-.03.61-.02.21-.04.41-.06.62-.02.21-.04.41-.06.62-.03.21-.06.41-.09.62-.03.21-.06.42-.1.62l-.12.62c-.16.83-.39,1.64-.63,2.43-.27.79-.55,1.56-.89,2.27-.32.72-.69,1.4-1.07,2.03-.37.63-.78,1.19-1.16,1.71-.39.51-.78.95-1.14,1.34-.36.38-.69.69-.97.94-.12.11-.23.2-.33.28-.36-1.05-.72-2.03-1.07-2.92-.54-1.33-1.03-2.47-1.47-3.41-.44-.93-.81-1.66-1.07-2.15-.26-.49-.41-.75-.41-.75h0c-.09-.16-.3-.23-.49-.16-.2.07-.3.27-.22.45,0,0,.12.26.32.76.2.5.49,1.24.84,2.19.69,1.9,1.61,4.63,2.43,7.96.42,1.66.8,3.48,1.13,5.4.32,1.92.55,3.96.68,6.07.08,1.33.1,2.68.06,4.06-.29.36-.58.72-.87,1.09-1.38,1.76-2.71,3.56-3.94,5.42-2.46,3.72-4.47,7.71-5.84,11.87-.69,2.08-1.23,4.2-1.6,6.34-.38,2.14-.6,4.29-.71,6.45-.12,2.16-.07,4.31.05,6.46l.11,1.61.16,1.61.08.8.11.8.19,1.39s-.05.07-.11.11c-.05.05-.13.09-.23.14l-.15.07-.18.06c-.12.04-.27.07-.41.1-.15.02-.31.06-.46.07l-.22.02c-.08,0-.14.02-.25.02l-.56.02h0s-.02,0-.02,0h-.03s-.06,0-.06,0h-.13s-.26-.01-.26-.01c-.17,0-.33-.03-.5-.04-.16-.01-.31-.05-.47-.07-.14-.03-.29-.06-.41-.1l-.18-.06-.15-.07c-.09-.05-.17-.1-.23-.14-.06-.04-.09-.08-.11-.12l.19-1.39.11-.8.08-.8.16-1.61.11-1.61c.12-2.15.17-4.3.05-6.46-.11-2.16-.34-4.31-.71-6.45-.38-2.14-.92-4.26-1.61-6.34-1.37-4.16-3.38-8.15-5.84-11.87-1.23-1.86-2.56-3.66-3.94-5.42-.29-.37-.58-.73-.87-1.09-.04-1.37-.02-2.73.06-4.06.13-2.11.36-4.15.68-6.07.33-1.92.71-3.74,1.13-5.4.82-3.33,1.74-6.06,2.43-7.96.35-.95.64-1.69.84-2.19.2-.5.32-.76.32-.76.07-.16,0-.35-.19-.43-.19-.09-.43-.02-.52.15h0s-.15.26-.41.75c-.26.49-.64,1.21-1.07,2.15-.44.93-.94,2.08-1.47,3.41-.35.89-.71,1.87-1.07,2.92-.1-.08-.21-.17-.33-.28-.28-.25-.61-.56-.97-.94-.36-.38-.74-.83-1.14-1.34-.38-.51-.79-1.08-1.16-1.71-.38-.63-.75-1.3-1.07-2.03-.34-.72-.62-1.49-.89-2.27-.24-.79-.47-1.61-.63-2.43l-.12-.62c-.04-.21-.06-.42-.1-.62-.03-.21-.06-.42-.09-.62-.02-.21-.04-.42-.06-.62-.02-.21-.04-.41-.06-.62-.01-.21-.02-.41-.03-.61-.01-.2-.02-.41-.03-.61,0-.2,0-.4,0-.6-.02-.79.03-1.56.06-2.29.07-.73.11-1.42.21-2.05.04-.32.08-.62.12-.91.05-.29.1-.56.15-.82.05-.26.09-.5.13-.72.04-.22.09-.42.13-.61.16-.73.26-1.15.26-1.15h0c.04-.19-.09-.37-.29-.41-.21-.05-.42.07-.47.25,0,0-.12.42-.33,1.16-.05.19-.11.39-.17.61-.05.22-.11.47-.17.73-.06.26-.13.54-.19.83-.06.29-.11.6-.18.92-.14.64-.22,1.35-.33,2.09-.08.75-.17,1.54-.2,2.36,0,.21-.02.41-.03.62,0,.21,0,.42,0,.63,0,.21,0,.42,0,.64,0,.21.02.43.03.65,0,.22.02.43.03.65.02.22.04.44.06.65.02.22.04.44.06.66l.09.66c.12.88.31,1.75.52,2.6.24.85.49,1.68.81,2.47.3.79.66,1.54,1.03,2.24.37.7.78,1.34,1.17,1.92.4.58.8,1.09,1.18,1.54.38.44.74.82,1.04,1.12.31.3.57.53.76.68.18.15.33.26.31.25.07.05.14.09.22.12-.46,1.53-.9,3.17-1.27,4.92-.41,1.96-.75,4.05-.93,6.24-.04.48-.07.96-.1,1.44-.38-.45-.75-.89-1.13-1.34-2.88-3.39-5.75-6.75-8.11-10.35-1.17-1.8-2.2-3.67-3.02-5.6-.82-1.93-1.43-3.93-1.8-5.97-.38-2.04-.52-4.12-.44-6.19.07-2.08.35-4.16.77-6.22.42-2.06.98-4.1,1.65-6.12l.52-1.51c.17-.5.38-1,.56-1.5l.28-.75.31-.75.62-1.49c.07-.17-.02-.36-.21-.43-.2-.07-.43,0-.51.18h0c-.94,1.94-1.85,3.93-2.61,5.96-.76,2.03-1.43,4.08-1.95,6.18-.52,2.09-.86,4.23-1,6.39-.14,2.15-.06,4.33.27,6.48.33,2.15.9,4.28,1.71,6.33.83,2.05,1.87,4.02,3.04,5.91,1.19,1.89,2.5,3.7,3.88,5.46,1.38,1.76,2.8,3.47,4.22,5.18.98,1.19,1.96,2.37,2.91,3.56.01.63.04,1.26.09,1.89.16,2.3.53,4.65,1.16,6.95.63,2.3,1.54,4.54,2.71,6.65l.22.4.11.2.05.1.04.07.03.05c.15.25.31.49.46.74.29.48.66.99,1.01,1.49.17.26.36.48.53.71.18.23.36.47.53.69.18.22.35.45.53.67.17.22.33.44.5.65.64.87,1.22,1.7,1.62,2.59.23.43.39.89.57,1.34l.13.33.1.34c.07.23.14.46.2.68.15.45.23.91.34,1.37.05.23.1.45.15.67.05.22.08.45.11.67.07.45.14.89.21,1.32.06.43.1.87.15,1.29.05.42.1.83.14,1.23.03.41.06.8.09,1.19.05.77.13,1.5.15,2.2.03.69.06,1.34.09,1.94.03.6.05,1.15.06,1.65.02.7.04,1.29.05,1.77l-.17,1.21v.05s-.01.07-.01.11v.08s0,.05,0,.05v.08c.02.05.03.09.04.14.02.09.05.17.07.25.06.16.13.31.22.44.17.27.39.51.62.7.23.19.48.34.73.47.12.06.25.12.37.17l.37.13c.25.08.49.13.73.19.23.04.47.09.7.11.23.02.46.05.68.06l.71.02.59-.02c.09,0,.23-.01.34-.02l.36-.03c.24-.02.47-.07.71-.11.24-.05.48-.11.73-.19l.37-.13c.12-.05.25-.11.37-.17.25-.12.5-.28.73-.47.23-.19.45-.42.62-.7.09-.14.16-.28.22-.44.03-.08.06-.16.07-.25.01-.05.02-.09.03-.14v-.08s.01-.05.01-.05v-.08s0-.07,0-.11v-.04s-.17-1.22-.17-1.22c.01-.48.03-1.07.05-1.77,0-.5.03-1.05.06-1.65.03-.6.06-1.25.09-1.94.02-.69.1-1.42.15-2.2.03-.39.06-.78.09-1.19.05-.4.09-.81.14-1.23.05-.42.09-.85.15-1.29.07-.43.14-.87.21-1.32.04-.22.06-.45.11-.67.05-.22.1-.45.15-.67.11-.45.19-.92.34-1.37.07-.23.14-.45.2-.68l.1-.34.13-.33c.17-.45.33-.91.57-1.34.41-.89.98-1.72,1.62-2.59.17-.22.33-.43.5-.65.18-.22.35-.45.53-.67.18-.22.35-.46.53-.69.18-.24.36-.46.53-.71.35-.5.72-1.01,1.01-1.49.15-.24.31-.49.46-.74l.03-.05.04-.07.05-.1.11-.2.22-.4c1.16-2.1,2.08-4.35,2.71-6.65.63-2.3.99-4.64,1.16-6.95.05-.63.07-1.26.09-1.88.95-1.19,1.93-2.38,2.91-3.57,1.41-1.71,2.84-3.42,4.22-5.18,1.38-1.76,2.69-3.57,3.88-5.46,1.18-1.89,2.22-3.87,3.04-5.91.81-2.05,1.38-4.18,1.71-6.33.33-2.15.41-4.33.26-6.48M144.58,99.69c-.17-.23-.35-.46-.53-.69-.17-.22-.35-.45-.53-.67-.18-.23-.34-.45-.51-.67-.16-.22-.35-.45-.5-.67-.31-.44-.63-.87-.94-1.37-.16-.24-.31-.49-.47-.73-.13-.23-.26-.47-.39-.71-1.1-1.94-1.95-4.04-2.58-6.19-.47-1.6-.79-3.24-1.01-4.87.84,1.13,1.64,2.28,2.4,3.45,2.35,3.61,4.24,7.44,5.51,11.42.43,1.35.8,2.71,1.1,4.09-.44-.83-1-1.63-1.56-2.4M165.18,87.99c-.63,2.15-1.48,4.24-2.58,6.19-.13.24-.26.47-.39.71-.16.25-.31.49-.47.73-.31.51-.63.93-.94,1.37-.15.22-.34.45-.5.67-.17.22-.33.44-.51.67-.18.22-.35.45-.53.67-.18.23-.35.46-.53.69-.56.76-1.12,1.56-1.56,2.39.3-1.37.66-2.74,1.1-4.08,1.28-3.98,3.16-7.81,5.51-11.42.76-1.17,1.56-2.32,2.4-3.45-.22,1.64-.54,3.27-1.01,4.87"/>
  <path class="cls-2" d="M14.91,124.53c0-1.68-.02-1.9-.03-2.25-.02-.45-.15-.59-.41-.64-.16-.03-.34-.03-.43-.04-.13-.01-.2-.05-.2-.12s.08-.1.24-.1c.47,0,1.51.03,1.66.03.21,0,1.25-.03,1.75-.03,1.02,0,1.74.1,2.22.37.52.28.99.84.99,1.66,0,.91-.52,1.61-1.46,2.19.66.96,1.46,2.12,2.12,2.88.58.64.84.83,1.14.87.12.02.18.02.27.03.12,0,.19.04.19.11,0,.1-.11.11-.22.11h-.98c-1.12,0-1.6-.11-1.98-.36-.35-.21-.7-.67-1.12-1.36-.5-.83-.75-1.27-.95-1.57-.02-.03-.08-.07-.13-.07h-.72c-.05,0-.09.02-.09.09v.55c0,.86,0,1.37.05,1.83.02.28.1.52.42.6.15.04.27.04.49.07.17.01.2.05.2.12s-.08.1-.23.1c-.73,0-1.91-.03-1.99-.03-.13,0-1.18.03-1.55.03-.16,0-.22-.03-.22-.11s.08-.11.2-.11c.11-.01.25-.02.37-.04.22-.05.3-.25.34-.62.04-.46.05-1.22.05-2.27v-1.91ZM16.78,125.26c0,.09.03.13.1.16.21.11.53.14.84.14s.51-.04.69-.17c.23-.17.42-.64.42-1.37,0-1.54-.98-1.95-1.54-1.95-.17,0-.36.01-.43.04-.04.02-.07.03-.07.12v3.02Z"/>
  <path class="cls-2" d="M24.6,127.8c-.07,0-.1.07-.11.1l-.23.55c-.1.24-.16.46-.16.58,0,.32.41.33.66.35.14.01.17.05.17.1,0,.08-.05.12-.18.12-.48,0-.8-.03-1.36-.03-.11,0-.74.03-1.21.03-.15,0-.2-.04-.2-.11s.05-.11.17-.11c.47-.05.72-.19,1-.83l2.61-5.57c.23-.5.34-.64.46-.64.11,0,.2.14.38.51.24.53,1.92,4.07,2.58,5.5.34.7.51.95.88,1,.09.01.16.02.22.02.12,0,.18.05.18.11,0,.08-.09.11-.2.11-1.1-.01-2.23-.02-2.8-.03-.13,0-.2-.04-.2-.1,0-.07.07-.09.13-.11.09-.03.18-.04.13-.16l-.6-1.34s-.05-.05-.09-.05h-2.25ZM26.53,126.94c.07,0,.07-.02.05-.04l-.86-1.95c-.03-.05-.03-.03-.05.01l-.8,1.94s.01.04.03.04h1.63Z"/>
  <path class="cls-2" d="M29.6,123.42c-.16-.41-.27-.62-.52-.67-.11-.03-.2-.03-.28-.05-.12-.02-.15-.07-.15-.12s.07-.1.21-.1c.61,0,1.3.03,1.47.03.28,0,1.02-.03,1.55-.03.13,0,.21.04.21.11s-.07.11-.16.11c-.1.01-.12.01-.24.03-.13.02-.21.09-.21.21s.1.4.25.84c.09.27.78,2.29,1.13,3.16l1.69-4.11c.1-.24.17-.33.27-.33.14,0,.2.16.34.45l1.94,4.02c.3-.84.74-2.21,1.01-3.11.12-.42.21-.7.21-.83,0-.18-.07-.29-.6-.34-.11,0-.18-.04-.18-.1,0-.04.02-.12.2-.12.65,0,1.17.03,1.26.03.07,0,.82-.02,1.16-.02.12,0,.21.02.21.1,0,.05-.03.1-.16.11-.1.01-.15.01-.3.04-.29.05-.46.27-.72.99-.41,1.1-1.32,3.5-2.08,5.38-.13.32-.24.62-.41.62-.14,0-.23-.15-.38-.48l-1.94-3.86c-.45,1.05-1.22,2.74-1.7,3.78-.16.34-.3.55-.46.55-.13,0-.21-.15-.4-.64l-2.2-5.66Z"/>
  <path class="cls-2" d="M41,127.8c-.07,0-.1.07-.11.1l-.23.55c-.1.24-.16.46-.16.58,0,.32.41.33.66.35.14.01.17.05.17.1,0,.08-.05.12-.18.12-.48,0-.8-.03-1.36-.03-.11,0-.74.03-1.21.03-.15,0-.2-.04-.2-.11s.05-.11.17-.11c.47-.05.72-.19,1-.83l2.61-5.57c.23-.5.34-.64.46-.64.11,0,.2.14.38.51.24.53,1.92,4.07,2.58,5.5.34.7.51.95.88,1,.09.01.16.02.22.02.12,0,.19.05.19.11,0,.08-.09.11-.2.11-1.1-.01-2.23-.02-2.8-.03-.13,0-.2-.04-.2-.1,0-.07.07-.09.13-.11.09-.03.19-.04.13-.16l-.6-1.34s-.05-.05-.09-.05h-2.25ZM42.93,126.94c.07,0,.07-.02.05-.04l-.86-1.95c-.03-.05-.03-.03-.05.01l-.8,1.94s.01.04.03.04h1.63Z"/>
  <path class="cls-2" d="M47.54,122.82c.01-.32.04-.48.19-.48.05,0,.1,0,.37.21.47.37,1.97,1.65,3.18,2.72,1.08.95,1.59,1.38,1.87,1.63l-.05-3.33c-.02-.52-.09-.77-.51-.84-.12-.02-.24-.03-.39-.04-.13-.01-.17-.07-.17-.11,0-.08.09-.11.19-.11.36,0,1.03.03,1.47.03.24,0,.75-.03,1.14-.03.16,0,.21.04.21.1,0,.04-.02.11-.16.12-.12.01-.15.01-.22.02-.33.04-.43.18-.47.78-.09,1.77-.12,3.7-.13,5.59,0,.54-.07.64-.21.64-.16,0-.5-.24-1.27-.87-.67-.57-1.45-1.23-1.91-1.65-.52-.47-1.36-1.19-2.2-1.95l.1,3.06c.02.65.04.92.34,1,.19.04.29.05.49.07.16.02.21.05.21.11,0,.08-.07.11-.24.11-.27,0-.57-.02-1.25-.03-.27,0-1.07.03-1.39.03-.16,0-.22-.03-.22-.11,0-.05.04-.1.17-.11.1-.01.15-.01.27-.02.4-.05.49-.27.52-1.14.05-1.95.05-4.13.1-5.39"/>
  <path class="cls-2" d="M68.15,128.19c.09.71.2.98.55,1.09.22.07.48.09.62.1.14,0,.21.03.21.11,0,.09-.09.11-.26.11-.9,0-1.78,0-3.02-.07-.21-.01-.25-.08-.25-.13,0-.04.04-.09.12-.11.17-.07.19-.13.14-.62l-.39-3.89-2.24,4.2c-.29.55-.36.62-.45.62-.12,0-.18-.11-.49-.59-.38-.61-1.04-1.85-1.46-2.54-.18-.32-.66-1.21-.87-1.58l-.32,3.07c-.04.47-.04.71-.04.87,0,.32.11.45.38.5.16.03.26.04.4.05.16,0,.2.03.2.1,0,.09-.04.12-.22.12-.48,0-1.08-.03-1.4-.03s-.85.03-1.25.03c-.11,0-.24,0-.24-.11,0-.07.07-.11.22-.11.09-.01.21-.01.33-.03.32-.07.42-.32.53-1.03l.99-6.69c.04-.33.12-.42.23-.42.12,0,.2.11.42.45l3.11,5.21,2.98-5.26c.17-.28.26-.39.37-.39s.17.15.21.42l.89,6.57Z"/>
  <path class="cls-2" d="M70.47,125.2c0-1.47,0-1.72-.03-2.01-.02-.25-.09-.42-.33-.46-.07-.02-.17-.03-.3-.04-.13-.01-.18-.04-.18-.11,0-.05.03-.11.22-.11.38,0,1.42.03,1.46.03.05,0,1.28-.03,1.65-.03.17,0,.2.04.2.11,0,.08-.08.1-.2.11-.1.01-.11.01-.22.03-.26.05-.35.15-.39.48-.03.3-.03.53-.03,2v1.65c0,.72.01,1.61.05,2.01.02.24.09.4.38.47.13.03.29.03.4.04.16,0,.21.07.21.12,0,.04-.04.1-.21.1-.67,0-1.79-.03-1.85-.03-.02,0-1.15.03-1.46.03-.16,0-.23-.03-.23-.11,0-.05.05-.11.16-.11.09-.01.18-.01.32-.03.21-.04.29-.24.32-.51.05-.39.07-1.04.07-1.98v-1.65Z"/>
  <path class="cls-2" d="M74.33,129.45c-.17-.07-.22-.21-.22-.38,0-.82.02-1.16.05-1.46.02-.17.08-.21.13-.21s.09.04.1.14c.01.09.01.16.03.25.13.82.92,1.28,1.72,1.28.88,0,1.15-.41,1.15-.79s-.13-.68-.96-1.24l-.6-.4c-1.16-.8-1.48-1.44-1.48-2.3.01-1.09.96-2,2.53-2,.45,0,.74.02,1.18.11.15.03.33.06.49.11.1.02.12.05.12.14-.01.35-.03.51-.03,1.38,0,.16-.03.23-.11.23-.05,0-.11-.02-.13-.18-.01-.11-.04-.32-.15-.52-.2-.35-.71-.67-1.36-.67-.82,0-1.08.46-1.08.86s.2.7.74,1.03l.55.35c1.4.88,1.79,1.41,1.79,2.36,0,.75-.34,1.4-1.09,1.82-.58.33-1.25.38-1.76.38-.76,0-1.26-.11-1.64-.27"/>
  <path class="cls-2" d="M85.18,125.33s.07,0,.07-.05v-.2c0-1.47,0-1.59-.02-1.89-.02-.24-.1-.41-.42-.47-.08-.01-.22-.02-.34-.03-.13,0-.19-.08-.19-.11,0-.07.04-.11.2-.11.58,0,1.52.03,1.58.03.04,0,1.26-.03,1.69-.03.17,0,.2.04.2.11,0,.05-.03.11-.15.11-.18.02-.2.02-.3.04-.25.03-.33.17-.36.48-.03.3-.03.52-.03,1.99v1.65c0,.91.01,1.59.05,1.97.03.33.12.48.41.52.13.02.32.02.4.03.13.01.19.05.19.12,0,.08-.1.1-.22.1-.66,0-1.74-.03-1.89-.03s-.92.03-1.42.03c-.19,0-.21-.05-.21-.11,0-.04.05-.11.17-.11.12-.01.2-.01.28-.03.24-.04.3-.22.34-.53.04-.39.05-.93.05-1.85v-.72s-.03-.07-.07-.07h-2.87s-.07.01-.07.07v1c0,.9.01,1.2.05,1.59.03.28.15.47.45.5.14.03.29.03.37.04.13.01.19.05.19.12,0,.04-.03.1-.19.1-.54,0-1.83-.03-1.88-.03-.04,0-1.18.03-1.48.03-.11,0-.21-.03-.21-.1s.03-.11.16-.12c.11-.01.16-.01.28-.03.25-.03.34-.27.36-.57.04-.4.05-1.01.05-1.92v-1.62c0-1.47-.01-1.66-.03-1.97-.02-.32-.1-.49-.47-.54-.14-.02-.17-.02-.29-.03-.15-.01-.16-.09-.16-.12,0-.07.1-.1.21-.1.58,0,1.45.03,1.66.03.4,0,1.15-.03,1.58-.03.18,0,.21.05.21.12,0,.04-.04.09-.17.1-.13.01-.22.02-.3.04-.28.05-.33.28-.35.53-.03.3-.03.7-.03,1.82v.2c0,.05.03.05.07.05h2.87Z"/>
  <path class="cls-2" d="M90.39,127.8c-.07,0-.1.07-.11.1l-.23.55c-.1.24-.16.46-.16.58,0,.32.41.33.66.35.14.01.17.05.17.1,0,.08-.05.12-.18.12-.48,0-.8-.03-1.36-.03-.11,0-.74.03-1.21.03-.15,0-.2-.04-.2-.11s.05-.11.17-.11c.47-.05.72-.19,1-.83l2.61-5.57c.23-.5.34-.64.46-.64.11,0,.2.14.38.51.24.53,1.92,4.07,2.58,5.5.34.7.51.95.88,1,.09.01.16.02.22.02.12,0,.18.05.18.11,0,.08-.09.11-.2.11-1.1-.01-2.23-.02-2.8-.03-.13,0-.2-.04-.2-.1,0-.07.07-.09.13-.11.09-.03.18-.04.13-.16l-.6-1.34s-.05-.05-.09-.05h-2.25ZM92.32,126.94c.07,0,.07-.02.05-.04l-.86-1.95c-.03-.05-.03-.03-.05.01l-.8,1.94s.01.04.03.04h1.63Z"/>
  <path class="cls-2" d="M97,125.2c0-1.47-.01-1.61-.03-1.91-.02-.4-.2-.53-.4-.55-.17-.03-.26-.03-.34-.04-.12,0-.16-.05-.16-.11s.03-.11.2-.11c.39,0,1.39.03,1.51.03.16,0,1.18-.03,1.67-.03.98,0,1.65.1,2.04.32.52.26.92.73.92,1.47s-.5,1.34-1.29,1.85c.51.78,1.21,1.82,1.8,2.48.5.58.73.72,1.03.76.1.02.18.02.26.03.1.01.15.07.15.12,0,.09-.11.1-.2.1h-.85c-1.13,0-1.6-.11-1.96-.34-.28-.18-.59-.57-.94-1.13-.46-.76-.62-1.08-.8-1.36-.01-.03-.05-.05-.11-.05h-.65s-.08.01-.08.07v.58c0,.71.02,1.16.04,1.45.02.24.08.44.37.51.13.04.33.05.45.07.17.01.17.07.17.12s-.04.1-.19.1c-.66,0-1.82-.03-1.87-.03-.11,0-1.13.03-1.45.03-.16,0-.2-.05-.2-.12,0-.05.07-.1.17-.1.09-.01.23-.01.34-.03.2-.04.28-.21.3-.54.04-.39.05-1.02.05-1.95v-1.65ZM98.79,125.79c0,.06.04.11.09.14.18.1.52.13.8.13.22,0,.45-.04.6-.15.17-.13.34-.51.34-1.12,0-1.34-.91-1.65-1.4-1.65-.14,0-.3,0-.36.03-.04.02-.07.03-.07.11v2.51Z"/>
  <path class="cls-2" d="M104.69,125.2c0-1.47,0-1.72-.03-2.01-.02-.25-.09-.42-.33-.46-.07-.02-.17-.03-.3-.04-.13-.01-.18-.04-.18-.11,0-.05.03-.11.22-.11.38,0,1.42.03,1.46.03.05,0,1.28-.03,1.65-.03.17,0,.2.04.2.11,0,.08-.08.1-.2.11-.1.01-.11.01-.22.03-.26.05-.35.15-.39.48-.03.3-.03.53-.03,2v1.65c0,.72.01,1.61.05,2.01.02.24.09.4.38.47.13.03.29.03.4.04.16,0,.21.07.21.12,0,.04-.04.1-.21.1-.67,0-1.79-.03-1.85-.03-.02,0-1.15.03-1.46.03-.16,0-.23-.03-.23-.11,0-.05.05-.11.16-.11.09-.01.18-.01.32-.03.21-.04.29-.24.32-.51.05-.39.07-1.04.07-1.98v-1.65Z"/>
  <path class="cls-2" d="M16.47,139.66c-.05,0-.08.02-.1.08l-.34.89c-.11.28-.17.57-.17.7,0,.21.1.3.33.33.12.02.29.03.38.04.16,0,.2.05.2.11,0,.09-.09.11-.23.11-.49,0-.86-.03-1.44-.03-.12,0-.84.03-1.38.03-.15,0-.22-.04-.22-.11,0-.09.08-.11.21-.11.13-.01.24-.02.35-.04.38-.08.6-.41.83-.93l2.9-6.57c.21-.47.33-.63.45-.63.11,0,.21.15.39.54.28.61,2.11,4.77,2.85,6.43.37.85.61,1.11.99,1.16.12.03.25.03.35.04.14,0,.21.04.21.11,0,.08-.08.11-.28.11-1.07,0-2.3-.02-3-.03-.17,0-.24-.03-.24-.1s.05-.11.15-.13c.12-.02.16-.1.13-.2l-.73-1.73s-.05-.07-.09-.07h-2.49ZM18.64,138.79c.07,0,.07-.03.05-.05l-.96-2.33c-.03-.08-.05-.05-.08,0l-.92,2.33s.01.05.04.05h1.86Z"/>
  <path class="cls-2" d="M25.4,139.18c0,.89-.03,1.58.12,1.78.14.2.32.23,1.13.23.54,0,.8-.01,1.08-.11.27-.11.48-.34.6-.86.02-.11.05-.2.14-.2.07,0,.09.07.09.2,0,.24-.14,1.19-.24,1.46-.09.25-.15.25-.51.25-1.47,0-2.37-.05-3.4-.05-.46,0-.95.03-1.5.03-.15,0-.23-.03-.23-.12,0-.04.05-.1.19-.1.1-.01.12-.01.23-.02.39-.07.43-.22.47-1.09,0-.37.01-.89.01-1.41v-1.65c0-1.57-.01-1.67-.03-1.98-.02-.26-.11-.41-.34-.48-.09-.02-.22-.04-.36-.05-.11-.01-.2-.03-.2-.11s.08-.11.27-.11c.59,0,1.07.03,1.48.03.05,0,1.32-.03,1.66-.03.17,0,.22.04.22.1,0,.09-.09.12-.17.12-.11.01-.15.01-.29.04-.27.04-.35.22-.37.55-.02.3-.03.45-.03,2.03v1.54Z"/>
  <path class="cls-2" d="M32.08,137.9c.39,0,.46.04.46.12,0,.1-.13.17-.62.3-1.02.26-1.76.46-2.34.68-.32.13-.48.26-.6.26-.11,0-.09-.1-.07-.22l.16-.95c.03-.2.07-.21.26-.21h2.74Z"/>
  <path class="cls-2" d="M41.67,140.87c0,.64-.02.71-.22.78-.58.23-1.69.41-2.66.41-3.06,0-5.18-1.37-5.18-4.26,0-1.82.95-2.97,1.96-3.54,1.12-.66,2.29-.72,3.12-.72.66,0,1.29.08,1.76.15.37.04.73.12,1.04.13.1,0,.12.04.11.14-.02.11-.12.55-.12,2,0,.17-.04.23-.12.23s-.12-.09-.13-.17c-.02-.16-.02-.28-.13-.54-.21-.74-1.17-1.26-2.69-1.26-.81,0-1.46.23-1.95.78-.42.48-.69,1.28-.69,2.35,0,1.95.93,4.02,3.22,4.02.15,0,.45-.01.61-.13.09-.07.13-.16.13-.29v-.66c0-.45,0-.87-.01-1.27,0-.62-.14-.85-.51-.9-.14-.02-.28-.03-.47-.05-.09,0-.17-.04-.17-.11s.05-.11.23-.11c.71,0,1.54.03,1.84.03.39,0,1.1-.03,1.69-.03.16,0,.25.02.25.11,0,.08-.07.1-.17.11-.04,0-.19.02-.29.03-.26.05-.38.17-.41.55-.02.35-.03.91-.03,1.45v.78Z"/>
  <path class="cls-2" d="M48.62,137.65s.07,0,.07-.05v-.2c0-1.47,0-1.59-.02-1.89-.02-.24-.1-.41-.42-.47-.08-.01-.22-.02-.34-.03-.13,0-.19-.08-.19-.11,0-.07.04-.11.2-.11.58,0,1.52.03,1.58.03.04,0,1.26-.03,1.69-.03.17,0,.2.04.2.11,0,.05-.03.11-.15.11-.18.02-.2.02-.3.04-.25.03-.33.17-.36.48-.03.3-.03.52-.03,1.99v1.65c0,.91.01,1.59.05,1.97.03.33.12.48.41.52.13.02.32.02.4.03.13.01.19.05.19.12,0,.08-.1.1-.22.1-.66,0-1.74-.03-1.89-.03s-.92.03-1.42.03c-.19,0-.21-.05-.21-.11,0-.04.05-.11.17-.11.12-.01.2-.01.28-.03.24-.04.3-.22.34-.53.04-.39.05-.93.05-1.85v-.72s-.03-.07-.07-.07h-2.87s-.07.01-.07.07v1c0,.9.01,1.2.05,1.59.03.28.15.47.45.5.14.03.29.03.37.04.13.01.19.05.19.12,0,.04-.03.1-.19.1-.54,0-1.83-.03-1.88-.03-.04,0-1.18.03-1.48.03-.11,0-.21-.03-.21-.1s.03-.11.16-.12c.11-.01.16-.01.28-.03.25-.03.34-.27.36-.57.04-.4.05-1.01.05-1.92v-1.62c0-1.47-.01-1.66-.03-1.97-.02-.32-.1-.49-.47-.54-.14-.02-.17-.02-.29-.03-.15-.01-.16-.09-.16-.12,0-.07.1-.1.21-.1.58,0,1.45.03,1.66.03.4,0,1.15-.03,1.58-.03.18,0,.21.05.21.12,0,.04-.04.09-.17.1-.13.01-.22.02-.3.04-.28.05-.33.28-.35.53-.03.3-.03.7-.03,1.82v.2c0,.05.03.05.07.05h2.87Z"/>
  <path class="cls-2" d="M53.83,140.11c-.07,0-.1.07-.11.1l-.23.55c-.1.24-.16.46-.16.58,0,.32.41.33.66.35.14.01.17.05.17.1,0,.08-.05.12-.18.12-.48,0-.8-.03-1.36-.03-.11,0-.74.03-1.21.03-.15,0-.2-.04-.2-.11s.05-.11.17-.11c.47-.05.72-.19,1-.83l2.61-5.57c.23-.5.34-.64.46-.64.11,0,.2.14.38.51.24.53,1.92,4.07,2.58,5.5.34.7.51.95.88,1,.09.01.16.02.22.02.12,0,.18.05.18.11,0,.08-.09.11-.2.11-1.1-.01-2.23-.02-2.8-.03-.13,0-.2-.04-.2-.1,0-.07.07-.09.13-.11.09-.03.18-.04.13-.16l-.6-1.34s-.05-.05-.09-.05h-2.25ZM55.76,139.26c.07,0,.07-.02.05-.04l-.86-1.95c-.03-.05-.03-.03-.05.01l-.8,1.94s.01.04.03.04h1.63Z"/>
  <path class="cls-2" d="M63.94,141.16c1.17,0,1.58-.21,1.76-.73.04-.1.06-.2.09-.28.03-.1.08-.14.14-.14.05,0,.09.04.09.16,0,.25-.17,1.16-.29,1.5-.03.12-.07.24-.26.24-1.63,0-3.24-.04-5.58-.04-.1,0-.17-.02-.17-.1,0-.07.04-.15.16-.34,1.16-1.77,2.54-3.93,3.75-5.88h-1.55c-.79,0-1.12.04-1.37.17-.25.13-.4.37-.53.8-.03.11-.09.17-.16.17-.05,0-.1-.04-.1-.16,0-.17.17-1.26.22-1.64.02-.13.05-.17.12-.17s.17.05.4.07c.92.03,1.38.03,1.91.03h3.28c.1,0,.14.02.14.09,0,.08-.02.14-.12.3-1.24,2.03-2.57,4.14-3.7,5.95h1.77Z"/>
  <path class="cls-2" d="M68.64,140.11c-.07,0-.1.07-.11.1l-.23.55c-.1.24-.16.46-.16.58,0,.32.41.33.66.35.14.01.17.05.17.1,0,.08-.05.12-.18.12-.48,0-.8-.03-1.36-.03-.11,0-.74.03-1.21.03-.15,0-.2-.04-.2-.11s.05-.11.17-.11c.47-.05.72-.19,1-.83l2.61-5.57c.23-.5.34-.64.46-.64.11,0,.2.14.38.51.24.53,1.92,4.07,2.58,5.5.34.7.51.95.88,1,.09.01.16.02.22.02.12,0,.19.05.19.11,0,.08-.09.11-.2.11-1.1-.01-2.23-.02-2.8-.03-.13,0-.2-.04-.2-.1,0-.07.07-.09.13-.11.09-.03.19-.04.13-.16l-.6-1.34s-.05-.05-.09-.05h-2.25ZM70.58,139.26c.07,0,.07-.02.05-.04l-.86-1.95c-.03-.05-.03-.03-.05.01l-.8,1.94s.01.04.03.04h1.63Z"/>
  <path class="cls-2" d="M77.09,139.18c0,.89-.03,1.58.12,1.78.14.2.32.23,1.13.23.54,0,.8-.01,1.08-.11.27-.11.48-.34.6-.86.02-.11.05-.2.14-.2.07,0,.09.07.09.2,0,.24-.14,1.19-.24,1.46-.09.25-.15.25-.51.25-1.47,0-2.37-.05-3.4-.05-.46,0-.95.03-1.5.03-.15,0-.23-.03-.23-.12,0-.04.05-.1.19-.1.1-.01.12-.01.23-.02.39-.07.43-.22.47-1.09,0-.37.01-.89.01-1.41v-1.65c0-1.57-.01-1.67-.03-1.98-.02-.26-.11-.41-.34-.48-.09-.02-.22-.04-.36-.05-.11-.01-.2-.03-.2-.11s.08-.11.27-.11c.59,0,1.07.03,1.48.03.05,0,1.32-.03,1.66-.03.17,0,.22.04.22.1,0,.09-.09.12-.17.12-.11.01-.15.01-.29.04-.27.04-.35.22-.37.55-.02.3-.03.45-.03,2.03v1.54Z"/>
  <path class="cls-2" d="M81.54,137.52c0-1.47,0-1.72-.03-2.01-.02-.25-.09-.42-.33-.46-.07-.02-.17-.03-.3-.04-.13-.01-.18-.04-.18-.11,0-.05.03-.11.22-.11.38,0,1.42.03,1.46.03.05,0,1.28-.03,1.65-.03.17,0,.2.04.2.11,0,.08-.08.1-.2.11-.1.01-.11.01-.22.03-.26.05-.35.15-.39.48-.03.3-.03.53-.03,2v1.65c0,.72.01,1.61.05,2.01.02.24.09.4.38.47.13.03.29.03.4.04.16,0,.21.07.21.12,0,.04-.04.1-.21.1-.67,0-1.79-.03-1.85-.03-.02,0-1.15.03-1.46.03-.16,0-.23-.03-.23-.11,0-.05.05-.11.16-.11.09-.01.19-.01.32-.03.21-.04.29-.24.32-.51.05-.39.07-1.04.07-1.98v-1.65Z"/>
  <path class="cls-2" d="M14.47,71.62c-.22.45-.46.88-.55,1.36-.03.19,0,.37.1.53.12.22.31.23.49.04.07-.08.14-.16.23-.26.04.07.08.11.07.13-.08.33-.19.65-.48.89-.27.23-.59.18-.74-.13-.06-.12-.08-.26-.09-.39-.05-.56.14-1.07.39-1.56.14-.27.29-.53.44-.79-.12-.25-.23-.49-.36-.72-.2-.37-.27-.77-.34-1.17-.16-.83-.05-1.65.15-2.47.19-.78.53-1.5.95-2.2.21-.35.44-.68.67-1.01.06-.09.12-.21.28-.22.08.12.02.22-.03.32-.29.61-.6,1.21-.86,1.83-.3.71-.54,1.44-.51,2.22.02.54.1,1.08.34,1.58.32.7.87,1.2,1.61,1.51.56.23,1.14.34,1.76.37,1.06.04,2.07-.15,3.07-.46,1.63-.52,3.14-1.25,4.55-2.16.34-.22.67-.46,1-.69.08-.06.17-.11.23-.15-.11-.3-.33-.4-.55-.48-.44-.16-.89-.25-1.36-.3-.42-.05-.84-.12-1.26-.2-.55-.11-1.09-.24-1.64-.37-.08-.02-.16-.05-.27-.08.18-.49.41-.93.69-1.39.28-.08.57-.16.86-.24.38-.1.77-.19,1.14-.3.46-.14.89-.33,1.28-.62,0-.27.01-.54,0-.81-.02-.39-.06-.79-.1-1.18-.05-.49-.1-.98-.15-1.47-.06-.61-.12-1.21-.17-1.82-.05-.49-.09-.98-.14-1.47-.05-.49-.11-.98-.17-1.47,0-.04-.01-.08-.01-.12.01-.21-.06-.4-.21-.57.16-.45.39-.87.62-1.33.06.07.11.11.13.17.23.49.47.97.68,1.46.22.52.4,1.06.59,1.58.03.09.06.19.07.28,0,.05-.02.1-.04.17-.34-.2-.52-.5-.82-.78.03.35.06.64.09.93.05.38.12.76.16,1.15.07.67.14,1.34.18,2.02.03.63.06,1.26-.03,1.88-.07.47-.11.94-.2,1.4-.08.4-.2.79-.44,1.13-.11.15-.24.29-.38.45.19.07.38.07.57.1.36.07.72.12,1.03.32.2.14.36.3.42.52.08.27.13.54.09.83-.04.35-.1.69-.2,1.02-.1.31-.27.58-.53.8-.36.3-.71.59-1.07.89.01.06.05.12.04.19-.02.19-.05.38-.09.57-.09.44,0,.86.18,1.27.23.53.67.79,1.27.84.58.04,1.08-.15,1.56-.42.63-.36,1.15-.83,1.66-1.31.6-.55,1.2-1.11,1.79-1.66.85-.79,1.83-1.41,2.86-1.96.54-.29,1.09-.57,1.64-.85.04-.02.09-.05.13-.08-.11-.18-.53-.52-.82-.65-.17-.08-.35-.14-.53-.18-.35-.07-.68,0-.98.2-.16.11-.16.11-.33.12-.02-.2.22-.98.42-1.43,2.31-1.29,4.99-1.18,7.02-.14-.15.42-.29.84-.45,1.28-.68.35-1.37.71-2.08,1.08.42.36.82.71,1.32.95.61.29,1.24.31,1.89.15.44-.11.88-.25,1.26-.56-.02-.3-.04-.62-.07-.93-.04-.42-.09-.84-.14-1.27-.05-.4-.1-.8-.15-1.21-.03-.26-.07-.52-.1-.77-.06-.42-.12-.84-.17-1.26-.05-.42-.1-.84-.15-1.27-.05-.4-.1-.8-.15-1.21-.03-.27-.07-.54-.1-.8-.06-.44-.12-.88-.17-1.32-.05-.43-.1-.86-.14-1.3-.03-.22-.04-.44-.09-.66-.03-.14-.1-.27-.16-.44.18-.46.4-.94.66-1.47.24.5.47.95.66,1.41.28.64.53,1.3.79,1.95.07.18.15.36.07.58-.22-.05-.32-.22-.44-.35-.13-.14-.25-.28-.42-.48,0,.17,0,.27.02.38.06.44.12.88.17,1.32.05.35.09.71.14,1.06.03.25.07.5.1.75.05.37.1.75.15,1.12.03.25.08.5.1.75.07.85.15,1.69.21,2.54.03.44.05.89.03,1.33-.03.78-.14,1.55-.46,2.29-.29.68-.78,1.12-1.56,1.3-.72.17-1.42.2-2.11-.1-.37-.16-.7-.38-.99-.65-.42-.39-.83-.78-1.28-1.2-.2.1-.42.2-.63.31-.78.4-1.57.8-2.35,1.22-.81.43-1.5,1.01-2.15,1.63-.51.49-1.03.96-1.55,1.44-.41.38-.82.77-1.24,1.15-.36.34-.77.62-1.24.83-.85.39-1.66.24-2.31-.38-.53-.51-.84-1.12-.96-1.82-.08-.5-.11-1,0-1.5,0-.04,0-.08,0-.15-.2.13-.39.24-.57.35-1.28.76-2.61,1.45-4.06,1.93-1.07.35-2.17.47-3.3.38-.86-.07-1.64-.36-2.31-.88-.21-.16-.38-.36-.59-.56M37.13,65.34c.34.3.63.56.92.82.47-.23.91-.44,1.39-.68-.77-.25-1.5-.24-2.31-.14"/>
  <path class="cls-2" d="M89.43,69.51c-.28-.65-.57-1.3-.86-1.96-.03-.08-.05-.16-.09-.26.29.03.49.24.77.23,0-.08.02-.15,0-.2-.04-.09-.09-.17-.15-.25-.35-.44-.71-.89-1.06-1.33-.13-.16-.27-.31-.43-.5-.2.56-.38,1.08-.57,1.62.22.17.28.41.35.64.1.34.19.67.31,1,.3.77.63,1.53.94,2.3.14.35.28.7.43,1.07-.67.41-1.32.81-1.98,1.2-1.48.86-3.02,1.6-4.65,2.2-.93.34-1.89.54-2.88.61-.57.04-1.14.01-1.71-.1-1.13-.22-2.1-.67-2.88-1.47-.74-.77-1.11-1.67-1.12-2.69,0-.22.03-.44.05-.66.32,0,.54-.17.75-.36.23-.21.38-.48.52-.75.12-.24.25-.48.39-.73.05.11.09.2.13.29.2.48.57.81,1.11.94.22.06.44.13.67.06.28-.08.56-.14.83-.24.61-.22,1.07-.59,1.47-1.05.29-.33.53-.69.73-1.08.08-.15.18-.3.36-.4.38.35.73.73,1.23.91.02.08.04.15.06.22.09.03.17.06.25.09.05-.05.08-.08.12-.12.48.22.98.3,1.52.29.08-.08.16-.15.22-.24.14-.18.26-.37.39-.56.09-.13.13-.26.12-.41-.02-.22-.05-.44-.06-.66,0-.29-.05-.58-.13-.86-.04-.12-.09-.23-.12-.35-.07-.23-.2-.42-.44-.53-.31-.14-.63-.15-.95-.07-.58.15-1.05.45-1.44.88-.02.02-.05.04-.07.06-.08-.02-.15-.05-.22-.07-.23.09-.36.25-.49.41-.22.28-.43.57-.63.86-.38.55-.88.97-1.52,1.26-.58.26-1.16.32-1.78.12-.47-.15-.93-.64-.87-1.15.01-.1.05-.21-.04-.31-.16-.02-.24.09-.31.2-.1.17-.18.35-.28.52-.17.3-.33.61-.52.89-.41.59-1.29.67-1.81.4-.39-.2-.56-.59-.44-.98.06-.19.12-.37.17-.56.01-.05.01-.1.02-.16-.17-.04-.26.04-.34.13-.1.11-.19.23-.27.36-.18.26-.34.53-.52.79-.38.55-.89.94-1.59,1.1-.32.07-.63.1-.96.04-.59-.11-1.3-.86-.99-1.5.04-.08.04-.19.04-.28,0-.04-.03-.09-.05-.12-.17-.05-.24.06-.32.14-.28.32-.56.65-.85.97-.22.25-.46.47-.76.64-.48.25-.99.41-1.54.43-.69.04-1.29-.15-1.79-.62-.45-.42-.71-.93-.83-1.5-.09-.41-.13-.82-.19-1.23-.04-.29-.1-.57-.12-.86-.03-.58-.05-1.16-.06-1.74,0-.2.03-.4.03-.6,0-.14-.03-.29-.04-.43-.03-.79-.05-1.58-.08-2.38,0-.04,0-.08,0-.12-.06-.56-.13-1.11-.16-1.67-.06-.89-.18-1.76-.32-2.64-.13-.85-.41-1.67-.73-2.48-.01-.03-.04-.06-.07-.09-.02.02-.05.03-.05.05-.17.47-.35.95-.52,1.42-.03.08,0,.17.01.25.12.45.26.89.36,1.35.09.41.16.83.22,1.25.06.48.1.96.14,1.44.07.79.13,1.58.18,2.37.01.18,0,.37,0,.55.03.74.07,1.48.11,2.23.03.57.05,1.14.08,1.71,0,.06,0,.12.01.17.08.54.15,1.09.23,1.63.11.7.34,1.37.72,1.99.29.47.66.87,1.18,1.14.48.26,1.01.39,1.56.3.94-.14,1.72-.58,2.32-1.26.2-.22.39-.45.6-.69.03.09.06.16.07.23.03.32.2.59.41.83.42.46.97.69,1.61.6.85-.12,1.52-.52,1.94-1.23.14-.24.3-.48.49-.78.11.79.55,1.24,1.33,1.38-.03.34-.03.66-.08.97-.09.52-.04,1.05.04,1.56.19,1.11.7,2.07,1.62,2.83.98.81,2.13,1.2,3.41,1.27.82.05,1.62-.1,2.41-.27,1.24-.26,2.39-.74,3.52-1.26.56-.26,1.1-.55,1.65-.84.92-.49,1.81-1.04,2.63-1.67.2-.15.38-.33.53-.53.34-.44.5-.94.59-1.48.11-.72.05-1.42-.24-2.1M83.29,66.87c.15.23.22.48.22.79-.63-.17-1.1-.52-1.55-.9.4-.42,1.04-.37,1.34.1"/>
  <path class="cls-2" d="M54.56,70.59c-.26-.22-.5-.29-.78-.32-.61-.07-1.21-.17-1.82-.25-.23-.03-.45-.06-.68-.08-.78-.08-1.33-.58-1.45-1.3-.1-.56.01-1.09.18-1.62.26-.84.71-1.58,1.28-2.27.56-.67,1.21-1.25,2-1.68.31-.17.63-.3,1-.28.51.02.91.4.88.87-.02.35-.09.69-.24,1.01-.03.08-.08.15-.15.26-.08-.11-.14-.18-.19-.26-.31-.46-.69-.53-1.23-.28-.66.3-1.17.78-1.67,1.26-.36.35-.72.7-.97,1.13-.11.2-.2.42-.26.64-.09.35.07.67.41.82.24.11.5.2.77.23.73.1,1.47.17,2.2.25.27.03.53.11.76.24.36.21.51.55.56.93.07.53-.06,1.04-.32,1.51-.19.35-.51.6-.85.84-.7.51-1.47.91-2.22,1.35-1.41.82-2.92,1.45-4.46,2.03-1.44.55-2.92.98-4.43,1.31-.98.22-1.98.39-2.97.53-.86.12-1.74.18-2.61.26-1.68.14-3.36.13-5.04.09-.71-.01-1.42-.05-2.12-.11-.91-.08-1.82-.17-2.73-.29-.72-.1-1.43-.25-2.14-.37-1.28-.22-2.52-.59-3.76-.96-.16-.05-.28-.12-.39-.23-.84-.84-1.69-1.69-2.53-2.53-.04-.04-.08-.09-.14-.15.21-.04.36.04.49.11.34.17.68.34,1,.53.44.26.92.45,1.42.6,1.11.32,2.22.66,3.34.96.68.18,1.38.31,2.07.42.74.12,1.48.21,2.22.3.53.06,1.06.09,1.59.13,1.58.12,3.17.12,4.76.09.75-.01,1.5-.06,2.25-.11.55-.04,1.1-.1,1.65-.16.36-.04.73-.07,1.09-.13.74-.12,1.48-.23,2.21-.37,1.44-.28,2.85-.66,4.23-1.12,1.31-.43,2.59-.92,3.8-1.55.48-.25.99-.45,1.47-.71.63-.34,1.24-.72,1.85-1.09.22-.14.43-.3.67-.47"/>
  <path class="cls-2" d="M93.58,74.16c-.25.14-.48.27-.71.39-1,.54-2.01,1.07-3.01,1.61-.31.17-.67.2-1.02.27-1.27.26-2.54.5-3.82.74-.19.04-.38.06-.58.06.1-.13.25-.17.38-.23.8-.35,1.61-.69,2.41-1.03,1.47-.63,2.91-1.31,4.31-2.05,1.59-.84,3.11-1.77,4.55-2.81.49-.36.96-.74,1.43-1.13.18-.15.32-.33.47-.48-.12-.55-.65-.83-1.08-.85-.22-.01-.44,0-.66.02-.28.01-.56.05-.84.05-.8,0-1.34-.43-1.42-1.16-.1-.89.25-1.64,1.01-2.19.53-.38,1.09-.35,1.64-.03.42.24.74.59,1.01.98.4.59.63,1.24.71,1.93.05.46.06.93-.03,1.39-.04.21-.06.42-.11.63-.09.39-.33.71-.62.99-.56.56-1.19,1.05-1.86,1.5-.55.37-1.11.72-1.66,1.09-.03.02-.06.05-.1.09.02.63.13,1.24.59,1.75.41.46.95.69,1.57.74.62.05,1.2-.11,1.76-.34.81-.32,1.49-.81,2.18-1.3.83-.59,1.57-1.27,2.29-1.97.35-.34.66-.72.99-1.09-.11-.28-.27-.52-.43-.75-.25-.36-.53-.7-.79-1.04-.39-.51-.72-1.06-1.03-1.62-.12-.21-.21-.44-.48-.56.05-.43.1-.86.16-1.33.64.46,1.2.93,1.79,1.38.04.03.06.07.1.13-.22.12-.44-.11-.66.03.17.22.33.44.5.66.22.27.46.53.67.8.4.52.58,1.1.61,1.74.02.48,0,.97-.13,1.44-.04.16-.12.33-.22.47-.69.97-1.53,1.81-2.45,2.58-.68.56-1.39,1.08-2.18,1.5-.62.33-1.27.59-1.98.67-1.1.12-2.04-.28-2.62-1.23-.3-.49-.48-1.03-.53-1.59-.02-.27-.05-.53-.08-.83M94.82,66.99c.15.23.29.32.63.31.35,0,.71-.04,1.06-.07.05,0,.09-.03.15-.05-.22-.25-.46-.45-.77-.55-.45-.15-.81-.03-1.07.37"/>
  <path class="cls-2" d="M44.66,77.82c.07-.04.12-.07.17-.09,1.35-.52,2.69-1.03,4.04-1.56,1.38-.55,2.73-1.15,4.06-1.8,1.28-.63,2.52-1.33,3.74-2.05.94-.55,1.84-1.17,2.64-1.9.06-.05.13-.09.22-.15-.92-1.63-1.82-3.23-2.72-4.82.09-.42.19-.84.28-1.25,0-.01.03-.02.05-.04.39.26,1.49,1.37,1.68,1.71-.2-.03-.37-.05-.58-.08.06.11.11.2.16.29.34.56.7,1.12,1.03,1.69.31.54.48,1.13.47,1.75,0,.44-.02.87-.13,1.29-.15.59-.47,1.06-.96,1.45-.67.54-1.41.99-2.14,1.46-1.07.7-2.2,1.29-3.35,1.87-.66.33-1.33.65-1.98.99-.64.34-1.34.5-2.07.61-1.09.16-2.17.34-3.26.51-.41.06-.82.12-1.23.18-.02,0-.05-.02-.11-.05"/>
  <path class="cls-2" d="M89.96,55.06c.19-.42.39-.87.59-1.32h.07c.54,1.22,1.12,2.42,1.54,3.68.02.06,0,.13-.01.19-.15.03-.23-.04-.31-.12-.13-.14-.26-.28-.39-.42-.06-.06-.12-.12-.22-.22.03.23.05.41.07.59.05.44.11.88.16,1.32.03.24.05.48.08.72.08.71.17,1.42.24,2.13.07.65.13,1.3.21,1.96.07.62.15,1.24.23,1.87.03.23.04.46.07.69.14,1.44.26,2.89.2,4.34-.04.85-.16,1.69-.49,2.49-.04.11-.08.22-.2.28-.12-.04-.12-.13-.12-.22,0-.32-.01-.64-.01-.96,0-.35,0-.7,0-1.04,0-.66-.04-1.31-.11-1.96-.03-.33-.05-.65-.07-.98-.06-.63-.12-1.27-.18-1.9-.04-.44-.09-.88-.14-1.32-.05-.47-.12-.94-.17-1.41-.05-.44-.09-.88-.14-1.33-.06-.52-.12-1.03-.18-1.55-.03-.24-.05-.48-.07-.72-.06-.56-.12-1.11-.18-1.67-.05-.47-.09-.94-.14-1.41-.04-.42-.08-.84-.14-1.26-.02-.14-.1-.27-.17-.43"/>
  <path class="cls-2" d="M27.63,55.13c.03-.2.46-1.22.61-1.4.63,1.27,1.28,2.51,1.73,3.83-.15.1-.25.05-.33-.03-.14-.14-.28-.28-.43-.42-.06-.06-.13-.12-.24-.22.02.22.04.39.06.55.1.7.2,1.39.31,2.09.12.78.25,1.56.36,2.34.06.38.09.77.14,1.15.04.35.09.71.14,1.06.03.27.07.54.1.8.03.35.04.69.08,1.04.1.83.08,1.66.05,2.49-.03.67-.15,1.32-.4,1.95-.04.1-.07.23-.21.28-.14-.07-.12-.2-.13-.31-.02-.17-.01-.35-.02-.52,0-.47.01-.95-.02-1.42-.03-.52-.1-1.04-.15-1.55-.03-.25-.04-.5-.07-.75-.08-.7-.16-1.4-.25-2.1-.11-.89-.22-1.78-.33-2.67-.06-.48-.15-.95-.22-1.43-.02-.13-.02-.27-.04-.4-.04-.39-.09-.78-.14-1.18-.05-.38-.11-.76-.16-1.15-.08-.55-.16-1.11-.25-1.66-.02-.12-.11-.23-.18-.38"/>
  <path class="cls-2" d="M48.21,57.69c-.38-.12-.52-.5-.88-.72.03.25.05.46.08.67.08.53.16,1.07.24,1.6.06.41.13.82.19,1.23.06.41.12.82.18,1.23.05.37.11.74.16,1.12.05.4.11.8.15,1.21.06.55.13,1.09.17,1.64.06.87.13,1.74.07,2.61-.04.65-.13,1.31-.37,1.93-.05.13-.06.29-.22.37-.14-.02-.15-.13-.16-.22-.01-.18-.01-.37-.01-.55,0-.37.01-.74,0-1.1-.02-.36-.06-.71-.1-1.07-.02-.23-.05-.46-.07-.69-.05-.52-.09-1.04-.14-1.56-.04-.41-.1-.82-.16-1.23-.05-.39-.1-.78-.15-1.18-.05-.39-.11-.78-.15-1.18-.04-.29-.06-.57-.1-.86-.05-.36-.1-.73-.15-1.09-.08-.55-.15-1.11-.23-1.66-.07-.51-.16-1.01-.23-1.52-.04-.29-.08-.57-.11-.86-.02-.22-.08-.44-.27-.62.19-.46.39-.93.6-1.44.08.13.15.22.19.31.52,1.07,1.07,2.14,1.47,3.26.04.11.05.22.07.33-.02.02-.05.03-.07.05"/>
  <path class="cls-2" d="M62.97,62.54c.06-.35.2-.66.37-.95.08-.14.24-.24.39-.33.48-.28.98-.56,1.47-.83.84-.46,1.69-.92,2.54-1.37,1.14-.61,2.26-1.24,3.42-1.81,1.36-.66,2.74-1.27,4.12-1.89.45-.2.9-.4,1.36-.59.09-.04.19-.05.34-.09-.1.33-.18.6-.26.87-4.75,2.07-9.31,4.42-13.75,7"/>
  <path class="cls-2" d="M89.52,60.03c.06.17.03.31-.04.44-.41.68-.82,1.37-1.3,2.01-.22.29-.53.46-.9.53-.71.14-1.42.28-2.13.42-.05-.04-.08-.07-.13-.11.04-.04.07-.09.11-.11.34-.18.69-.36,1.04-.54.53-.28,1.06-.57,1.59-.86.1-.05.18-.12.31-.21-1.05-.18-2.03,0-3.05.11.02-.09.02-.17.06-.23.27-.42.54-.84.83-1.26.12-.18.33-.26.55-.28.78-.1,1.56-.08,2.34-.05.24.01.5,0,.74.13"/>
  <path class="cls-2" d="M81.76,55.52c-.19-.15-.31-.39-.59-.43-.23.04-.3.22-.34.4-.1.42-.18.85-.26,1.28-.04.18-.06.36-.1.56.36.17.67.41.91.75-.04.17-.09.37-.14.57-.29.05-.57.08-.84.13-.38.08-.75.18-1.02.49.18.61.36,1.22.54,1.83.23.79.48,1.58.67,2.37.12.49.15.99.22,1.49.02.16-.04.32-.1.52-.13-.15-.1-.29-.12-.41-.19-1.23-.58-2.4-1-3.57-.18-.5-.36-1.01-.44-1.53-.05-.35-.04-.69.07-1.03.12-.37.4-.58.78-.68.14-.04.28-.07.44-.12-.33-.17-.4-.16-.64.03-.05.04-.12.07-.18.1-.1-.25-.01-.42.44-.92-.2-.45-.24-.97-.67-1.35-.06.04-.12.08-.21.13-.31-.2-.62-.4-.94-.6.06-.29.09-.55.25-.78.21-.07.36.02.51.1.6.33.94.83,1.13,1.44.04.12.08.24.12.36,0,0,.02.01.04.02.11-.51.23-1.01.33-1.51.05-.23.14-.42.3-.59.22-.23.54-.25.77-.04.08.07.15.16.22.25.08.1.1.21.05.33-.06.14-.07.3-.2.42"/>
  <path class="cls-2" d="M40.67,57.74c.07.18.02.31-.04.44-.14.3-.29.6-.43.9-.15.32-.28.65-.27,1,0,.09.02.19.05.28.08.23.12.25.41.26.18-.06.2-.31.42-.34.02.03.04.05.04.06-.11.29-.25.57-.46.81-.13.15-.3.29-.54.23-.24-.06-.37-.23-.43-.46-.11-.47.01-.9.21-1.32.16-.34.35-.67.55-1.06-3.08,1.35-6.04,2.83-8.98,4.44.12-.48.28-.86.73-1.08.61-.3,1.2-.63,1.8-.93,1.43-.71,2.87-1.43,4.31-2.11.82-.39,1.66-.73,2.49-1.09.04-.02.08-.02.14-.04"/>
  <path class="cls-2" d="M51.11,64.1c-.07-.35-.15-.69-.22-1.04-.11-.61-.3-1.2-.5-1.79-.23-.67-.45-1.34-.65-2.02-.11-.35-.11-.72-.03-1.09.08-.39.33-.66.76-.76.13-.03.26-.07.4-.11-.29-.18-.32-.18-.55,0-.06.04-.13.08-.2.13-.06-.27-.04-.31.41-.88-.18-.43-.21-.93-.63-1.27-.02,0-.03,0-.04,0-.03.04-.06.08-.11.14-.3-.19-.6-.37-.9-.56.05-.26.06-.51.19-.71.13-.09.23-.05.34,0,.39.14.68.4.9.73.17.25.29.51.36.8.02.08.05.17.09.31.04-.15.06-.24.08-.34.09-.41.18-.81.27-1.22.03-.11.08-.22.13-.32.1-.19.26-.33.53-.35.26.05.43.23.58.47.02.22-.05.42-.21.63-.09-.1-.15-.19-.23-.25-.08-.06-.17-.11-.24-.15-.19.01-.29.09-.33.24-.06.23-.12.47-.17.7-.06.27-.11.55-.17.82-.02.1-.02.21-.03.32.34.18.61.41.84.7-.04.18-.09.36-.13.54-.62.12-1.27.11-1.75.58.18.6.36,1.2.53,1.8.23.8.46,1.6.66,2.4.09.37.12.76.15,1.15.01.14-.05.28-.07.42h-.07Z"/>
  <path class="cls-2" d="M72.14,73.94c-.12.25-.24.52-.38.8-.25-.29-.38-.65-.81-.73-.23.03-.36.18-.41.38-.08.29-.15.58-.2.87-.11.68-.18,1.36-.38,2.02-.04.12-.08.24-.12.36-.02.04-.06.07-.09.11-.17-.11-.18-.27-.23-.41-.2-.47-.37-.94-.58-1.4-.12-.26-.3-.51-.47-.79-.06.08-.1.13-.16.2-.41-.24-.81-.47-1.23-.71.04-.27.08-.51.12-.76.01-.07.05-.13.08-.19.12-.2.28-.27.52-.21.24.06.44.18.61.34.52.51.86,1.13,1.11,1.79.09.24.17.47.3.71.04-.27.09-.53.13-.8.08-.56.15-1.13.37-1.66.09-.23.23-.43.42-.6.27-.24.62-.24.9-.01.21.17.36.37.49.68"/>
  <path class="cls-2" d="M86.52,58.67c-.05-.09-.09-.18-.13-.28-.23-.55-.45-1.1-.7-1.64-.1-.22-.25-.42-.4-.65-.08.05-.13.09-.21.14-.4-.23-.82-.43-1.17-.71-.02-.44.12-.86.37-1.1.26-.06.5,0,.72.15.31.22.52.49.73.78.37.52.6,1.1.8,1.69.02.06.05.12.1.24.1-.6.17-1.14.27-1.67.08-.4.18-.79.41-1.15.11-.17.25-.31.44-.4.17-.09.34-.09.51,0,.29.15.49.38.64.66.03.06.04.14.02.2-.1.24-.21.48-.33.76-.08-.11-.13-.19-.19-.26-.1-.12-.2-.25-.33-.35-.24-.19-.5-.14-.64.12-.06.1-.1.21-.12.33-.07.35-.13.7-.19,1.05-.11.59-.22,1.18-.34,1.76-.02.12-.09.23-.14.34-.03,0-.06,0-.1,0"/>
  <path class="cls-2" d="M21.41,55.34c-.07.16-.05.36-.24.5-.14-.12-.27-.24-.39-.35-.28.01-.31.03-.37.23-.05.18-.08.36-.12.54-.07.31-.14.62-.21.93-.02.09-.03.19-.04.3.32.16.61.36.83.68-.04.14-.08.32-.13.5-.28.04-.54.06-.79.12-.23.06-.45.14-.67.24-.09.04-.16.14-.23.21.08.3.15.57.23.84.24.8.48,1.6.72,2.39.09.31.17.62.25.92.11.4.07.81.06,1.21,0,.04-.04.08-.1.12-.03-.13-.07-.26-.08-.4-.09-.95-.45-1.84-.74-2.74-.17-.52-.34-1.03-.49-1.55-.1-.35-.09-.7,0-1.05.09-.3.27-.52.59-.63.16-.05.31-.11.53-.18-.17-.04-.27-.07-.37-.09-.13.09-.24.16-.35.24-.11-.23-.04-.39.37-.84-.16-.42-.24-.87-.61-1.21-.01,0-.03-.01-.03,0-.03.04-.06.07-.12.13-.31-.15-.57-.36-.88-.53.11-.26.01-.56.33-.74.92.27,1.27.94,1.48,1.77.04-.08.07-.13.08-.18.09-.41.17-.81.26-1.22.05-.22.16-.42.36-.56.16-.12.29-.13.46-.04.19.11.34.25.43.46"/>
  <path class="cls-2" d="M30.15,56.34c-.1-.13-.07-.22-.02-.31.15-.28.33-.52.65-.68.98-.48,1.94-.97,2.91-1.46.9-.45,1.79-.92,2.69-1.35.7-.34,1.43-.64,2.14-.95.24-.11.49-.22.73-.33.07-.03.15-.05.23-.08.1.22.08.28-.17.7-3.15,1.28-6.15,2.87-9.16,4.46"/>
  <path class="cls-2" d="M37.12,80.48c.29-.39.55-.75.82-1.12.49.31.95.6,1.43.91.26-.34.51-.67.77-1.03.5.32.99.64,1.51.97-.29.38-.57.74-.86,1.12-.48-.31-.93-.61-1.4-.92-.26.36-.51.7-.78,1.06-.5-.32-1.02-.61-1.5-.99"/>
  <path class="cls-2" d="M16.83,76.95c-.51-.34-1.02-.61-1.47-.98.23-.4.51-.75.81-1.13.48.3.94.6,1.42.9.26-.35.52-.68.79-1.03.51.33,1,.64,1.5.97-.29.38-.56.74-.86,1.13-.47-.31-.93-.61-1.4-.92-.27.36-.52.7-.79,1.06"/>
  <path class="cls-2" d="M69.47,56.37c.02-.08.03-.17.05-.25.08-.44.14-.88.24-1.31.04-.19.14-.38.24-.56.11-.21.28-.36.56-.39.39.09.57.25.74.68-.08.2-.17.41-.28.65-.23-.22-.31-.53-.66-.58-.17.03-.27.14-.31.28-.07.27-.15.54-.19.82-.06.52-.14,1.03-.28,1.54-.03.11-.08.21-.14.38-.08-.12-.13-.18-.16-.25-.19-.45-.37-.9-.57-1.35-.08-.17-.2-.33-.31-.5-.07.05-.11.07-.17.12-.29-.17-.59-.34-.91-.53-.02-.34-.04-.67.26-.91.28-.06.49.02.68.18.38.33.64.74.83,1.18.12.27.22.54.33.81h.05Z"/>
  <path class="cls-2" d="M56.93,61.69c.1-.57.19-1.1.3-1.63.06-.28.17-.54.39-.75.27-.26.57-.26.84,0,.08.08.15.16.22.25.08.1.1.21.05.33-.03.09-.07.18-.11.27-.04.08-.08.15-.14.25-.21-.21-.31-.51-.66-.55-.29.08-.34.33-.38.55-.11.53-.17,1.07-.27,1.6-.04.23-.11.45-.17.67-.01.05-.06.08-.12.15-.23-.34-.29-.71-.44-1.04-.16-.34-.29-.68-.56-.98-.04.02-.09.04-.15.08-.31-.17-.63-.35-.97-.55.05-.22.08-.45.15-.67.07-.22.22-.3.45-.23.14.05.29.12.4.21.37.29.6.67.79,1.07.13.27.22.56.33.84.01.03.03.07.06.13"/>
  <path class="cls-2" d="M76.58,59.39c-.1.23-.19.44-.29.67-.25-.19-.32-.52-.71-.56-.19.07-.29.23-.33.43-.1.49-.18.99-.26,1.48-.06.35-.09.71-.28,1.03-.14,0-.14-.1-.17-.17-.16-.4-.32-.79-.49-1.18-.1-.22-.24-.42-.37-.65-.06.04-.1.07-.16.11-.32-.15-.63-.34-.93-.53-.07-.34.05-.71.3-.93.2-.05.36.02.52.12.3.2.51.46.68.75.24.4.44.81.56,1.25.01.04.03.07.08.15.07-.43.14-.82.2-1.21.05-.34.14-.66.31-.96.3-.52.73-.56,1.13-.1.08.1.15.2.22.31"/>
  <path class="cls-2" d="M59.76,74.67c-2.03.94-3.96,2.01-5.88,3.09-.02,0-.04,0-.07,0-.01-.02-.04-.05-.03-.07.09-.41.26-.76.68-.99,1.21-.68,2.44-1.32,3.7-1.93.46-.22.92-.45,1.38-.68.13-.07.27-.13.48-.17-.09.27-.17.5-.26.74"/>
  <path class="cls-2" d="M84.01,71.45c.05-.22.56-.95.97-1.37.61.37,1.2.78,1.83,1.18-.35.46-.68.91-1.01,1.34-.25-.07-1.39-.81-1.79-1.16"/>
  <path class="cls-2" d="M101.2,60.59c.13.08.25.14.36.21.03.21.06.41-.09.59-.16-.08-.33-.16-.49-.24-.21.31-.4.59-.6.88-.1.14-.2.27-.32.39-.93.91-1.97,1.69-3.07,2.42-.08.05-.16.13-.31.08.1-.16.25-.25.38-.36.47-.41.96-.8,1.43-1.21.41-.36.83-.71,1.21-1.09.34-.34.64-.71.96-1.07.02-.02.02-.05.04-.1-.12-.06-.24-.11-.36-.17-.51-.24-.57-.73-.2-1.14.18-.2.42-.32.7-.35.17.02.26.11.3.26.03.12.05.25.06.37,0,.17,0,.35,0,.53M100.77,59.95c-.21-.03-.37,0-.47.2.14.18.34.27.57.35.02-.2.04-.37-.1-.54"/>
  <path class="cls-2" d="M99.36,56.98c.07.22-.08.36-.13.54-2.31,1.01-4.61,2.05-6.81,3.33.02-.3.09-.55.37-.7.41-.22.82-.43,1.23-.64.92-.47,1.85-.94,2.78-1.39.7-.34,1.42-.64,2.14-.96.13-.06.26-.11.43-.19"/>
  <path class="cls-2" d="M63.21,53.99c.45.33.88.63,1.24,1.01.52.57.82,1.23.93,1.96.06.4.02.81-.07,1.21-.05.22-.1.43-.17.64-.02.06-.07.1-.14.19-.03-.08-.06-.13-.06-.17,0-.21,0-.43.03-.64.14-.84-.04-1.59-.65-2.24-.28-.3-.56-.6-.91-.84-.1-.07-.19-.15-.28-.23,0-.08,0-.16,0-.24.02-.21.05-.42.08-.66"/>
  <path class="cls-2" d="M31.68,58.85s-.06.08-.1.12c-.29-.13-.54-.31-.83-.49,0-.27-.07-.55.24-.75.4.05.67.26.91.53.29.33.48.7.59,1.14.03-.05.07-.08.08-.12.07-.36.13-.72.21-1.08.03-.14.08-.28.14-.41.08-.2.23-.35.47-.39.33,0,.49.21.64.44.02.21-.1.38-.2.57-.18-.14-.28-.34-.51-.39-.17.04-.26.16-.29.31-.09.43-.16.85-.25,1.28-.05.26-.06.54-.24.8-.05-.07-.1-.12-.12-.18-.1-.25-.19-.51-.28-.77-.09-.24-.21-.46-.45-.64"/>
  <path class="cls-2" d="M20.4,67.04c.05.26-.05.44-.16.66-.13-.15-.24-.28-.3-.35-.36-.03-.41-.02-.46.19-.07.28-.12.57-.18.85-.07.32-.12.64-.19.96-.02.1-.08.19-.14.33-.29-.56-.39-1.13-.81-1.59-.06.05-.1.09-.16.14-.28-.16-.56-.32-.84-.48,0-.25.07-.46.15-.67.14-.09.26-.06.39,0,.44.2.76.5.96.91.11.22.18.45.29.71.1-.47.17-.91.28-1.34.04-.17.13-.35.24-.5.16-.22.43-.25.65-.08.11.08.21.19.29.26"/>
  <path class="cls-2" d="M37.91,62.47c-.51-.34-.98-.66-1.47-.99.26-.39.55-.74.85-1.12.53.31,1.02.63,1.53.96-.3.39-.53.8-.9,1.15"/>
  <path class="cls-2" d="M30.92,65.36c.3-.39.57-.75.86-1.12.51.32,1.01.64,1.52.96-.28.4-.52.79-.88,1.15-.51-.3-.98-.65-1.5-.99"/>
  <path class="cls-2" d="M68.52,63.68c.28-.38.56-.76.84-1.14.51.32,1.01.63,1.52.95-.28.4-.55.78-.83,1.17-.52-.33-1.02-.65-1.53-.98"/>
  <path class="cls-2" d="M71.78,65.92c-.51-.33-1-.64-1.52-.97.26-.39.5-.78.82-1.14.51.32,1,.62,1.52.94-.26.4-.55.78-.83,1.17"/>
  <path class="cls-2" d="M67.65,65.17c.28-.4.53-.76.79-1.11.26.07,1.12.6,1.55.93-.24.38-.52.75-.81,1.14-.51-.32-1-.63-1.52-.96"/>
  <path class="cls-2" d="M56.47,54.29c-.02.07-.03.14-.06.21-.18.39-.36.78-.54,1.17-.17.36-.24.74-.21,1.13.01.11.05.23.1.33.15.27.45.29.65.05.08-.1.16-.2.24-.29,0,0,.02,0,.06-.01.02.04.07.09.06.13-.07.46-.26.88-.65,1.18-.36.27-.75.16-.92-.25-.13-.31-.14-.64-.1-.97.06-.46.22-.9.43-1.32.21-.41.45-.8.68-1.2.04-.07.11-.13.17-.19.03.01.05.03.08.04"/>
  <path class="cls-2" d="M80.26,70.16c.14.09.08.17.05.23-.13.28-.26.57-.4.85-.19.39-.37.78-.37,1.21,0,.16,0,.33.06.48.06.18.21.31.41.32.34-.02.34-.37.61-.48.02.05.07.1.07.14-.08.44-.25.84-.61,1.14-.34.29-.75.22-.94-.17-.17-.35-.17-.73-.11-1.11.09-.56.31-1.08.59-1.57.16-.29.33-.58.5-.86.04-.06.1-.12.15-.18"/>
  <path class="cls-2" d="M78.14,62.3c.1.18,0,.3-.06.41-.18.41-.37.82-.55,1.23-.11.25-.16.52-.16.79,0,.26.09.49.35.66.21.05.37-.02.48-.21.06-.1.12-.2.25-.25.09.1.07.21.04.31-.09.36-.26.69-.55.95-.36.32-.74.25-.96-.15-.13-.23-.15-.48-.15-.73.01-.46.14-.89.32-1.32.22-.53.52-1.03.83-1.52.04-.06.1-.11.16-.17"/>
  <path class="cls-2" d="M64.35,72.71c.09.11,0,.2-.04.29-.17.37-.35.74-.52,1.12-.15.34-.24.7-.22,1.07.01.16.07.3.17.43.18.22.42.21.6,0,.09-.1.17-.21.29-.36.04.1.08.15.07.2-.06.48-.28.89-.69,1.19-.28.21-.61.14-.79-.15-.19-.29-.23-.62-.2-.95.06-.62.3-1.2.59-1.76.16-.3.34-.6.51-.89.05-.08.09-.18.22-.18"/>
  <path class="cls-2" d="M36.08,72.08c-.25.01-.38-.05-.8-.35-.05-.17-.01-.34.06-.5.08-.17.19-.22.37-.15.26.1.45.28.58.51.16.28.29.58.43.87.02.05.05.1.08.17.08-.4.14-.77.23-1.14.03-.14.1-.27.18-.4.14-.22.22-.24.53-.23.18.11.33.25.42.46-.06.14-.13.29-.21.45-.13-.13-.24-.24-.36-.34-.03-.03-.09-.04-.14-.05-.16.05-.2.16-.22.29-.1.49-.2.98-.31,1.47-.02.11-.06.22-.1.4-.08-.12-.14-.17-.17-.23-.11-.26-.21-.53-.32-.78-.07-.15-.16-.29-.24-.44"/>
  <path class="cls-2" d="M45.97,72.35c.13-.12.26-.26.44-.44,0,.1.04.16.01.2-.14.25-.28.49-.44.73-.11.17-.28.25-.5.23-.24-.02-.37-.16-.44-.35-.11-.28-.1-.56-.02-.85.16-.59.48-1.11.78-1.63.11-.18.23-.36.34-.54.12.04.1.11.07.18-.11.25-.23.5-.34.74-.1.21-.2.42-.29.64-.11.27-.12.55-.02.82.06.16.17.26.4.27"/>
  <path class="cls-2" d="M37.52,57.39c-.4-.07-.52-.32-.55-.63-.03-.41.04-.81.25-1.18.26-.47.53-.94.8-1.41.04-.06.09-.12.15-.2.07.09.05.16.02.23-.16.35-.32.69-.47,1.04-.08.18-.13.37-.2.55-.08.21-.02.4.04.59.05.16.16.27.36.25.19-.08.24-.3.46-.35,0,.43-.42.97-.86,1.11"/>
  <path class="cls-2" d="M27.94,62.21c.14.07.12.13.09.2-.1.21-.19.43-.3.63-.17.32-.32.65-.39,1-.03.18-.01.34.03.51.04.13.13.22.27.26.16.04.25-.05.34-.15.06-.07.09-.18.24-.18,0,.16-.08.28-.15.4-.1.18-.2.36-.34.51-.3.3-.66.24-.85-.13-.13-.27-.12-.55-.05-.82.09-.3.21-.6.35-.89.17-.36.38-.71.57-1.06.05-.09.12-.18.18-.27"/>
  <path class="cls-2" d="M94.57,58.26c0-.11-.02-.16-.02-.22.03-.2.09-.4.09-.6,0-.51-.12-1-.51-1.39-.21-.21-.45-.4-.68-.59-.1-.08-.2-.17-.29-.25.03-.21.06-.39.1-.63.15.12.25.2.36.28.22.18.43.36.64.55.36.32.53.74.63,1.17.11.51.09,1.02-.17,1.49-.03.05-.08.1-.16.19"/>
  <path class="cls-2" d="M94.05,61.45c.11.08.13.18.13.29,0,.14,0,.27,0,.41,0,.16.03.31.15.43.12.06.24.07.35,0,.12-.08.2-.21.18-.35-.02-.14-.04-.29-.09-.42-.07-.2-.02-.36.13-.52.13.11.14.26.16.4.03.16.04.33.08.48.04.16.11.32.31.37.04.01.1,0,.16,0,.02-.29-.14-.52-.17-.8.04-.1.08-.23.14-.39.05.07.09.1.1.15.06.23.13.47.15.71.01.17-.02.35-.07.51-.05.15-.18.26-.37.27-.2,0-.31-.1-.39-.24-.03-.05-.05-.1-.08-.17-.05.11-.09.2-.14.28-.1.15-.26.21-.46.19-.19-.03-.3-.14-.33-.3-.03-.14-.03-.28-.04-.43,0-.13,0-.27-.02-.4-.03-.17-.02-.32.13-.45"/>
  <path class="cls-2" d="M64.35,66.32c-.31-.09-.44-.24-.48-.53-.05-.39,0-.77.17-1.13.18-.4.39-.79.6-1.18.04-.07.11-.13.22-.17,0,.05,0,.1-.03.14-.18.43-.37.86-.53,1.3-.1.29-.07.57.19.79.33.11.36-.21.55-.32.12.14.03.27-.02.39-.15.41-.32.59-.67.7"/>
  <path class="cls-2" d="M99.89,70.62c.1.1.05.17.02.25-.15.34-.3.68-.45,1.02-.1.23-.16.46-.12.71.03.25.15.34.44.34.09-.09.2-.2.32-.32,0,.42-.35.87-.75,1.03-.08-.03-.18-.06-.27-.09-.29-.32-.29-.69-.17-1.05.12-.34.27-.67.43-.99.13-.26.29-.51.44-.76.03-.05.07-.09.11-.14"/>
  <path class="cls-2" d="M49.14,50.23c-.18.27-.32.49-.48.74-.27-.13-.53-.25-.79-.38.04-.3.24-.51.34-.8.31.15.6.28.93.44"/>
</svg>