<?xml version="1.0" encoding="UTF-8"?>
<svg id="Layer_1" data-name="Layer 1" xmlns="http://www.w3.org/2000/svg" viewBox="0 0 198.43 113.39">
  <defs>
    <style>
      .cls-1 {
        fill: #231f20;
      }

      .cls-2 {
        fill: #c9b474;
      }
    </style>
  </defs>
  <g>
    <path class="cls-2" d="M34.64,88.38c0-2.18,0-2.57-.03-3.02-.03-.48-.14-.7-.62-.8-.12-.03-.36-.04-.49-.04-.06,0-.12-.03-.12-.08,0-.08.07-.11.23-.11.65,0,1.56.04,1.64.04.16,0,1.26-.04,1.71-.04.91,0,1.88.08,2.65.62.36.25,1,.94,1,1.9,0,1.04-.45,2.07-1.75,3.23,1.19,1.47,2.17,2.72,3.01,3.58.78.8,1.4.95,1.77,1.01.28.04.48.04.56.04.07,0,.13.04.13.08,0,.08-.09.11-.35.11h-1.03c-.81,0-1.17-.07-1.55-.27-.62-.32-1.13-1.01-1.95-2.06-.61-.77-1.29-1.71-1.58-2.07-.06-.06-.1-.08-.19-.08l-1.78-.03c-.07,0-.1.04-.1.11v.34c0,1.34,0,2.45.07,3.04.04.41.13.71.56.77.2.03.52.06.65.06.09,0,.12.04.12.08,0,.07-.07.11-.23.11-.8,0-1.71-.04-1.78-.04-.01,0-.93.04-1.36.04-.16,0-.23-.03-.23-.11,0-.04.03-.08.12-.08.13,0,.3-.03.43-.06.29-.06.36-.36.42-.77.07-.59.07-1.69.07-3.04v-2.46ZM35.8,89.59c0,.07.03.13.1.17.22.13.88.22,1.52.22.35,0,.75-.04,1.09-.27.51-.34.88-1.09.88-2.16,0-1.75-.96-2.8-2.5-2.8-.43,0-.82.04-.97.08-.07.03-.12.08-.12.17v4.58Z"/>
    <path class="cls-2" d="M55.94,93.09c.06.5.17,1.29.85,1.48.46.13.82.13.97.13.08,0,.17.01.17.08,0,.08-.05.11-.24.11-.35,0-2.13-.04-2.72-.08-.36-.03-.44-.07-.44-.14,0-.06.03-.07.11-.1.11-.04.09-.25.06-.5l-.75-7.3-3.89,7.36c-.33.62-.38.74-.52.74-.11,0-.19-.14-.49-.64-.41-.69-1.76-3.11-1.84-3.25-.14-.25-1.95-3.71-2.12-4.09l-.64,6.59c-.02.22-.03.42-.03.66,0,.35.19.46.42.5.27.06.47.06.57.06s.16.03.16.07c0,.1-.08.13-.24.13-.58,0-1.38-.04-1.51-.04-.14,0-.89.04-1.32.04-.16,0-.27-.01-.27-.11,0-.06.08-.08.16-.08.13,0,.24,0,.47-.04.52-.08.55-.59.63-1.16l1.13-9.1c.02-.15.08-.28.17-.28s.16.06.24.21l4.8,8.8,4.61-8.79c.06-.13.13-.22.24-.22s.16.11.19.38l1.05,8.59Z"/>
    <path class="cls-2" d="M65.94,93.71c0,.63-.01.66-.19.76-.93.48-2.23.63-3.07.63-1.1,0-3.15-.14-4.76-1.5-.88-.74-1.72-2.24-1.72-3.99,0-2.24,1.13-3.82,2.42-4.6,1.3-.78,2.74-.88,3.85-.88.91,0,1.94.18,2.21.24.3.07.81.13,1.17.14.14.01.17.07.17.13,0,.2-.1.59-.1,1.99,0,.22-.03.29-.13.29-.07,0-.09-.08-.1-.21-.01-.2-.09-.59-.3-.92-.36-.53-1.53-1.13-3.4-1.13-.91,0-2,.08-3.1.92-.84.64-1.43,1.92-1.43,3.55,0,1.97,1.03,3.4,1.53,3.88,1.14,1.08,2.46,1.5,3.79,1.5.52,0,1.27-.08,1.65-.29.19-.1.29-.25.29-.49v-2.38c0-1.13-.07-1.29-.65-1.44-.12-.03-.36-.04-.49-.04-.06,0-.12-.03-.12-.08,0-.08.07-.11.23-.11.65,0,1.56.04,1.64.04s.98-.04,1.42-.04c.16,0,.23.03.23.11,0,.06-.06.08-.12.08-.1,0-.19.01-.36.04-.39.07-.51.31-.54.8-.03.45-.03.87-.03,1.46v1.57Z"/>
    <path class="cls-2" d="M72.53,30.91c-.1-1.45-.32-2.89-.67-4.3-.35-1.41-.8-2.8-1.31-4.16-.51-1.36-1.12-2.7-1.76-4.01-.05-.11-.2-.17-.33-.13-.14.04-.21.18-.16.3h0s.41,1.01.41,1.01l.2.5.19.51c.12.34.26.67.38,1.01l.35,1.02c.45,1.36.83,2.74,1.11,4.12.28,1.39.47,2.79.52,4.19.05,1.4-.04,2.8-.3,4.17-.25,1.37-.66,2.72-1.21,4.02-.56,1.3-1.25,2.56-2.03,3.77-1.59,2.42-3.52,4.69-5.46,6.97-.25.3-.51.6-.76.9-.02-.33-.04-.65-.07-.97-.12-1.47-.35-2.88-.62-4.2-.25-1.18-.55-2.29-.85-3.32.05-.02.1-.05.15-.08-.01,0,.09-.06.21-.17.13-.1.3-.26.51-.46.21-.2.45-.46.7-.75.25-.3.52-.65.79-1.04.26-.39.54-.82.79-1.29.25-.47.49-.97.7-1.51.22-.53.39-1.09.55-1.66.14-.57.27-1.16.35-1.75l.06-.44c.02-.15.03-.3.04-.44.01-.15.03-.29.04-.44,0-.15.01-.29.02-.44,0-.15.01-.29.02-.43,0-.14,0-.29,0-.43,0-.14,0-.28,0-.42,0-.14-.01-.28-.02-.42-.02-.55-.08-1.08-.13-1.59-.07-.5-.13-.98-.22-1.41-.04-.22-.08-.42-.12-.62-.05-.2-.09-.38-.13-.56-.04-.17-.08-.34-.12-.49-.04-.15-.08-.29-.11-.41-.14-.5-.22-.78-.22-.78-.03-.12-.17-.2-.31-.17-.14.02-.23.15-.21.27h0s.06.29.17.79c.03.12.06.26.09.41.03.15.06.31.09.48.03.17.06.36.1.55.03.19.05.4.08.61.07.43.09.89.14,1.38.02.49.05,1.01.04,1.54,0,.13,0,.27,0,.4,0,.14-.01.27-.02.41,0,.14-.01.27-.02.41-.01.14-.03.28-.04.42-.01.14-.03.28-.04.42-.02.14-.04.28-.06.42-.02.14-.04.28-.06.42l-.08.42c-.11.56-.26,1.11-.43,1.64-.18.53-.37,1.05-.6,1.53-.22.49-.47.94-.72,1.37-.25.42-.53.8-.78,1.15-.26.34-.53.64-.77.9-.24.25-.47.47-.65.63-.08.07-.16.13-.22.19-.24-.71-.49-1.37-.72-1.97-.36-.89-.69-1.67-.99-2.29-.29-.63-.54-1.12-.72-1.45-.18-.33-.28-.51-.28-.51h0c-.06-.11-.2-.15-.33-.11-.13.05-.2.18-.15.3,0,0,.08.18.22.51.14.34.33.84.57,1.48.46,1.28,1.09,3.12,1.64,5.36.28,1.12.54,2.34.76,3.63.22,1.3.37,2.67.46,4.09.05.89.07,1.81.04,2.73-.2.24-.39.49-.59.73-.93,1.18-1.83,2.4-2.65,3.65-1.66,2.5-3.01,5.19-3.94,7.99-.46,1.4-.83,2.83-1.08,4.27-.25,1.44-.41,2.89-.48,4.34-.08,1.45-.05,2.9.03,4.35l.07,1.08.11,1.08.06.54.07.54.12.93s-.04.05-.07.08c-.04.03-.09.06-.15.1l-.1.05-.12.04c-.08.03-.18.05-.28.07-.1.01-.21.04-.31.05h-.15c-.05.02-.09.03-.17.03h-.38s0,.01,0,.01h-.01s-.02,0-.02,0h-.04s-.09,0-.09,0h-.17c-.12,0-.22-.02-.33-.03-.11,0-.21-.03-.31-.05-.09-.02-.19-.04-.28-.07l-.12-.04-.1-.05c-.06-.03-.12-.06-.15-.1-.04-.03-.06-.06-.07-.08l.12-.93.07-.54.06-.54.11-1.08.07-1.08c.08-1.45.11-2.9.03-4.35-.07-1.45-.23-2.9-.48-4.34-.25-1.44-.62-2.87-1.08-4.27-.92-2.8-2.28-5.49-3.94-7.99-.83-1.25-1.72-2.47-2.65-3.65-.19-.25-.39-.49-.59-.73-.03-.92-.01-1.84.04-2.73.09-1.42.24-2.79.46-4.09.22-1.29.48-2.52.76-3.63.55-2.24,1.17-4.08,1.64-5.36.23-.64.43-1.14.57-1.48.14-.34.22-.51.22-.51.05-.11,0-.24-.13-.29-.13-.06-.29-.01-.35.1h0s-.1.18-.28.51c-.18.33-.43.82-.72,1.45-.3.63-.63,1.4-.99,2.29-.24.6-.48,1.26-.72,1.97-.07-.06-.14-.12-.22-.19-.19-.17-.41-.38-.65-.63-.24-.26-.5-.56-.77-.9-.26-.34-.53-.73-.78-1.15-.25-.42-.5-.88-.72-1.37-.23-.48-.42-1-.6-1.53-.16-.53-.32-1.08-.43-1.64l-.08-.42c-.02-.14-.04-.28-.06-.42-.02-.14-.04-.28-.06-.42-.01-.14-.03-.28-.04-.42-.01-.14-.03-.28-.04-.42,0-.14-.01-.28-.02-.41,0-.14-.01-.27-.02-.41,0-.14,0-.27,0-.4-.01-.53.02-1.05.04-1.54.05-.49.07-.96.14-1.38.03-.21.06-.42.08-.61.03-.19.07-.38.1-.55.03-.17.06-.33.09-.48.03-.15.06-.29.09-.41.11-.49.17-.78.17-.78h0c.03-.13-.06-.25-.19-.28-.14-.03-.28.04-.32.17,0,0-.08.28-.22.78-.03.12-.08.26-.11.41-.04.15-.07.31-.12.49-.04.17-.08.36-.13.56-.04.2-.08.41-.12.62-.09.43-.15.91-.22,1.41-.05.5-.11,1.03-.13,1.59,0,.14-.01.28-.02.42,0,.14,0,.28,0,.42,0,.14,0,.29,0,.43,0,.14.01.29.02.43,0,.15.01.29.02.44.01.15.03.29.04.44.01.15.02.3.04.44l.06.44c.08.59.21,1.18.35,1.75.16.57.33,1.13.55,1.66.2.53.45,1.04.7,1.51.25.47.52.9.79,1.29.27.39.54.74.79,1.04.26.3.5.55.7.75.21.2.38.36.51.46.12.1.22.17.21.17.05.03.1.06.15.08-.31,1.03-.61,2.14-.85,3.32-.27,1.32-.5,2.73-.62,4.2-.03.32-.05.65-.07.97-.25-.3-.51-.6-.76-.9-1.94-2.28-3.87-4.55-5.46-6.97-.79-1.21-1.48-2.47-2.03-3.77-.55-1.3-.96-2.65-1.21-4.02-.25-1.37-.35-2.77-.3-4.17.04-1.4.24-2.8.52-4.19.28-1.39.66-2.76,1.11-4.12l.35-1.02c.12-.34.26-.67.38-1.01l.19-.5.21-.5.42-1.01c.05-.11-.01-.24-.14-.29-.13-.05-.29,0-.34.12h0c-.63,1.31-1.25,2.65-1.76,4.01-.51,1.36-.96,2.75-1.31,4.16-.35,1.41-.58,2.85-.67,4.3-.1,1.45-.04,2.92.18,4.36.22,1.45.61,2.88,1.15,4.26.56,1.38,1.26,2.71,2.05,3.98.8,1.27,1.68,2.49,2.61,3.68.93,1.19,1.89,2.34,2.84,3.49.66.8,1.32,1.6,1.96,2.4,0,.42.03.85.06,1.27.11,1.55.35,3.13.78,4.68.43,1.55,1.04,3.06,1.82,4.48l.15.27.07.13.04.07.03.05.02.03c.1.17.21.33.31.5.19.32.45.67.68,1,.12.17.24.32.36.48.12.16.24.32.36.47.12.15.24.3.36.45.11.15.22.29.34.44.43.58.82,1.15,1.09,1.75.16.29.27.6.38.9l.09.22.07.23c.05.15.09.31.14.46.1.3.15.62.23.92.03.15.07.3.1.45.03.15.05.3.08.45.05.3.1.6.14.89.04.29.07.58.1.87.03.28.06.56.1.83.02.27.04.54.06.8.04.52.09,1.01.1,1.48.02.47.04.9.06,1.31.02.4.03.77.04,1.11.01.47.02.87.03,1.19l-.11.82v.03s0,.05,0,.07v.06s0,.03,0,.03v.06s.02.06.03.1c.01.06.03.11.05.17.04.11.09.21.15.3.11.18.26.34.42.47.16.13.32.23.49.32.08.04.17.08.25.11l.25.09c.17.05.33.09.49.13.16.02.32.06.47.07.15.01.31.03.46.04h.48s.4,0,.4,0c.06,0,.15,0,.23-.02l.25-.02c.16-.02.32-.05.48-.07.16-.04.32-.07.49-.13l.25-.09c.08-.03.17-.07.25-.11.17-.08.33-.19.49-.32.16-.13.3-.29.42-.47.06-.09.11-.19.15-.3.02-.06.04-.11.05-.17,0-.03.01-.06.02-.1v-.06s0-.03,0-.03v-.06s0-.05,0-.07v-.03s-.12-.82-.12-.82c0-.32.02-.72.03-1.19,0-.34.02-.71.04-1.11.02-.4.04-.84.06-1.31.02-.47.07-.96.1-1.48.02-.26.04-.53.06-.8.03-.27.06-.55.1-.83.04-.28.06-.57.1-.87.05-.29.09-.59.14-.89.03-.15.04-.3.08-.45.03-.15.07-.3.1-.45.07-.3.12-.62.23-.92.05-.15.09-.31.14-.46l.07-.23.09-.22c.12-.3.23-.61.38-.9.27-.6.66-1.16,1.09-1.75.11-.15.22-.29.34-.44.12-.15.24-.3.36-.45.12-.15.24-.31.36-.47.12-.16.24-.31.36-.48.23-.33.48-.68.68-1,.1-.16.21-.33.31-.5l.02-.03.03-.05.04-.07.07-.13.14-.27c.78-1.42,1.4-2.93,1.82-4.48.42-1.55.67-3.13.78-4.68.03-.43.05-.85.06-1.27.64-.8,1.3-1.6,1.96-2.4.95-1.15,1.91-2.31,2.84-3.49.93-1.19,1.81-2.41,2.61-3.68.79-1.28,1.49-2.6,2.05-3.98.55-1.38.93-2.82,1.15-4.26.22-1.45.27-2.91.18-4.37M45.41,66.56c-.12-.15-.24-.31-.35-.46-.12-.15-.24-.3-.35-.45-.12-.15-.23-.3-.35-.45-.11-.15-.24-.3-.34-.45-.21-.3-.43-.58-.63-.92-.1-.16-.21-.33-.31-.49-.09-.16-.18-.32-.26-.48-.74-1.31-1.31-2.72-1.74-4.17-.31-1.08-.53-2.18-.68-3.28.56.76,1.11,1.54,1.62,2.32,1.58,2.43,2.85,5.01,3.71,7.69.29.91.54,1.83.74,2.75-.3-.56-.67-1.1-1.05-1.61M59.28,58.68c-.42,1.45-1,2.86-1.74,4.17-.09.16-.18.32-.26.48-.11.17-.21.33-.31.49-.21.34-.42.62-.63.92-.1.15-.23.3-.34.45-.11.15-.23.3-.35.45-.12.15-.24.3-.35.45-.12.16-.24.31-.35.46-.38.51-.75,1.05-1.05,1.61.2-.93.45-1.84.74-2.75.86-2.68,2.13-5.26,3.71-7.69.51-.79,1.05-1.56,1.61-2.32-.15,1.1-.37,2.2-.68,3.28"/>
  </g>
  <path class="cls-1" d="M81.89,63.22c0,.79,0,1.44.04,1.79.02.24.07.42.32.45.11.02.3.03.37.03.05,0,.07.02.07.05,0,.04-.04.07-.13.07-.45,0-.97-.02-1.01-.02s-.56.02-.81.02c-.09,0-.13-.02-.13-.07,0-.02.02-.05.07-.05.07,0,.17-.02.25-.03.16-.03.21-.21.24-.45.04-.35.04-1,.04-1.79v-3.48c-.4,0-.81,0-1.22.02-.51,0-.71.07-.84.26-.09.14-.12.2-.14.26-.03.07-.05.08-.08.08-.02,0-.04-.02-.04-.07,0-.08.16-.79.18-.86.02-.05.05-.16.08-.16.06,0,.14.08.36.1.24.02.55.04.65.04h3.09c.26,0,.45-.02.58-.04.12-.02.2-.04.23-.04.04,0,.04.05.04.1,0,.25-.02.81-.02.91,0,.07-.02.11-.06.11-.04,0-.06-.02-.07-.14,0-.03,0-.06,0-.09-.02-.25-.22-.44-1.01-.45-.35,0-.69,0-1.04-.02v3.48Z"/>
  <path class="cls-1" d="M89.05,62.52s.05,0,.05-.04v-.15c0-1.09,0-1.28-.02-1.5-.02-.22-.05-.34-.32-.39-.06,0-.14-.02-.21-.02-.06,0-.1-.02-.1-.06,0-.05.04-.06.11-.06.35,0,.83.02.86.02s.49-.02.74-.02c.08,0,.13,0,.13.06,0,.02-.02.06-.09.06-.05,0-.12,0-.16.02-.22.03-.26.16-.27.39,0,.22,0,.41,0,1.5v1.23c0,.68,0,1.21.03,1.51.02.2.07.36.28.39.11.02.21.02.29.02.07,0,.11.03.11.06,0,.04-.04.06-.12.06-.41,0-.89-.02-.93-.02-.03,0-.51.02-.73.02-.08,0-.12-.02-.12-.07,0-.02.03-.05.09-.05s.12,0,.19-.02c.14-.02.18-.21.21-.39.04-.3.04-.81.04-1.48v-.73s-.02-.05-.05-.05h-2.99s-.04,0-.04.05v.73c0,.67,0,1.2.04,1.5.02.18.07.35.28.37.11.02.23.02.3.02.06,0,.1.03.1.06s-.03.06-.11.06c-.42,0-.91-.02-.95-.02-.02,0-.53.02-.74.02-.08,0-.13-.02-.13-.06,0-.02.02-.06.09-.06.07,0,.13,0,.2-.02.15-.03.18-.19.21-.37.05-.3.04-.85.04-1.52v-1.22c0-1.09,0-1.3-.02-1.52-.02-.21-.07-.37-.31-.39-.07,0-.16-.02-.22-.02-.06,0-.09-.02-.09-.05,0-.05.04-.06.12-.06.35,0,.75.02.86.02.03,0,.51-.02.74-.02.08,0,.12.02.12.06,0,.03-.03.05-.08.05s-.07,0-.16.02c-.21.03-.26.17-.27.4,0,.22,0,.4,0,1.49v.15s.02.04.05.04h2.98Z"/>
  <path class="cls-1" d="M92.1,62.34c0-1.08,0-1.28-.02-1.5-.02-.23-.07-.35-.31-.4-.05,0-.13-.02-.2-.02-.06,0-.11-.02-.11-.05,0-.05.04-.07.12-.07.16,0,.39.02.85.02.04,0,1.51,0,1.67,0,.16,0,.26-.02.32-.04.05-.02.06-.02.09-.02.02,0,.03.02.03.06,0,.05-.05.16-.07.37,0,.14-.02.27-.02.43,0,.07-.02.12-.06.12s-.06-.03-.06-.09c0-.12-.03-.21-.06-.26-.05-.16-.12-.22-.53-.25-.11,0-.92-.02-.94-.02-.02,0-.04.02-.04.07v1.87s0,.08.05.08c.1,0,.94,0,1.11-.02.19,0,.31-.03.38-.12.03-.05.06-.07.09-.07.02,0,.03,0,.03.05s-.03.2-.06.44c-.02.23-.02.39-.03.5,0,.07-.02.09-.06.09-.04,0-.05-.05-.05-.11,0-.05,0-.13-.02-.2-.03-.11-.08-.22-.4-.25-.19-.02-.86-.03-.99-.03-.05,0-.06.02-.06.06v.6c0,.25,0,.98,0,1.12.02.3.06.46.23.54.12.06.32.07.6.07.16,0,.42,0,.63-.05.25-.07.3-.24.37-.54.02-.08.04-.11.07-.11.05,0,.05.07.05.12,0,.06-.07.58-.09.72-.03.16-.09.18-.36.18-.54,0-.77-.02-1.06-.02-.29,0-.67-.02-.97-.02-.19,0-.35.02-.54.02-.07,0-.12-.02-.12-.06,0-.03.03-.06.07-.06.05,0,.11,0,.16-.02.15-.03.25-.14.26-.65,0-.28.02-.62.02-1.24v-1.23Z"/>
  <path class="cls-1" d="M99.5,63.59c0,.95.03,1.42.17,1.56.13.12.3.16.86.16.36,0,.69,0,.87-.23.08-.12.14-.29.16-.41,0-.07.02-.1.07-.1.03,0,.05.02.05.11s-.05.55-.1.74c-.05.16-.04.21-.44.21-.56,0-1.18-.04-2-.04-.27,0-.44.02-.72.02-.08,0-.13-.02-.13-.07,0-.02.02-.05.09-.05s.13,0,.2-.02c.14-.02.19-.19.21-.39.05-.31.03-.88.03-1.51v-1.23c0-1.09,0-1.27-.02-1.49-.02-.23-.05-.38-.33-.41-.05,0-.14,0-.21,0-.06,0-.09-.02-.09-.06,0-.04.04-.06.12-.06.35,0,.84.02.86.02.12,0,.62-.02.85-.02.08,0,.11.02.11.06s-.04.06-.09.06c-.06,0-.14,0-.22.02-.23.03-.28.16-.3.4-.02.22,0,.4,0,1.49v1.25Z"/>
  <path class="cls-1" d="M103.85,63.6s-.07.02-.08.07l-.36,1.03c-.08.23-.14.45-.14.58,0,.15.09.21.27.21h.06c.07,0,.1.02.1.06,0,.04-.07.06-.12.06-.18,0-.56-.02-.65-.02-.08,0-.44.02-.79.02-.09,0-.13-.02-.13-.06,0-.03.03-.06.1-.06.04,0,.12,0,.16,0,.35-.03.49-.3.63-.65l1.65-4.34c.09-.24.12-.28.17-.28.04,0,.07.03.16.26.12.27,1.23,3.14,1.67,4.17.27.65.51.76.63.8.11.04.22.04.28.04s.1.02.1.06-.03.06-.12.06c-.08,0-.7,0-1.25-.02-.16,0-.21-.02-.21-.06,0-.02.02-.05.06-.06.03-.02.08-.06.03-.18l-.65-1.65s-.03-.04-.07-.04h-1.5ZM105.25,63.31s.03-.02.02-.05l-.65-1.82c-.04-.12-.05-.12-.09,0l-.62,1.82s0,.05.02.05h1.32Z"/>
  <path class="cls-1" d="M107.44,61.01c-.12-.36-.17-.49-.4-.55-.09-.02-.24-.03-.3-.03-.04,0-.1-.02-.1-.07,0-.03.04-.05.12-.05.43,0,.81.02.89.02.06,0,.42-.02.81-.02.1,0,.11.03.11.06,0,.05-.05.07-.11.07-.06,0-.17,0-.26.03-.07.02-.08.09-.08.17,0,.09.07.32.14.63.11.44.81,2.89.94,3.28l1.52-3.87c.11-.31.16-.35.2-.35.06,0,.1.1.2.36l1.46,3.87c.2-.68.89-2.77,1.11-3.58.06-.21.07-.26.07-.35,0-.12-.04-.21-.4-.21-.07,0-.11-.03-.11-.07s.03-.05.12-.05c.3,0,.63.02.69.02.05,0,.45-.02.67-.02.07,0,.1.02.1.05,0,.04-.04.07-.11.07-.02,0-.13,0-.21.02-.25.06-.33.4-.46.77-.32.89-1.05,3.1-1.3,3.78-.21.58-.27.69-.34.69-.08,0-.13-.12-.24-.42l-1.42-3.75c-.26.64-1.26,3.13-1.51,3.75-.12.32-.18.42-.26.42-.08,0-.12-.11-.29-.63l-1.27-4.06Z"/>
  <path class="cls-1" d="M118.24,62.34c0-1.08,0-1.28-.02-1.5-.02-.23-.06-.36-.31-.39-.07,0-.13,0-.21-.02-.07,0-.11-.03-.11-.07,0-.04.04-.06.12-.06.3,0,.57.02.84.02.12,0,1.62,0,1.79,0,.16,0,.29-.02.37-.06.04-.02.07-.02.08-.02.02,0,.04.02.02.07-.02.06-.04.17-.05.26-.03.21-.02.36-.04.58,0,.09-.02.12-.06.12-.04,0-.06-.04-.07-.1,0-.09-.03-.31-.13-.41-.11-.1-.26-.11-.46-.12-.35,0-.68-.02-1.04-.02-.06,0-.07.02-.07.08v1.86s0,.07.06.07c.34,0,.73,0,1,0,.34,0,.44-.02.55-.16.03-.04.05-.07.08-.07.02,0,.03.03.03.07s-.03.18-.06.43c-.02.22-.03.36-.03.48,0,.08-.02.12-.06.12-.05,0-.05-.05-.06-.12,0-.11-.02-.39-.43-.44-.16-.02-.91-.02-1.04-.02-.05,0-.06.02-.06.07v.58c0,.55,0,1.05.02,1.37,0,.41.07.47.3.5.11.02.18.03.26.03.07,0,.1.02.1.06s-.02.06-.11.06c-.43,0-.88-.02-.91-.02h-.06c-.16,0-.49.02-.67.02-.07,0-.12-.02-.12-.06,0-.02.02-.05.08-.06.08,0,.12,0,.17-.02.19-.02.21-.16.23-.45.02-.3.03-.79.03-1.45v-1.23ZM122.56,62.34c0-1.09,0-1.28-.02-1.51-.02-.22-.07-.35-.24-.38-.08-.02-.14-.02-.19-.02-.06,0-.09-.02-.09-.06,0-.04.03-.06.12-.06.26,0,.72.02.75.02.03,0,.51-.02.74-.02.08,0,.12.02.12.06,0,.03-.02.05-.09.06-.05,0-.09,0-.15.02-.24.03-.26.16-.28.4-.02.22,0,.41,0,1.5v1.23c0,.63,0,1.21.03,1.51.03.24.07.33.28.38.11.03.28.03.31.03.07,0,.09.02.09.06s-.03.06-.12.06c-.42,0-.9-.02-.94-.02-.02,0-.51.02-.74.02-.07,0-.13-.02-.13-.06,0-.03.03-.06.11-.06.04,0,.13,0,.2-.02.14-.03.16-.2.19-.4.04-.3.04-.88.04-1.5v-1.23Z"/>
  <path class="cls-1" d="M125.59,62.34c0-1.09,0-1.28-.02-1.51-.02-.22-.07-.35-.33-.4-.05,0-.13-.02-.2-.02-.06,0-.09-.02-.09-.05s.02-.06.1-.06c.35,0,.86.02.87.02.07,0,.63-.02.86-.02.46,0,.96.04,1.35.31.16.11.49.44.49,1,0,.45-.22,1.03-.87,1.56.6.74,1.09,1.35,1.51,1.79.39.4.64.47.87.5.06,0,.23.02.26.02.07,0,.09.02.09.06,0,.04-.03.06-.15.06h-.58c-.39,0-.57-.02-.75-.1-.35-.15-.59-.52-1.02-1.07-.32-.4-.65-.84-.79-1.01-.03-.03-.05-.05-.1-.05h-.85s-.04,0-.04.03v.11c0,.66,0,1.26.04,1.56.02.2.05.36.32.4.08,0,.17.02.24.02.07,0,.11.02.11.05,0,.04-.03.07-.12.07-.43,0-.89-.02-.92-.02-.13,0-.49.02-.72.02-.08,0-.12-.02-.12-.07,0-.02.05-.05.1-.05.06,0,.11,0,.18-.02.14-.02.19-.12.21-.31.04-.3.03-.97.03-1.59v-1.23ZM126.22,62.92s0,.08.04.1c.11.06.44.11.73.11.17,0,.38,0,.55-.12.25-.16.41-.52.41-1.05,0-.9-.48-1.39-1.21-1.39-.21,0-.38.02-.48.04-.03,0-.05.03-.05.07v2.24Z"/>
  <path class="cls-1" d="M136.3,64.7c.02.2.07.66.39.73.14.03.3.05.42.06.03,0,.11,0,.11.05s-.03.07-.12.07c-.15,0-1.04-.03-1.3-.05-.18-.02-.25-.03-.25-.07,0-.03.03-.06.07-.07.04-.02.07-.12.05-.23l-.36-3.52-1.75,3.54c-.16.32-.18.39-.26.39-.05,0-.09-.07-.25-.35-.13-.24-.79-1.56-.84-1.63-.05-.1-.86-1.7-.92-1.87l-.3,3.17c0,.11,0,.19,0,.31,0,.09.04.21.21.25.09.02.15.02.23.02.07,0,.08.03.08.05,0,.06-.05.07-.14.07-.26,0-.62-.02-.68-.02-.08,0-.43.02-.63.02-.07,0-.12,0-.12-.07,0-.02.03-.05.11-.05.06,0,.07,0,.16,0,.2-.02.27-.21.31-.54l.55-4.52c.02-.14.05-.21.09-.21s.07.02.12.13l2.21,4.27,2.1-4.26c.04-.09.07-.14.12-.14s.07.07.08.21l.52,4.28Z"/>
  <path class="cls-1" d="M139.91,62.95c0-1.09.85-2.73,2.88-2.73,1.63,0,2.87.97,2.87,2.63s-1.16,2.86-2.91,2.86c-2.02,0-2.84-1.5-2.84-2.75M144.89,63.05c0-1.65-1.02-2.58-2.15-2.58s-2.07.71-2.07,2.26.9,2.68,2.28,2.68c.55,0,1.93-.28,1.93-2.37"/>
  <path class="cls-1" d="M147.11,62.34c0-1.08,0-1.28-.02-1.5-.02-.23-.06-.36-.31-.39-.07,0-.13,0-.21-.02-.07,0-.11-.03-.11-.07,0-.04.04-.06.12-.06.3,0,.57.02.84.02.12,0,1.62,0,1.79,0,.16,0,.29-.02.37-.06.04-.02.07-.02.08-.02.02,0,.04.02.02.07-.02.06-.04.17-.05.26-.03.21-.02.36-.04.58,0,.09-.02.12-.06.12-.04,0-.06-.04-.07-.1,0-.09-.03-.31-.13-.41-.11-.1-.26-.11-.46-.12-.35,0-.68-.02-1.04-.02-.06,0-.07.02-.07.08v1.86s0,.07.06.07c.34,0,.73,0,1,0,.34,0,.44-.02.55-.16.03-.04.05-.07.08-.07.02,0,.03.03.03.07s-.03.18-.06.43c-.02.22-.03.36-.03.48,0,.08-.02.12-.06.12-.05,0-.05-.05-.06-.12,0-.11-.02-.39-.43-.44-.16-.02-.91-.02-1.04-.02-.05,0-.06.02-.06.07v.58c0,.55,0,1.05.02,1.37,0,.41.07.47.3.5.11.02.18.03.26.03.07,0,.1.02.1.06s-.02.06-.11.06c-.43,0-.88-.02-.91-.02h-.06c-.16,0-.49.02-.67.02-.07,0-.11-.02-.11-.06,0-.02.02-.05.08-.06.08,0,.12,0,.17-.02.19-.02.21-.16.23-.45.02-.3.03-.79.03-1.45v-1.23Z"/>
  <path class="cls-2" d="M78.46,74.84c0-1.77-.02-1.99-.03-2.36-.02-.47-.15-.62-.41-.67-.16-.03-.34-.03-.43-.05-.13-.01-.19-.06-.19-.13s.08-.1.24-.1c.47,0,1.5.03,1.66.03.21,0,1.24-.03,1.74-.03,1.02,0,1.73.1,2.21.39.52.3.98.88.98,1.74,0,.96-.52,1.69-1.45,2.29.66,1,1.45,2.22,2.11,3.02.57.67.83.87,1.14.91.12.02.18.02.27.03.12,0,.18.05.18.11,0,.1-.11.11-.22.11h-.97c-1.11,0-1.59-.11-1.97-.38-.35-.22-.69-.71-1.11-1.42-.5-.87-.75-1.33-.94-1.64-.02-.03-.08-.07-.13-.07h-.71c-.05,0-.09.02-.09.09v.58c0,.9,0,1.44.05,1.92.02.3.1.55.42.63.15.05.27.05.49.07.17.01.19.06.19.13s-.08.1-.23.1c-.72,0-1.9-.03-1.98-.03-.13,0-1.18.03-1.55.03-.16,0-.22-.03-.22-.11s.08-.11.19-.11c.11-.01.25-.02.37-.05.22-.06.3-.26.34-.65.04-.48.05-1.28.05-2.38v-2.01ZM80.32,75.61c0,.09.03.14.1.17.2.11.53.15.83.15s.51-.05.68-.18c.23-.18.42-.67.42-1.44,0-1.62-.97-2.04-1.54-2.04-.17,0-.36.01-.43.05-.04.02-.06.03-.06.12v3.17Z"/>
  <path class="cls-2" d="M88.1,78.28c-.06,0-.1.07-.11.1l-.23.58c-.1.25-.16.48-.16.6,0,.33.41.34.66.36.14.01.17.06.17.1,0,.08-.05.13-.18.13-.48,0-.8-.03-1.35-.03-.11,0-.74.03-1.2.03-.15,0-.19-.05-.19-.11s.05-.11.17-.11c.47-.06.71-.19,1-.87l2.6-5.84c.23-.52.34-.67.45-.67.11,0,.19.15.38.54.24.56,1.91,4.26,2.56,5.77.34.73.51.99.88,1.05.09.01.16.02.22.02.12,0,.18.06.18.11,0,.08-.09.11-.19.11-1.09-.01-2.22-.02-2.79-.03-.13,0-.19-.05-.19-.1,0-.07.07-.09.13-.11.09-.03.18-.05.13-.17l-.59-1.4s-.05-.06-.09-.06h-2.24ZM90.03,77.38c.06,0,.06-.02.05-.05l-.85-2.04c-.03-.06-.03-.03-.05.01l-.8,2.03s.01.05.03.05h1.62Z"/>
  <path class="cls-2" d="M93.08,73.68c-.16-.43-.27-.65-.52-.71-.11-.03-.19-.03-.28-.06-.12-.02-.15-.07-.15-.13s.06-.1.21-.1c.61,0,1.3.03,1.46.03.28,0,1.02-.03,1.55-.03.13,0,.21.05.21.11s-.06.11-.16.11c-.1.01-.12.01-.24.03-.13.02-.21.09-.21.22s.1.42.25.88c.09.29.78,2.41,1.12,3.32l1.68-4.31c.1-.25.17-.34.27-.34.14,0,.19.17.34.47l1.93,4.22c.3-.88.74-2.31,1.01-3.26.12-.44.21-.73.21-.87,0-.19-.06-.31-.59-.35-.11,0-.18-.05-.18-.1,0-.05.02-.13.19-.13.65,0,1.17.03,1.25.03.06,0,.81-.02,1.16-.02.12,0,.21.02.21.1,0,.06-.03.1-.16.11-.1.01-.15.01-.3.05-.29.06-.45.29-.71,1.04-.41,1.15-1.31,3.67-2.07,5.64-.13.33-.24.65-.41.65-.14,0-.23-.16-.38-.5l-1.93-4.05c-.44,1.11-1.21,2.87-1.69,3.97-.16.35-.3.58-.45.58-.13,0-.21-.16-.4-.67l-2.19-5.94Z"/>
  <path class="cls-2" d="M104.41,78.28c-.06,0-.1.07-.11.1l-.23.58c-.1.25-.16.48-.16.6,0,.33.41.34.66.36.14.01.17.06.17.1,0,.08-.05.13-.18.13-.48,0-.8-.03-1.35-.03-.11,0-.74.03-1.2.03-.15,0-.19-.05-.19-.11s.05-.11.17-.11c.46-.06.71-.19.99-.87l2.6-5.84c.23-.52.34-.67.45-.67.11,0,.19.15.38.54.24.56,1.91,4.26,2.56,5.77.34.73.51.99.88,1.05.09.01.16.02.22.02.12,0,.18.06.18.11,0,.08-.09.11-.19.11-1.09-.01-2.22-.02-2.79-.03-.13,0-.19-.05-.19-.1,0-.07.07-.09.13-.11.09-.03.18-.05.13-.17l-.59-1.4s-.05-.06-.09-.06h-2.24ZM106.34,77.38c.06,0,.06-.02.05-.05l-.85-2.04c-.03-.06-.03-.03-.05.01l-.8,2.03s.01.05.03.05h1.62Z"/>
  <path class="cls-2" d="M110.92,73.05c.01-.33.04-.5.18-.5.05,0,.1,0,.37.22.47.39,1.96,1.73,3.16,2.85,1.07.99,1.58,1.45,1.86,1.71l-.05-3.49c-.02-.55-.09-.81-.51-.88-.12-.02-.24-.03-.39-.05-.13-.01-.17-.07-.17-.11,0-.08.09-.11.18-.11.36,0,1.03.03,1.46.03.24,0,.75-.03,1.14-.03.16,0,.21.05.21.1,0,.05-.02.11-.16.13-.12.01-.15.01-.22.02-.32.05-.43.19-.47.82-.09,1.86-.12,3.88-.13,5.86,0,.57-.06.67-.21.67-.16,0-.5-.25-1.27-.91-.67-.59-1.44-1.29-1.9-1.73-.52-.49-1.35-1.24-2.19-2.04l.1,3.2c.02.68.04.97.34,1.05.18.05.29.06.49.07.16.02.21.06.21.11,0,.08-.06.11-.24.11-.27,0-.56-.02-1.24-.03-.27,0-1.06.03-1.38.03-.16,0-.22-.03-.22-.11,0-.06.04-.1.17-.11.1-.01.15-.01.27-.02.4-.06.49-.29.52-1.2.05-2.04.05-4.33.1-5.65"/>
  <path class="cls-2" d="M131.43,78.69c.09.74.19,1.03.55,1.14.22.07.48.09.62.1.14,0,.21.03.21.11,0,.09-.09.11-.26.11-.9,0-1.77,0-3.01-.07-.21-.01-.25-.08-.25-.14,0-.05.04-.09.12-.11.17-.07.18-.14.14-.65l-.39-4.08-2.23,4.4c-.29.58-.36.65-.44.65-.12,0-.18-.11-.49-.62-.38-.64-1.04-1.94-1.45-2.67-.18-.33-.66-1.27-.87-1.65l-.31,3.21c-.04.49-.04.74-.04.91,0,.33.11.47.38.52.16.03.26.05.4.06.16,0,.19.03.19.1,0,.09-.04.13-.22.13-.48,0-1.07-.03-1.4-.03s-.84.03-1.24.03c-.11,0-.24,0-.24-.11,0-.07.06-.11.22-.11.09-.01.21-.01.32-.03.31-.07.42-.33.53-1.08l.98-7.01c.04-.34.12-.44.23-.44.12,0,.19.11.42.47l3.09,5.46,2.96-5.52c.17-.3.26-.41.37-.41s.17.16.2.44l.89,6.89Z"/>
  <path class="cls-2" d="M133.74,75.55c0-1.54,0-1.8-.03-2.11-.02-.26-.09-.44-.32-.48-.06-.02-.17-.03-.3-.05-.13-.01-.18-.05-.18-.11,0-.06.03-.11.22-.11.38,0,1.42.03,1.45.03.05,0,1.28-.03,1.64-.03.17,0,.19.05.19.11,0,.08-.08.1-.19.11-.1.01-.11.01-.22.03-.26.06-.35.16-.39.5-.03.32-.03.56-.03,2.1v1.73c0,.75.01,1.69.05,2.11.02.25.09.42.38.49.13.03.29.03.4.05.16,0,.21.07.21.13,0,.05-.04.1-.21.1-.67,0-1.78-.03-1.84-.03-.02,0-1.15.03-1.45.03-.16,0-.23-.03-.23-.11,0-.06.05-.11.16-.11.09-.01.18-.01.31-.03.21-.05.29-.25.31-.54.05-.41.06-1.09.06-2.07v-1.73Z"/>
  <path class="cls-2" d="M137.58,80.01c-.17-.07-.22-.22-.22-.4,0-.85.02-1.22.05-1.53.02-.18.08-.22.13-.22s.09.05.1.15c.01.09.01.17.03.26.13.86.92,1.35,1.71,1.35.88,0,1.15-.43,1.15-.83s-.13-.72-.95-1.3l-.59-.42c-1.16-.84-1.47-1.5-1.47-2.42.01-1.14.95-2.1,2.52-2.1.44,0,.74.02,1.18.11.15.03.32.07.49.11.1.02.12.06.12.15-.01.36-.03.54-.03,1.45,0,.17-.03.24-.11.24-.05,0-.11-.02-.13-.19-.01-.11-.04-.33-.15-.55-.19-.36-.7-.71-1.35-.71-.81,0-1.07.48-1.07.9s.19.73.74,1.08l.55.36c1.4.92,1.78,1.48,1.78,2.47,0,.79-.34,1.47-1.08,1.9-.57.34-1.24.4-1.75.4-.76,0-1.25-.11-1.63-.29"/>
  <path class="cls-2" d="M148.37,75.69s.06,0,.06-.06v-.21c0-1.54,0-1.66-.02-1.98-.02-.25-.1-.43-.42-.49-.08-.01-.22-.02-.34-.03-.13,0-.18-.08-.18-.11,0-.07.04-.11.19-.11.57,0,1.51.03,1.57.03.04,0,1.25-.03,1.68-.03.17,0,.19.05.19.11,0,.06-.03.11-.15.11-.18.02-.19.02-.3.05-.25.03-.32.18-.36.5-.03.32-.03.55-.03,2.09v1.73c0,.96.01,1.66.05,2.06.03.34.12.5.41.55.13.02.31.02.4.03.13.01.18.06.18.13,0,.08-.1.1-.22.1-.66,0-1.73-.03-1.88-.03s-.92.03-1.42.03c-.18,0-.21-.06-.21-.11,0-.05.05-.11.17-.11.12-.01.19-.01.28-.03.24-.05.3-.23.34-.56.04-.41.05-.98.05-1.94v-.75s-.03-.07-.06-.07h-2.86s-.07.01-.07.07v1.05c0,.95.01,1.25.05,1.66.03.3.15.49.44.52.14.03.29.03.37.05.13.01.18.06.18.13,0,.05-.03.1-.18.1-.54,0-1.82-.03-1.87-.03-.04,0-1.18.03-1.47.03-.11,0-.21-.03-.21-.1s.03-.11.16-.13c.11-.01.16-.01.28-.03.25-.03.34-.29.36-.59.04-.42.05-1.06.05-2.02v-1.7c0-1.54-.01-1.74-.03-2.06-.02-.33-.1-.51-.47-.57-.14-.02-.17-.02-.29-.03-.15-.01-.16-.09-.16-.13,0-.07.1-.1.2-.1.57,0,1.44.03,1.66.03.4,0,1.15-.03,1.57-.03.18,0,.21.06.21.13,0,.05-.04.09-.17.1-.13.01-.22.02-.3.05-.28.06-.32.3-.35.56-.03.32-.03.73-.03,1.9v.21c0,.06.03.06.07.06h2.86Z"/>
  <path class="cls-2" d="M153.55,78.28c-.06,0-.1.07-.11.1l-.23.58c-.1.25-.16.48-.16.6,0,.33.41.34.66.36.14.01.17.06.17.1,0,.08-.05.13-.18.13-.48,0-.8-.03-1.35-.03-.11,0-.74.03-1.2.03-.15,0-.19-.05-.19-.11s.05-.11.17-.11c.47-.06.71-.19.99-.87l2.6-5.84c.23-.52.34-.67.45-.67.11,0,.19.15.38.54.24.56,1.91,4.26,2.56,5.77.34.73.51.99.88,1.05.09.01.16.02.22.02.12,0,.18.06.18.11,0,.08-.09.11-.19.11-1.09-.01-2.22-.02-2.79-.03-.13,0-.19-.05-.19-.1,0-.07.07-.09.13-.11.09-.03.18-.05.13-.17l-.59-1.4s-.05-.06-.09-.06h-2.24ZM155.48,77.38c.06,0,.06-.02.05-.05l-.85-2.04c-.03-.06-.03-.03-.05.01l-.8,2.03s.01.05.03.05h1.62Z"/>
  <path class="cls-2" d="M160.13,75.55c0-1.54-.01-1.69-.03-2.01-.02-.42-.19-.56-.4-.58-.17-.03-.26-.03-.34-.05-.12,0-.16-.06-.16-.11s.03-.11.19-.11c.39,0,1.38.03,1.5.03.16,0,1.18-.03,1.67-.03.97,0,1.64.1,2.03.33.52.27.92.76.92,1.54s-.5,1.4-1.29,1.94c.51.82,1.2,1.9,1.8,2.6.5.6.72.75,1.03.8.1.02.18.02.26.03.1.01.15.07.15.12,0,.09-.11.1-.19.1h-.84c-1.13,0-1.59-.11-1.95-.35-.28-.19-.58-.59-.93-1.19-.45-.8-.62-1.13-.8-1.42-.01-.03-.05-.06-.11-.06h-.65s-.08.01-.08.07v.6c0,.74.02,1.22.04,1.52.02.25.08.46.37.54.13.05.32.06.44.07.17.01.17.07.17.12s-.04.1-.18.1c-.66,0-1.81-.03-1.86-.03-.11,0-1.13.03-1.44.03-.16,0-.19-.06-.19-.13,0-.06.07-.1.17-.1.09-.01.23-.01.34-.03.19-.05.28-.22.3-.57.04-.41.05-1.07.05-2.04v-1.73ZM161.92,76.17c0,.07.04.11.09.15.18.1.52.14.8.14.22,0,.44-.05.59-.16.17-.14.34-.54.34-1.17,0-1.4-.91-1.73-1.4-1.73-.14,0-.3,0-.36.03-.04.02-.06.03-.06.11v2.63Z"/>
  <path class="cls-2" d="M167.78,75.55c0-1.54,0-1.8-.03-2.11-.02-.26-.09-.44-.32-.48-.06-.02-.17-.03-.3-.05-.13-.01-.18-.05-.18-.11,0-.06.03-.11.22-.11.38,0,1.42.03,1.45.03.05,0,1.28-.03,1.64-.03.17,0,.19.05.19.11,0,.08-.08.1-.19.11-.1.01-.11.01-.22.03-.26.06-.35.16-.39.5-.03.32-.03.56-.03,2.1v1.73c0,.75.01,1.69.05,2.11.02.25.09.42.38.49.13.03.29.03.4.05.16,0,.21.07.21.13,0,.05-.04.1-.21.1-.67,0-1.78-.03-1.84-.03-.02,0-1.15.03-1.45.03-.16,0-.23-.03-.23-.11,0-.06.05-.11.16-.11.09-.01.18-.01.31-.03.21-.05.29-.25.31-.54.05-.41.06-1.09.06-2.07v-1.73Z"/>
  <path class="cls-2" d="M80.01,90.71c-.05,0-.08.02-.1.08l-.34.93c-.11.3-.17.59-.17.73,0,.22.1.32.32.34.12.02.29.03.38.05.16,0,.19.06.19.11,0,.09-.09.11-.23.11-.49,0-.85-.03-1.43-.03-.12,0-.83.03-1.37.03-.15,0-.22-.05-.22-.11,0-.09.08-.11.21-.11.13-.01.24-.02.35-.05.38-.08.59-.43.82-.98l2.89-6.89c.21-.49.32-.66.44-.66.11,0,.21.16.39.57.28.64,2.1,5,2.83,6.74.37.89.61,1.16.98,1.22.12.03.25.03.35.05.14,0,.21.05.21.11,0,.08-.08.11-.28.11-1.06,0-2.29-.02-2.99-.03-.17,0-.24-.03-.24-.1s.05-.11.15-.14c.12-.02.16-.1.13-.2l-.72-1.81s-.05-.07-.09-.07h-2.48ZM82.17,89.8c.06,0,.06-.03.05-.06l-.95-2.44c-.03-.08-.05-.06-.08,0l-.92,2.44s.01.06.04.06h1.85Z"/>
  <path class="cls-2" d="M88.9,90.21c0,.93-.03,1.65.12,1.87.14.2.31.24,1.13.24.54,0,.8-.01,1.07-.11.27-.11.48-.35.59-.9.02-.11.05-.21.14-.21.06,0,.09.07.09.21,0,.25-.14,1.24-.24,1.53-.09.26-.15.26-.51.26-1.46,0-2.36-.06-3.39-.06-.45,0-.94.03-1.49.03-.15,0-.23-.03-.23-.13,0-.05.05-.1.18-.1.1-.01.12-.01.23-.02.39-.07.43-.23.47-1.14,0-.39.01-.94.01-1.48v-1.73c0-1.64-.01-1.76-.03-2.07-.02-.27-.11-.43-.34-.5-.09-.02-.22-.05-.36-.06-.11-.01-.19-.03-.19-.11s.08-.11.27-.11c.58,0,1.06.03,1.47.03.05,0,1.31-.03,1.66-.03.17,0,.22.05.22.1,0,.09-.09.13-.17.13-.11.01-.15.01-.29.05-.27.05-.35.23-.37.58-.02.32-.03.47-.03,2.13v1.62Z"/>
  <path class="cls-2" d="M95.54,88.86c.39,0,.45.05.45.13,0,.1-.13.18-.62.32-1.02.27-1.75.48-2.33.72-.31.14-.48.27-.59.27-.11,0-.09-.1-.06-.23l.16-.99c.03-.21.06-.22.26-.22h2.73Z"/>
  <path class="cls-2" d="M105.08,91.98c0,.67-.02.74-.22.82-.57.24-1.68.43-2.65.43-3.04,0-5.15-1.44-5.15-4.47,0-1.9.94-3.11,1.95-3.72,1.11-.7,2.28-.75,3.1-.75.66,0,1.29.08,1.75.16.37.05.72.13,1.04.14.1,0,.12.05.11.15-.02.11-.12.58-.12,2.1,0,.18-.04.24-.12.24s-.12-.09-.13-.18c-.02-.17-.02-.3-.13-.57-.21-.77-1.17-1.32-2.67-1.32-.8,0-1.45.24-1.94.82-.42.5-.68,1.35-.68,2.46,0,2.04.93,4.22,3.2,4.22.15,0,.44-.01.61-.14.09-.07.13-.17.13-.31v-.7c0-.47,0-.91-.01-1.33,0-.65-.14-.89-.51-.95-.14-.02-.28-.03-.47-.06-.09,0-.17-.05-.17-.11s.05-.11.23-.11c.7,0,1.54.03,1.83.03.39,0,1.09-.03,1.68-.03.16,0,.25.02.25.11,0,.08-.06.1-.17.11-.04,0-.18.02-.29.03-.26.06-.38.18-.41.58-.02.36-.03.96-.03,1.52v.82Z"/>
  <path class="cls-2" d="M112,88.6s.06,0,.06-.06v-.21c0-1.54,0-1.66-.02-1.98-.02-.25-.1-.43-.42-.49-.08-.01-.22-.02-.34-.03-.13,0-.18-.08-.18-.11,0-.07.04-.11.19-.11.57,0,1.51.03,1.57.03.04,0,1.25-.03,1.68-.03.17,0,.19.05.19.11,0,.06-.03.11-.15.11-.18.02-.19.02-.3.05-.25.03-.32.18-.36.5-.03.32-.03.55-.03,2.09v1.73c0,.96.01,1.66.05,2.06.03.34.12.5.41.55.13.02.31.02.4.03.13.01.18.06.18.13,0,.08-.1.1-.22.1-.66,0-1.73-.03-1.88-.03s-.92.03-1.42.03c-.18,0-.21-.06-.21-.11,0-.05.05-.11.17-.11.12-.01.19-.01.28-.03.24-.05.3-.23.34-.56.04-.41.05-.98.05-1.94v-.75s-.03-.07-.06-.07h-2.86s-.07.01-.07.07v1.05c0,.95.01,1.25.05,1.66.03.3.15.49.44.52.14.03.29.03.37.05.13.01.18.06.18.13,0,.05-.03.1-.18.1-.54,0-1.82-.03-1.87-.03-.04,0-1.18.03-1.47.03-.11,0-.21-.03-.21-.1s.03-.11.16-.13c.11-.01.16-.01.28-.03.25-.03.34-.29.36-.59.04-.42.05-1.06.05-2.02v-1.7c0-1.54-.01-1.74-.03-2.06-.02-.33-.1-.51-.47-.57-.14-.02-.17-.02-.29-.03-.15-.01-.16-.09-.16-.13,0-.07.1-.1.21-.1.57,0,1.44.03,1.66.03.4,0,1.15-.03,1.57-.03.18,0,.21.06.21.13,0,.05-.04.09-.17.1-.13.01-.22.02-.3.05-.28.06-.32.3-.35.56-.03.32-.03.73-.03,1.9v.21c0,.06.03.06.07.06h2.86Z"/>
  <path class="cls-2" d="M117.18,91.19c-.06,0-.1.07-.11.1l-.23.58c-.1.25-.16.48-.16.6,0,.33.41.34.66.36.14.01.17.06.17.1,0,.08-.05.13-.18.13-.48,0-.8-.03-1.35-.03-.11,0-.74.03-1.2.03-.15,0-.19-.05-.19-.11s.05-.11.17-.11c.47-.06.71-.19,1-.87l2.6-5.84c.23-.52.34-.67.45-.67.11,0,.19.15.38.54.24.56,1.91,4.26,2.56,5.77.34.73.51.99.88,1.05.09.01.16.02.22.02.12,0,.18.06.18.11,0,.08-.09.11-.19.11-1.09-.01-2.22-.02-2.79-.03-.13,0-.19-.05-.19-.1,0-.07.07-.09.13-.11.09-.03.18-.05.13-.17l-.59-1.4s-.05-.06-.09-.06h-2.24ZM119.1,90.29c.06,0,.06-.02.05-.05l-.85-2.04c-.03-.06-.03-.03-.05.01l-.8,2.03s.01.05.03.05h1.62Z"/>
  <path class="cls-2" d="M127.24,92.28c1.17,0,1.57-.22,1.75-.76.04-.1.06-.2.09-.3.03-.1.08-.15.14-.15.05,0,.09.05.09.17,0,.26-.17,1.22-.29,1.57-.03.12-.07.25-.26.25-1.62,0-3.22-.05-5.55-.05-.1,0-.17-.02-.17-.1,0-.07.04-.16.16-.35,1.16-1.86,2.53-4.12,3.73-6.17h-1.55c-.79,0-1.11.05-1.36.18-.25.14-.4.39-.53.84-.03.11-.09.18-.16.18-.05,0-.1-.05-.1-.17,0-.18.17-1.32.22-1.72.02-.14.05-.18.12-.18s.17.06.4.07c.92.03,1.37.03,1.9.03h3.27c.1,0,.14.02.14.09,0,.08-.02.15-.12.32-1.23,2.13-2.55,4.34-3.68,6.24h1.76Z"/>
  <path class="cls-2" d="M131.92,91.19c-.06,0-.1.07-.11.1l-.23.58c-.1.25-.16.48-.16.6,0,.33.41.34.66.36.14.01.17.06.17.1,0,.08-.05.13-.18.13-.48,0-.8-.03-1.35-.03-.11,0-.74.03-1.2.03-.15,0-.19-.05-.19-.11s.05-.11.17-.11c.47-.06.71-.19,1-.87l2.6-5.84c.23-.52.34-.67.45-.67.11,0,.19.15.38.54.24.56,1.91,4.26,2.56,5.77.34.73.51.99.88,1.05.09.01.16.02.22.02.12,0,.18.06.18.11,0,.08-.09.11-.19.11-1.09-.01-2.22-.02-2.79-.03-.13,0-.19-.05-.19-.1,0-.07.07-.09.13-.11.09-.03.18-.05.13-.17l-.59-1.4s-.05-.06-.09-.06h-2.24ZM133.85,90.29c.06,0,.06-.02.05-.05l-.85-2.04c-.03-.06-.03-.03-.05.01l-.8,2.03s.01.05.03.05h1.62Z"/>
  <path class="cls-2" d="M140.32,90.21c0,.93-.03,1.65.12,1.87.14.2.31.24,1.13.24.54,0,.8-.01,1.07-.11.27-.11.48-.35.59-.9.02-.11.05-.21.14-.21.06,0,.09.07.09.21,0,.25-.14,1.24-.24,1.53-.09.26-.15.26-.51.26-1.46,0-2.36-.06-3.39-.06-.45,0-.94.03-1.49.03-.15,0-.23-.03-.23-.13,0-.05.05-.1.18-.1.1-.01.12-.01.23-.02.39-.07.43-.23.47-1.14,0-.39.01-.94.01-1.48v-1.73c0-1.64-.01-1.76-.03-2.07-.02-.27-.11-.43-.34-.5-.09-.02-.22-.05-.36-.06-.11-.01-.19-.03-.19-.11s.08-.11.27-.11c.58,0,1.06.03,1.47.03.05,0,1.31-.03,1.66-.03.17,0,.22.05.22.1,0,.09-.09.13-.17.13-.11.01-.15.01-.29.05-.27.05-.35.23-.37.58-.02.32-.03.47-.03,2.13v1.62Z"/>
  <path class="cls-2" d="M144.75,88.46c0-1.54,0-1.8-.03-2.11-.02-.26-.09-.44-.32-.48-.07-.02-.17-.03-.3-.05-.13-.01-.18-.05-.18-.11,0-.06.03-.11.22-.11.38,0,1.42.03,1.45.03.05,0,1.28-.03,1.64-.03.17,0,.19.05.19.11,0,.08-.08.1-.19.11-.1.01-.11.01-.22.03-.26.06-.35.16-.39.5-.03.32-.03.56-.03,2.1v1.73c0,.75.01,1.69.05,2.11.02.25.09.42.38.49.13.03.29.03.4.05.16,0,.21.07.21.13,0,.05-.04.1-.21.1-.67,0-1.78-.03-1.84-.03-.02,0-1.15.03-1.45.03-.16,0-.23-.03-.23-.11,0-.06.05-.11.16-.11.09-.01.18-.01.31-.03.21-.05.29-.25.31-.54.05-.41.06-1.09.06-2.07v-1.73Z"/>
</svg>