<svg width="186" height="183" viewBox="0 0 186 183" fill="none" xmlns="http://www.w3.org/2000/svg">
<path d="M85 55L92.8175 79.2401L118.287 79.1844L97.6491 94.1099L105.572 118.316L85 103.3L64.4275 118.316L72.3509 94.1099L51.713 79.1844L77.1825 79.2401L85 55Z" fill="#F8D96E"/>
<path d="M138.5 154L141.739 164.042L152.29 164.019L143.74 170.203L147.023 180.231L138.5 174.01L129.977 180.231L133.26 170.203L124.71 164.019L135.261 164.042L138.5 154Z" fill="#F6F2E5"/>
<path d="M161.5 65L165.185 76.4275L177.192 76.4012L167.463 83.4375L171.198 94.8488L161.5 87.77L151.802 94.8488L155.537 83.4375L145.808 76.4012L157.815 76.4275L161.5 65Z" fill="#F6F2E5"/>
<path d="M109.5 21L113.855 34.5052L128.046 34.4742L116.547 42.7898L120.962 56.2758L109.5 47.91L98.0382 56.2758L102.453 42.7898L90.9544 34.4742L105.145 34.5052L109.5 21Z" fill="#F6F2E5"/>
<path d="M33.5 107L38.0788 121.198L52.9967 121.165L40.9087 129.907L45.5496 144.085L33.5 135.29L21.4504 144.085L26.0913 129.907L14.0033 121.165L28.9212 121.198L33.5 107Z" fill="#F6F2E5"/>
<path d="M20.5 44L22.8453 51.272L30.4861 51.2553L24.2947 55.733L26.6717 62.9947L20.5 58.49L14.3283 62.9947L16.7053 55.733L10.5139 51.2553L18.1547 51.272L20.5 44Z" fill="#F6F2E5"/>
<path d="M48.5 21L50.8453 28.272L58.4861 28.2553L52.2947 32.733L54.6717 39.9947L48.5 35.49L42.3283 39.9947L44.7053 32.733L38.5139 28.2553L46.1547 28.272L48.5 21Z" fill="#F6F2E5"/>
<path d="M76.426 91.4249C76.426 91.6532 76.4287 91.8533 76.4341 92.0251C76.4421 92.1943 76.4502 92.3407 76.4583 92.4642C76.469 92.5878 76.4811 92.6912 76.4945 92.7744C76.5106 92.8577 76.5267 92.9275 76.5428 92.9839V93H75.576V92.9839C75.5922 92.9275 75.6069 92.8577 75.6204 92.7744C75.6365 92.6912 75.6499 92.5878 75.6606 92.4642C75.6714 92.3407 75.6794 92.1943 75.6848 92.0251C75.6902 91.8533 75.6929 91.6532 75.6929 91.4249V88.8025C75.6929 88.5742 75.6902 88.3755 75.6848 88.2063C75.6794 88.0344 75.6714 87.8867 75.6606 87.7632C75.6499 87.637 75.6365 87.5322 75.6204 87.449C75.6069 87.3657 75.5922 87.2959 75.576 87.2395V87.2234C75.6298 87.2288 75.6862 87.2341 75.7452 87.2395C75.7963 87.2449 75.8527 87.2489 75.9144 87.2516C75.9789 87.2516 76.0447 87.2516 76.1118 87.2516C76.2166 87.2516 76.3575 87.2395 76.5348 87.2153C76.7147 87.1885 76.943 87.175 77.2196 87.175C77.4774 87.175 77.7151 87.21 77.9326 87.2798C78.1528 87.3496 78.3435 87.4517 78.5046 87.5859C78.6658 87.7202 78.7906 87.8854 78.8793 88.0814C78.9706 88.2748 79.0162 88.495 79.0162 88.7421C79.0162 88.9354 78.9907 89.1154 78.9397 89.2819C78.8914 89.4457 78.8215 89.5947 78.7302 89.729C78.6416 89.8633 78.5342 89.9828 78.408 90.0875C78.2817 90.1896 78.1407 90.2755 77.985 90.3453L79.3989 92.3313C79.4688 92.4307 79.5332 92.5166 79.5923 92.5891C79.6541 92.6616 79.7118 92.7234 79.7655 92.7744C79.8219 92.8254 79.8756 92.8684 79.9266 92.9033C79.9777 92.9355 80.03 92.9624 80.0837 92.9839V93H78.9196C78.9115 92.949 78.8846 92.8818 78.839 92.7986C78.796 92.7126 78.745 92.6281 78.6859 92.5448L77.2599 90.5347C77.1283 90.5481 76.9927 90.5548 76.853 90.5548C76.7134 90.5548 76.571 90.5427 76.426 90.5186V91.4249ZM76.426 90.2043C76.6892 90.2527 76.9296 90.2594 77.1471 90.2245C77.3673 90.1896 77.5553 90.113 77.7111 89.9949C77.8695 89.8767 77.9917 89.7169 78.0776 89.5155C78.1663 89.3114 78.2106 89.0643 78.2106 88.7743C78.2106 88.5729 78.1877 88.3903 78.1421 88.2264C78.0964 88.0626 78.028 87.9243 77.9366 87.8115C77.848 87.696 77.7352 87.6074 77.5983 87.5457C77.4613 87.4812 77.3015 87.449 77.1189 87.449C77.0034 87.449 76.9027 87.4543 76.8168 87.4651C76.7308 87.4731 76.6583 87.4825 76.5992 87.4933C76.5294 87.5067 76.4717 87.5215 76.426 87.5376V90.2043ZM80.1643 92.9839C80.1938 92.9409 80.2274 92.8778 80.265 92.7946C80.3026 92.7086 80.3322 92.6012 80.3536 92.4723C80.3832 92.2843 80.4154 92.0735 80.4503 91.8398C80.4879 91.6035 80.5255 91.3564 80.5631 91.0986C80.6034 90.8408 80.6423 90.5776 80.6799 90.3091C80.7202 90.0378 80.7578 89.772 80.7927 89.5115C80.8303 89.2483 80.8652 88.9958 80.8975 88.7542C80.9324 88.5098 80.9633 88.2869 80.9901 88.0854C81.017 87.884 81.0385 87.7095 81.0546 87.5618C81.0734 87.4114 81.0868 87.2986 81.0948 87.2234H81.6064L84.1403 91.9607L86.6539 87.2234H87.0366L87.6973 92.009C87.7161 92.1594 87.7362 92.2883 87.7577 92.3958C87.7792 92.5032 87.8007 92.5958 87.8221 92.6737C87.8436 92.7489 87.8638 92.812 87.8826 92.863C87.9041 92.9114 87.9242 92.9517 87.943 92.9839V93H86.9279V92.9839C86.9413 92.9543 86.9534 92.906 86.9641 92.8389C86.9775 92.7717 86.9843 92.6912 86.9843 92.5972C86.9843 92.5623 86.9829 92.5273 86.9802 92.4924C86.9775 92.4548 86.9735 92.4146 86.9681 92.3716L86.4565 88.5125L84.0798 92.9839L83.8019 92.9517L81.4091 88.4722C81.3151 89.1086 81.2332 89.6968 81.1633 90.2366C81.1338 90.4675 81.1042 90.6985 81.0747 90.9294C81.0452 91.1577 81.0183 91.3712 80.9941 91.5699C80.9727 91.7687 80.9552 91.9446 80.9418 92.0977C80.9283 92.248 80.9216 92.3595 80.9216 92.432C80.9216 92.5233 80.9243 92.6039 80.9297 92.6737C80.9351 92.7435 80.9404 92.8026 80.9458 92.851C80.9539 92.9073 80.9619 92.957 80.97 93H80.1643V92.9839ZM93.9371 92.3232C93.9371 92.3528 93.9331 92.3837 93.925 92.4159C93.9197 92.4481 93.9049 92.475 93.8807 92.4965C93.7599 92.5878 93.6283 92.6724 93.486 92.7502C93.3463 92.8254 93.1946 92.8912 93.0308 92.9476C92.8669 93.004 92.6897 93.047 92.499 93.0765C92.311 93.1088 92.1083 93.1249 91.8907 93.1249C91.402 93.1249 90.9562 93.0537 90.5533 92.9114C90.1505 92.7664 89.8041 92.5623 89.514 92.2991C89.2267 92.0359 89.0038 91.7203 88.8453 91.3524C88.6869 90.9818 88.6077 90.5709 88.6077 90.1198C88.6077 89.8646 88.6399 89.6135 88.7043 89.3665C88.7715 89.1194 88.8682 88.8844 88.9944 88.6615C89.1206 88.4386 89.2764 88.2345 89.4617 88.0492C89.647 87.8612 89.8578 87.6987 90.0941 87.5618C90.3331 87.4248 90.595 87.3187 90.8796 87.2435C91.167 87.1656 91.4772 87.1267 91.8102 87.1267C91.9391 87.1267 92.0707 87.1334 92.205 87.1469C92.3392 87.1576 92.4722 87.175 92.6038 87.1992C92.7354 87.2207 92.8616 87.2476 92.9824 87.2798C93.106 87.312 93.2228 87.3483 93.3329 87.3885L93.6068 88.1338L93.5746 88.1499C93.4698 88.0559 93.349 87.9686 93.212 87.8881C93.0751 87.8075 92.9287 87.7377 92.7729 87.6786C92.6172 87.6195 92.4534 87.5739 92.2815 87.5416C92.1123 87.5067 91.9404 87.4893 91.7659 87.4893C91.4275 87.4893 91.1173 87.543 90.8353 87.6504C90.5533 87.7551 90.3103 87.9082 90.1062 88.1096C89.9048 88.311 89.7477 88.5581 89.6349 88.8508C89.5221 89.1436 89.4657 89.4766 89.4657 89.8499C89.4657 90.2607 89.5194 90.6421 89.6268 90.9939C89.7343 91.3457 89.894 91.6505 90.1062 91.9083C90.3184 92.1661 90.5829 92.3689 90.8998 92.5166C91.2194 92.6616 91.5913 92.7341 92.0156 92.7341C92.2036 92.7341 92.3715 92.7194 92.5192 92.6898C92.6669 92.6603 92.7917 92.624 92.8938 92.5811C92.9958 92.5354 93.0724 92.4871 93.1234 92.436C93.1771 92.3823 93.204 92.334 93.204 92.291V92.1339C93.204 91.9459 93.2013 91.7834 93.1959 91.6465C93.1906 91.5095 93.1825 91.3914 93.1718 91.292C93.161 91.1899 93.1489 91.1027 93.1355 91.0302C93.1221 90.9576 93.106 90.8905 93.0872 90.8287V90.8126H94.054V90.8287C94.0378 90.8851 94.0217 90.9523 94.0056 91.0302C93.9922 91.1053 93.9801 91.1953 93.9694 91.3C93.9586 91.4048 93.9506 91.5283 93.9452 91.6707C93.9398 91.8103 93.9371 91.9728 93.9371 92.1581V92.3232Z" fill="#F6F2E5"/>
</svg>
